NotoSansOriya-Black.ufo
<glyph name="quotedbl" format="2">
  <advance width="582"/>
  <unicode hex="0022"/>
  <outline>
    <contour>
      <point x="116" y="471" type="line"/>
      <point x="250" y="471" type="line"/>
      <point x="270" y="729" type="line"/>
      <point x="96" y="729" type="line"/>
    </contour>
    <contour>
      <point x="348" y="471" type="line"/>
      <point x="482" y="471" type="line"/>
      <point x="502" y="729" type="line"/>
      <point x="328" y="729" type="line"/>
    </contour>
  </outline>
</glyph>
<glyph name="comma" format="2">
  <advance width="299"/>
  <unicode hex="002C"/>
  <outline>
    <contour>
      <point x="31" y="-139" type="curve"/>
      <point x="167" y="-139" type="line"/>
      <point x="200" y="-65"/>
      <point x="235" y="63"/>
      <point x="253" y="135" type="curve"/>
      <point x="246" y="146" type="line"/>
      <point x="79" y="146" type="line"/>
      <point x="70" y="66"/>
      <point x="50" y="-48"/>
    </contour>
  </outline>
</glyph>
<glyph name="slash" format="2">
  <advance width="507"/>
  <unicode hex="002F"/>
  <outline>
    <contour>
      <point x="315" y="833" type="line"/>
      <point x="29" y="-166" type="line"/>
      <point x="191" y="-166" type="line"/>
      <point x="477" y="833" type="line"/>
    </contour>
  </outline>
</glyph>
<glyph name="two" format="2">
  <advance width="578"/>
  <unicode hex="0032"/>
  <outline>
    <contour>
      <point x="30" y="126" type="line"/>
      <point x="30" y="0" type="line"/>
      <point x="539" y="0" type="line"/>
      <point x="539" y="158" type="line"/>
      <point x="274" y="158" type="line"/>
      <point x="274" y="163" type="line"/>
      <point x="328" y="214" type="line" smooth="yes"/>
      <point x="461" y="337"/>
      <point x="525" y="408"/>
      <point x="525" y="529" type="curve" smooth="yes"/>
      <point x="525" y="641"/>
      <point x="433" y="724"/>
      <point x="290" y="724" type="curve" smooth="yes"/>
      <point x="162" y="724"/>
      <point x="87" y="668"/>
      <point x="22" y="610" type="curve"/>
      <point x="126" y="487" type="line"/>
      <point x="183" y="538"/>
      <point x="224" y="563"/>
      <point x="269" y="563" type="curve" smooth="yes"/>
      <point x="306" y="563"/>
      <point x="336" y="545"/>
      <point x="336" y="503" type="curve" smooth="yes"/>
      <point x="336" y="451"/>
      <point x="307" y="416"/>
      <point x="200" y="303" type="curve" smooth="yes"/>
    </contour>
  </outline>
</glyph>
<glyph name="less" format="2">
  <advance width="585"/>
  <unicode hex="003C"/>
  <outline>
    <contour>
      <point x="55" y="284" type="line"/>
      <point x="531" y="65" type="line"/>
      <point x="531" y="210" type="line"/>
      <point x="251" y="332" type="line"/>
      <point x="531" y="471" type="line"/>
      <point x="531" y="616" type="line"/>
      <point x="55" y="369" type="line"/>
    </contour>
  </outline>
</glyph>
<glyph name="danda" format="2">
  <advance width="318"/>
  <unicode hex="0964"/>
  <note>
danda.orya
</note>
  <outline>
    <contour>
      <point x="74" y="658" type="line"/>
      <point x="74" y="0" type="line"/>
      <point x="244" y="0" type="line"/>
      <point x="244" y="658" type="line"/>
    </contour>
  </outline>
</glyph>
<glyph name="anusvara-oriya" format="2">
  <advance width="341"/>
  <unicode hex="0B02"/>
  <note>
anusvaraorya
</note>
  <outline>
    <contour>
      <point x="171" y="364" type="curve" smooth="yes"/>
      <point x="267" y="364"/>
      <point x="331" y="426"/>
      <point x="331" y="515" type="curve" smooth="yes"/>
      <point x="331" y="607"/>
      <point x="264" y="666"/>
      <point x="171" y="666" type="curve" smooth="yes"/>
      <point x="74" y="666"/>
      <point x="10" y="604"/>
      <point x="10" y="515" type="curve" smooth="yes"/>
      <point x="10" y="422"/>
      <point x="76" y="364"/>
    </contour>
    <contour>
      <point x="171" y="556" type="curve" smooth="yes"/>
      <point x="196" y="556"/>
      <point x="211" y="541"/>
      <point x="211" y="515" type="curve" smooth="yes"/>
      <point x="211" y="491"/>
      <point x="197" y="474"/>
      <point x="171" y="474" type="curve" smooth="yes"/>
      <point x="145" y="474"/>
      <point x="130" y="487"/>
      <point x="130" y="515" type="curve" smooth="yes"/>
      <point x="130" y="539"/>
      <point x="143" y="556"/>
    </contour>
  </outline>
</glyph>
<glyph name="ii-oriya" format="2">
  <advance width="876"/>
  <unicode hex="0B08"/>
  <note>
iiorya
</note>
  <guideline x="1043" y="342" angle="0"/>
  <anchor x="705" y="658" name="topright"/>
  <outline>
    <contour>
      <point x="610" y="157" type="curve"/>
      <point x="784" y="-88" type="line"/>
      <point x="688" y="-37" type="line"/>
      <point x="893" y="108" type="line"/>
      <point x="948" y="-8" type="line"/>
      <point x="755" y="230" type="line"/>
      <point x="727" y="100" type="line"/>
      <point x="815" y="179"/>
      <point x="855" y="269"/>
      <point x="855" y="360" type="curve" smooth="yes"/>
      <point x="855" y="541"/>
      <point x="695" y="666"/>
      <point x="469" y="666" type="curve" smooth="yes"/>
      <point x="282" y="666"/>
      <point x="118" y="579"/>
      <point x="118" y="355" type="curve"/>
      <point x="309" y="467" type="line"/>
      <point x="335" y="497"/>
      <point x="377" y="516"/>
      <point x="445" y="516" type="curve" smooth="yes"/>
      <point x="597" y="516"/>
      <point x="680" y="420"/>
      <point x="680" y="316" type="curve" smooth="yes"/>
      <point x="680" y="261"/>
      <point x="657" y="205"/>
    </contour>
    <contour>
      <point x="235" y="-8" type="curve" smooth="yes"/>
      <point x="324" y="-8"/>
      <point x="373" y="67"/>
      <point x="373" y="168" type="curve" smooth="yes"/>
      <point x="373" y="270"/>
      <point x="323" y="341"/>
      <point x="236" y="341" type="curve" smooth="yes"/>
      <point x="150" y="341"/>
      <point x="90" y="271"/>
      <point x="90" y="165" type="curve" smooth="yes"/>
      <point x="90" y="57"/>
      <point x="152" y="-8"/>
    </contour>
    <contour>
      <point x="243" y="115" type="curve" smooth="yes"/>
      <point x="220" y="115"/>
      <point x="210" y="134"/>
      <point x="210" y="167" type="curve" smooth="yes"/>
      <point x="210" y="200"/>
      <point x="220" y="218"/>
      <point x="243" y="218" type="curve" smooth="yes"/>
      <point x="266" y="218"/>
      <point x="276" y="202"/>
      <point x="276" y="167" type="curve" smooth="yes"/>
      <point x="276" y="133"/>
      <point x="266" y="115"/>
    </contour>
    <contour>
      <point x="447" y="-8" type="curve" smooth="yes"/>
      <point x="530" y="-8"/>
      <point x="590" y="60"/>
      <point x="590" y="168" type="curve" smooth="yes"/>
      <point x="590" y="275"/>
      <point x="531" y="341"/>
      <point x="448" y="341" type="curve" smooth="yes"/>
      <point x="361" y="341"/>
      <point x="303" y="270"/>
      <point x="303" y="168" type="curve" smooth="yes"/>
      <point x="303" y="67"/>
      <point x="360" y="-8"/>
    </contour>
    <contour>
      <point x="437" y="115" type="curve" smooth="yes"/>
      <point x="414" y="115"/>
      <point x="404" y="133"/>
      <point x="404" y="167" type="curve" smooth="yes"/>
      <point x="404" y="202"/>
      <point x="414" y="218"/>
      <point x="437" y="218" type="curve" smooth="yes"/>
      <point x="459" y="218"/>
      <point x="470" y="200"/>
      <point x="470" y="167" type="curve" smooth="yes"/>
      <point x="470" y="134"/>
      <point x="460" y="115"/>
    </contour>
    <contour>
      <point x="170" y="150" type="curve"/>
      <point x="224" y="242" type="line"/>
      <point x="196" y="262"/>
      <point x="182" y="286"/>
      <point x="182" y="308" type="curve" smooth="yes"/>
      <point x="182" y="345"/>
      <point x="224" y="373"/>
      <point x="278" y="373" type="curve" smooth="yes"/>
      <point x="340" y="373"/>
      <point x="397" y="342"/>
      <point x="397" y="301" type="curve"/>
      <point x="365" y="323" type="line"/>
      <point x="509" y="508" type="line"/>
      <point x="492" y="413" type="line"/>
      <point x="449" y="482"/>
      <point x="347" y="517"/>
      <point x="258" y="517" type="curve" smooth="yes"/>
      <point x="125" y="517"/>
      <point x="22" y="439"/>
      <point x="22" y="329" type="curve" smooth="yes"/>
      <point x="22" y="257"/>
      <point x="67" y="191"/>
    </contour>
  </outline>
</glyph>
<glyph name="va-oriya" format="2">
  <advance width="783"/>
  <unicode hex="0B35"/>
  <note>
vaorya
</note>
  <anchor x="409" y="0" name="bottom"/>
  <anchor x="769" y="0" name="bottom_ra"/>
  <anchor x="383" y="658" name="top"/>
  <anchor x="611" y="658" name="topright"/>
  <outline>
    <contour>
      <point x="173" y="170" type="curve"/>
      <point x="233" y="282" type="line"/>
      <point x="200" y="311"/>
      <point x="187" y="345"/>
      <point x="187" y="380" type="curve" smooth="yes"/>
      <point x="187" y="468"/>
      <point x="287" y="506"/>
      <point x="386" y="506" type="curve" smooth="yes"/>
      <point x="488" y="506"/>
      <point x="586" y="465"/>
      <point x="586" y="381" type="curve" smooth="yes"/>
      <point x="586" y="342"/>
      <point x="565" y="303"/>
      <point x="519" y="255" type="curve"/>
      <point x="519" y="347" type="line"/>
      <point x="833" y="230" type="line"/>
      <point x="719" y="244" type="line"/>
      <point x="746" y="282"/>
      <point x="761" y="325"/>
      <point x="761" y="379" type="curve" smooth="yes"/>
      <point x="761" y="571"/>
      <point x="570" y="666"/>
      <point x="383" y="666" type="curve" smooth="yes"/>
      <point x="201" y="666"/>
      <point x="22" y="581"/>
      <point x="22" y="402" type="curve" smooth="yes"/>
      <point x="22" y="315"/>
      <point x="64" y="234"/>
    </contour>
    <contour>
      <point x="368" y="45" type="curve" smooth="yes"/>
      <point x="501" y="45"/>
      <point x="579" y="120"/>
      <point x="579" y="230" type="curve" smooth="yes"/>
      <point x="579" y="336"/>
      <point x="502" y="408"/>
      <point x="372" y="408" type="curve" smooth="yes"/>
      <point x="239" y="408"/>
      <point x="161" y="334"/>
      <point x="161" y="226" type="curve" smooth="yes"/>
      <point x="161" y="119"/>
      <point x="238" y="45"/>
    </contour>
    <contour>
      <point x="370" y="166" type="curve" smooth="yes"/>
      <point x="328" y="166"/>
      <point x="304" y="189"/>
      <point x="304" y="227" type="curve" smooth="yes"/>
      <point x="304" y="264"/>
      <point x="328" y="287"/>
      <point x="370" y="287" type="curve" smooth="yes"/>
      <point x="412" y="287"/>
      <point x="436" y="264"/>
      <point x="436" y="227" type="curve" smooth="yes"/>
      <point x="436" y="189"/>
      <point x="412" y="166"/>
    </contour>
    <contour>
      <point x="370" y="186" type="curve" smooth="yes"/>
      <point x="395" y="186"/>
      <point x="411" y="203"/>
      <point x="411" y="227" type="curve" smooth="yes"/>
      <point x="411" y="250"/>
      <point x="395" y="267"/>
      <point x="370" y="267" type="curve" smooth="yes"/>
      <point x="345" y="267"/>
      <point x="329" y="250"/>
      <point x="329" y="227" type="curve" smooth="yes"/>
      <point x="329" y="203"/>
      <point x="345" y="186"/>
    </contour>
    <contour>
      <point x="409" y="0" type="line"/>
      <point x="579" y="0" type="line"/>
      <point x="579" y="230" type="line"/>
      <point x="419" y="138" type="line"/>
    </contour>
  </outline>
</glyph>
<glyph name="nukta-oriya" format="2">
  <unicode hex="0B3C"/>
  <note>
nuktaorya
</note>
  <anchor x="300" y="-124" name="_nukta"/>
  <outline>
    <contour>
      <point x="300" y="-216" type="curve" smooth="yes"/>
      <point x="353" y="-216"/>
      <point x="393" y="-179"/>
      <point x="393" y="-124" type="curve" smooth="yes"/>
      <point x="393" y="-72"/>
      <point x="350" y="-30"/>
      <point x="300" y="-30" type="curve" smooth="yes"/>
      <point x="250" y="-30"/>
      <point x="208" y="-72"/>
      <point x="208" y="-124" type="curve" smooth="yes"/>
      <point x="208" y="-177"/>
      <point x="251" y="-216"/>
    </contour>
  </outline>
</glyph>
<glyph name="aaMatra-oriya" format="2">
  <advance width="262"/>
  <unicode hex="0B3E"/>
  <note>
aavowelsignorya
</note>
  <anchor x="131" y="658" name="topright"/>
  <outline>
    <contour>
      <point x="46" y="658" type="line"/>
      <point x="46" y="0" type="line"/>
      <point x="216" y="0" type="line"/>
      <point x="216" y="658" type="line"/>
    </contour>
  </outline>
</glyph>
<glyph name="eMatra-oriya" format="2">
  <advance width="611"/>
  <unicode hex="0B47"/>
  <note>
evowelsignorya
</note>
  <outline>
    <contour>
      <point x="161" y="392" type="curve"/>
      <point x="163" y="246" type="line"/>
      <point x="205" y="254"/>
      <point x="247" y="258"/>
      <point x="278" y="258" type="curve" smooth="yes"/>
      <point x="348" y="258"/>
      <point x="389" y="237"/>
      <point x="389" y="201" type="curve" smooth="yes"/>
      <point x="389" y="169"/>
      <point x="358" y="152"/>
      <point x="319" y="152" type="curve" smooth="yes"/>
      <point x="243" y="152"/>
      <point x="205" y="207"/>
      <point x="205" y="309" type="curve" smooth="yes"/>
      <point x="205" y="446"/>
      <point x="295" y="506"/>
      <point x="395" y="506" type="curve" smooth="yes"/>
      <point x="451" y="506"/>
      <point x="509" y="487"/>
      <point x="558" y="454" type="curve"/>
      <point x="518" y="457" type="line"/>
      <point x="591" y="620" type="line"/>
      <point x="532" y="650"/>
      <point x="463" y="666"/>
      <point x="394" y="666" type="curve" smooth="yes"/>
      <point x="213" y="666"/>
      <point x="30" y="572"/>
      <point x="30" y="311" type="curve" smooth="yes"/>
      <point x="30" y="110"/>
      <point x="141" y="-8"/>
      <point x="329" y="-8" type="curve" smooth="yes"/>
      <point x="485" y="-8"/>
      <point x="564" y="87"/>
      <point x="564" y="201" type="curve" smooth="yes"/>
      <point x="564" y="333"/>
      <point x="457" y="408"/>
      <point x="297" y="408" type="curve" smooth="yes"/>
      <point x="256" y="408"/>
      <point x="209" y="403"/>
    </contour>
  </outline>
</glyph>
<glyph name="aiLength-oriya" format="2">
  <advance width="700"/>
  <unicode hex="0B56"/>
  <note>
ailengthmarkorya
</note>
  <guideline x="1461" y="527" angle="90"/>
  <guideline x="298" y="941" angle="0"/>
  <anchor x="543" y="658" name="_topright"/>
  <outline>
    <contour>
      <point x="426" y="732" type="line"/>
      <point x="703" y="675" type="line"/>
      <point x="561" y="594" type="line"/>
      <point x="639" y="649"/>
      <point x="673" y="718"/>
      <point x="673" y="783" type="curve" smooth="yes"/>
      <point x="673" y="867"/>
      <point x="615" y="941"/>
      <point x="504" y="941" type="curve" smooth="yes"/>
      <point x="407" y="941"/>
      <point x="278" y="884"/>
      <point x="224" y="884" type="curve" smooth="yes"/>
      <point x="187" y="884"/>
      <point x="158" y="910"/>
      <point x="134" y="976" type="curve"/>
      <point x="204" y="961" type="line"/>
      <point x="-6" y="831" type="line"/>
      <point x="5" y="872" type="line"/>
      <point x="38" y="749"/>
      <point x="124" y="724"/>
      <point x="193" y="724" type="curve" smooth="yes"/>
      <point x="296" y="724"/>
      <point x="401" y="781"/>
      <point x="455" y="781" type="curve" smooth="yes"/>
      <point x="486" y="781"/>
      <point x="499" y="763"/>
      <point x="499" y="742" type="curve" smooth="yes"/>
      <point x="499" y="709"/>
      <point x="468" y="675"/>
      <point x="419" y="648" type="curve"/>
    </contour>
  </outline>
</glyph>
<glyph name="hyphen" format="2">
  <advance width="387"/>
  <unicode hex="2010"/>
  <outline>
    <contour>
      <point x="55" y="373" type="line"/>
      <point x="55" y="221" type="line"/>
      <point x="331" y="221" type="line"/>
      <point x="331" y="373" type="line"/>
    </contour>
  </outline>
</glyph>
<glyph name="minus" format="2">
  <advance width="585"/>
  <unicode hex="2212"/>
  <outline>
    <contour>
      <point x="55" y="388" type="line"/>
      <point x="55" y="259" type="line"/>
      <point x="531" y="259" type="line"/>
      <point x="531" y="388" type="line"/>
    </contour>
  </outline>
</glyph>
<glyph name="a-oriya.REV_BRACKET.141" format="2">
  <advance width="798"/>
  <note>
aorya
</note>
  <anchor x="667" y="658" name="topright"/>
  <outline>
    <contour>
      <point x="301" y="-8" type="curve"/>
      <point x="301" y="-8" type="line"/>
      <point x="434" y="-8"/>
      <point x="560" y="37"/>
      <point x="639" y="129" type="curve"/>
      <point x="628" y="330" type="line"/>
      <point x="539" y="202"/>
      <point x="401" y="152"/>
      <point x="296" y="152" type="curve"/>
      <point x="240" y="152"/>
      <point x="218" y="166"/>
      <point x="218" y="192" type="curve"/>
      <point x="218" y="225"/>
      <point x="245" y="237"/>
      <point x="311" y="257" type="curve"/>
      <point x="344" y="267" type="line" smooth="yes"/>
      <point x="431" y="293"/>
      <point x="550" y="332"/>
      <point x="550" y="488" type="curve"/>
      <point x="550" y="601"/>
      <point x="487" y="666"/>
      <point x="401" y="666" type="curve"/>
      <point x="314" y="666"/>
      <point x="255" y="599"/>
      <point x="255" y="498" type="curve"/>
      <point x="313" y="498" type="line"/>
      <point x="313" y="593"/>
      <point x="264" y="666"/>
      <point x="163" y="666" type="curve"/>
      <point x="71" y="666"/>
      <point x="18" y="607"/>
      <point x="18" y="526" type="curve"/>
      <point x="18" y="493.855"/>
      <point x="26.395" y="458.482"/>
      <point x="43.705" y="421.955" type="curve"/>
      <point x="191" y="452" type="line"/>
      <point x="183" y="473"/>
      <point x="178" y="488"/>
      <point x="178" y="499" type="curve"/>
      <point x="178" y="512"/>
      <point x="183" y="524"/>
      <point x="194" y="524" type="curve"/>
      <point x="207" y="524"/>
      <point x="210" y="511"/>
      <point x="210" y="496" type="curve"/>
      <point x="210" y="453" type="line"/>
      <point x="358" y="453" type="line"/>
      <point x="358" y="494" type="line" smooth="yes"/>
      <point x="358" y="511"/>
      <point x="362" y="524"/>
      <point x="374" y="524" type="curve"/>
      <point x="384" y="524"/>
      <point x="390" y="513"/>
      <point x="390" y="492" type="curve"/>
      <point x="390" y="436"/>
      <point x="354" y="419"/>
      <point x="287" y="400" type="curve"/>
      <point x="244" y="388" type="line" smooth="yes"/>
      <point x="181" y="370"/>
      <point x="44" y="334"/>
      <point x="44" y="185" type="curve"/>
      <point x="44" y="67"/>
      <point x="129" y="-8"/>
    </contour>
    <contour>
      <point x="592" y="149" type="line"/>
      <point x="582" y="0" type="line"/>
      <point x="752" y="0" type="line"/>
      <point x="752" y="658" type="line"/>
      <point x="582" y="658" type="line"/>
      <point x="582" y="209" type="line"/>
    </contour>
  </outline>
</glyph>
<glyph name="aiLength-oriya.stem" format="2">
  <advance width="700"/>
  <note>
ailengthmarkorya
</note>
  <guideline x="298" y="941" angle="0"/>
  <anchor x="512" y="658" name="_topright"/>
  <outline>
    <contour>
      <point x="427" y="658" type="curve"/>
      <point x="591" y="615" type="line"/>
      <point x="541" y="610" type="line"/>
      <point x="633" y="658"/>
      <point x="674" y="732"/>
      <point x="674" y="798" type="curve" smooth="yes"/>
      <point x="674" y="875"/>
      <point x="615" y="941"/>
      <point x="507" y="941" type="curve" smooth="yes"/>
      <point x="407" y="941"/>
      <point x="279" y="884"/>
      <point x="225" y="884" type="curve" smooth="yes"/>
      <point x="188" y="884"/>
      <point x="159" y="910"/>
      <point x="135" y="976" type="curve"/>
      <point x="205" y="961" type="line"/>
      <point x="-5" y="831" type="line"/>
      <point x="6" y="872" type="line"/>
      <point x="39" y="749"/>
      <point x="125" y="724"/>
      <point x="194" y="724" type="curve" smooth="yes"/>
      <point x="297" y="724"/>
      <point x="400" y="781"/>
      <point x="458" y="781" type="curve" smooth="yes"/>
      <point x="486" y="781"/>
      <point x="500" y="768"/>
      <point x="500" y="749" type="curve" smooth="yes"/>
      <point x="500" y="723"/>
      <point x="476" y="687"/>
    </contour>
  </outline>
</glyph>
<glyph name="aiLength-oriya.umbrella" format="2">
  <note>
ailengthmarkorya
</note>
  <guideline x="1461" y="527" angle="90"/>
  <guideline x="298" y="941" angle="0"/>
  <anchor x="543" y="658" name="_topright"/>
  <outline>
    <contour>
      <point x="327" y="660" type="line"/>
      <point x="590" y="535" type="line"/>
      <point x="456" y="538" type="line"/>
      <point x="608" y="597"/>
      <point x="673" y="694"/>
      <point x="673" y="783" type="curve" smooth="yes"/>
      <point x="673" y="867"/>
      <point x="615" y="941"/>
      <point x="504" y="941" type="curve" smooth="yes"/>
      <point x="407" y="941"/>
      <point x="278" y="884"/>
      <point x="224" y="884" type="curve" smooth="yes"/>
      <point x="187" y="884"/>
      <point x="158" y="910"/>
      <point x="134" y="976" type="curve"/>
      <point x="204" y="961" type="line"/>
      <point x="-6" y="831" type="line"/>
      <point x="5" y="872" type="line"/>
      <point x="38" y="749"/>
      <point x="124" y="724"/>
      <point x="193" y="724" type="curve" smooth="yes"/>
      <point x="296" y="724"/>
      <point x="401" y="781"/>
      <point x="455" y="781" type="curve" smooth="yes"/>
      <point x="486" y="781"/>
      <point x="499" y="763"/>
      <point x="499" y="742" type="curve" smooth="yes"/>
      <point x="499" y="692"/>
      <point x="428" y="643"/>
      <point x="331" y="588" type="curve"/>
    </contour>
  </outline>
</glyph>
<glyph name="ai_reph-oriya" format="2">
  <advance width="1010"/>
  <outline>
    <contour>
      <point x="748" y="270" type="curve" smooth="yes"/>
      <point x="776" y="270"/>
      <point x="793" y="274"/>
      <point x="810" y="282" type="curve"/>
      <point x="810" y="433" type="line"/>
      <point x="793" y="425"/>
      <point x="776" y="420"/>
      <point x="749" y="420" type="curve" smooth="yes"/>
      <point x="722" y="420"/>
      <point x="704" y="425"/>
      <point x="683" y="433" type="curve"/>
      <point x="683" y="282" type="line"/>
      <point x="702" y="274"/>
      <point x="720" y="270"/>
    </contour>
    <contour>
      <point x="944" y="719" type="line"/>
      <point x="1147" y="889" type="line"/>
      <point x="1073" y="977" type="line"/>
      <point x="870" y="807" type="line"/>
    </contour>
    <contour>
      <point x="794" y="696" type="line"/>
      <point x="794" y="0" type="line"/>
      <point x="964" y="0" type="line"/>
      <point x="964" y="696" type="line"/>
    </contour>
    <contour>
      <point x="794" y="696" type="curve"/>
      <point x="899" y="643" type="line"/>
      <point x="984" y="676"/>
      <point x="1025" y="734"/>
      <point x="1025" y="792" type="curve" smooth="yes"/>
      <point x="1025" y="874"/>
      <point x="967" y="941"/>
      <point x="857" y="941" type="curve" smooth="yes"/>
      <point x="758" y="941"/>
      <point x="633" y="884"/>
      <point x="572" y="884" type="curve" smooth="yes"/>
      <point x="540" y="884"/>
      <point x="510" y="910"/>
      <point x="486" y="976" type="curve"/>
      <point x="556" y="961" type="line"/>
      <point x="346" y="831" type="line"/>
      <point x="357" y="872" type="line"/>
      <point x="390" y="749"/>
      <point x="476" y="724"/>
      <point x="542" y="724" type="curve" smooth="yes"/>
      <point x="650" y="724"/>
      <point x="751" y="781"/>
      <point x="809" y="781" type="curve" smooth="yes"/>
      <point x="835" y="781"/>
      <point x="851" y="769"/>
      <point x="851" y="753" type="curve" smooth="yes"/>
      <point x="851" y="736"/>
      <point x="831" y="709"/>
    </contour>
    <contour>
      <point x="329" y="490" type="curve"/>
      <point x="414" y="424" type="line"/>
      <point x="414" y="490"/>
      <point x="465" y="518"/>
      <point x="550" y="518" type="curve"/>
      <point x="532" y="571" type="line"/>
      <point x="532" y="115" type="line"/>
      <point x="586" y="134" type="line"/>
      <point x="414" y="233"/>
      <point x="237" y="375"/>
      <point x="73" y="543" type="curve"/>
      <point x="142" y="548" type="line"/>
      <point x="-30" y="365" type="line"/>
      <point x="-53" y="415" type="line"/>
      <point x="113" y="258"/>
      <point x="299" y="115"/>
      <point x="502" y="0" type="curve"/>
      <point x="702" y="0" type="line"/>
      <point x="702" y="658" type="line"/>
      <point x="609" y="658" type="line" smooth="yes"/>
      <point x="394" y="658"/>
      <point x="289" y="534"/>
      <point x="289" y="437" type="curve" smooth="yes"/>
      <point x="289" y="374"/>
      <point x="329" y="325"/>
      <point x="394" y="325" type="curve" smooth="yes"/>
      <point x="452" y="325"/>
      <point x="496" y="365"/>
      <point x="496" y="417" type="curve" smooth="yes"/>
      <point x="496" y="468"/>
      <point x="452" y="508"/>
      <point x="393" y="508" type="curve" smooth="yes"/>
      <point x="368" y="508"/>
      <point x="346" y="501"/>
    </contour>
  </outline>
</glyph>
<glyph name="ba-oriya.below" format="2">
  <note>
basubscriptorya
</note>
  <guideline x="218" y="155" angle="90"/>
  <anchor x="238" y="110" name="_bottom"/>
  <outline>
    <contour>
      <point x="99" y="-152" type="curve"/>
      <point x="151" y="-92" type="line"/>
      <point x="133" y="-77"/>
      <point x="124" y="-59"/>
      <point x="124" y="-37" type="curve" smooth="yes"/>
      <point x="124" y="-5"/>
      <point x="160" y="16"/>
      <point x="215" y="16" type="curve" smooth="yes"/>
      <point x="273" y="16"/>
      <point x="313" y="-5"/>
      <point x="313" y="-37" type="curve" smooth="yes"/>
      <point x="313" y="-59"/>
      <point x="301" y="-80"/>
      <point x="275" y="-106" type="curve"/>
      <point x="295" y="-57" type="line"/>
      <point x="477" y="-120" type="line"/>
      <point x="399" y="-112" type="line"/>
      <point x="414" y="-92"/>
      <point x="423" y="-69"/>
      <point x="423" y="-39" type="curve" smooth="yes"/>
      <point x="423" y="65"/>
      <point x="315" y="116"/>
      <point x="209" y="116" type="curve" smooth="yes"/>
      <point x="110" y="116"/>
      <point x="12" y="68"/>
      <point x="12" y="-27" type="curve" smooth="yes"/>
      <point x="12" y="-73"/>
      <point x="35" y="-117"/>
    </contour>
    <contour>
      <point x="190" y="-228" type="curve" smooth="yes"/>
      <point x="262" y="-228"/>
      <point x="311" y="-187"/>
      <point x="311" y="-125" type="curve" smooth="yes"/>
      <point x="311" y="-63"/>
      <point x="262" y="-22"/>
      <point x="190" y="-22" type="curve" smooth="yes"/>
      <point x="117" y="-22"/>
      <point x="68" y="-63"/>
      <point x="68" y="-125" type="curve" smooth="yes"/>
      <point x="68" y="-187"/>
      <point x="117" y="-228"/>
    </contour>
    <contour>
      <point x="190" y="-152" type="curve" smooth="yes"/>
      <point x="168" y="-152"/>
      <point x="156" y="-141"/>
      <point x="156" y="-125" type="curve" smooth="yes"/>
      <point x="156" y="-109"/>
      <point x="168" y="-98"/>
      <point x="190" y="-98" type="curve" smooth="yes"/>
      <point x="212" y="-98"/>
      <point x="223" y="-109"/>
      <point x="223" y="-125" type="curve" smooth="yes"/>
      <point x="223" y="-141"/>
      <point x="212" y="-152"/>
    </contour>
    <contour>
      <point x="209" y="-244" type="line"/>
      <point x="311" y="-244" type="line"/>
      <point x="311" y="-125" type="line"/>
      <point x="215" y="-179" type="line"/>
    </contour>
  </outline>
</glyph>
<glyph name="ba_ja-oriya" format="2">
  <advance width="754"/>
  <guideline x="161" y="142" angle="90"/>
  <guideline x="556" y="177" angle="90"/>
  <guideline x="626" y="177" angle="90"/>
  <anchor x="370" y="658" name="top"/>
  <anchor x="582" y="658" name="topright"/>
  <outline>
    <contour>
      <point x="352.15" y="-248" type="curve" smooth="yes"/>
      <point x="403.9" y="-248"/>
      <point x="455.65" y="-244"/>
      <point x="516.6" y="-226" type="curve"/>
      <point x="495.9" y="-280" type="line"/>
      <point x="484.4" y="-235"/>
      <point x="469.45" y="-166"/>
      <point x="469.45" y="-105" type="curve" smooth="yes"/>
      <point x="469.45" y="-73"/>
      <point x="472.9" y="-58"/>
      <point x="487.85" y="-58" type="curve" smooth="yes"/>
      <point x="500.5" y="-58"/>
      <point x="501.65" y="-71"/>
      <point x="501.65" y="-81" type="curve" smooth="yes"/>
      <point x="501.65" y="-244" type="line"/>
      <point x="625.85" y="-244" type="line"/>
      <point x="625.85" y="-67" type="line" smooth="yes"/>
      <point x="625.85" y="-5"/>
      <point x="581" y="36"/>
      <point x="493.6" y="36" type="curve" smooth="yes"/>
      <point x="390.1" y="36"/>
      <point x="345.25" y="-22"/>
      <point x="345.25" y="-101" type="curve" smooth="yes"/>
      <point x="345.25" y="-132"/>
      <point x="353.3" y="-168"/>
      <point x="365.95" y="-201" type="curve"/>
      <point x="385.5" y="-148" type="line"/>
      <point x="374" y="-152"/>
      <point x="363.65" y="-154"/>
      <point x="354.45" y="-154" type="curve" smooth="yes"/>
      <point x="324.55" y="-154"/>
      <point x="305" y="-133"/>
      <point x="305" y="-94" type="curve" smooth="yes"/>
      <point x="305" y="-42"/>
      <point x="345.25" y="4"/>
      <point x="513.15" y="85" type="curve"/>
      <point x="403.9" y="-65" type="line"/>
      <point x="196.9" y="94" type="line"/>
      <point x="365.95" y="87" type="line"/>
      <point x="239.45" y="54"/>
      <point x="180.8" y="-33"/>
      <point x="180.8" y="-107" type="curve" smooth="yes"/>
      <point x="180.8" y="-182"/>
      <point x="240.6" y="-248"/>
    </contour>
    <contour>
      <point x="399" y="-1" type="line"/>
      <point x="556" y="-1" type="line"/>
      <point x="556" y="280" type="line"/>
      <point x="413" y="204" type="line"/>
    </contour>
    <contour>
      <point x="355" y="116" type="curve" smooth="yes"/>
      <point x="476" y="116"/>
      <point x="556" y="182"/>
      <point x="556" y="280" type="curve" smooth="yes"/>
      <point x="556" y="375"/>
      <point x="476" y="439"/>
      <point x="357" y="439" type="curve" smooth="yes"/>
      <point x="236" y="439"/>
      <point x="156" y="375"/>
      <point x="156" y="278" type="curve" smooth="yes"/>
      <point x="156" y="181"/>
      <point x="236" y="116"/>
    </contour>
    <contour>
      <point x="356" y="232" type="curve" smooth="yes"/>
      <point x="322" y="232"/>
      <point x="300" y="251"/>
      <point x="300" y="279" type="curve" smooth="yes"/>
      <point x="300" y="306"/>
      <point x="322" y="323"/>
      <point x="356" y="323" type="curve" smooth="yes"/>
      <point x="390" y="323"/>
      <point x="412" y="306"/>
      <point x="412" y="279" type="curve" smooth="yes"/>
      <point x="412" y="251"/>
      <point x="390" y="232"/>
    </contour>
    <contour>
      <point x="192" y="213" type="curve"/>
      <point x="229" y="328" type="line"/>
      <point x="204" y="351"/>
      <point x="187" y="382"/>
      <point x="187" y="412" type="curve" smooth="yes"/>
      <point x="187" y="465"/>
      <point x="237" y="516"/>
      <point x="374" y="516" type="curve" smooth="yes"/>
      <point x="468" y="516"/>
      <point x="562" y="482"/>
      <point x="562" y="414" type="curve" smooth="yes"/>
      <point x="562" y="375"/>
      <point x="542" y="342"/>
      <point x="495" y="298" type="curve"/>
      <point x="491" y="390" type="line"/>
      <point x="805" y="282" type="line"/>
      <point x="659" y="258" type="line"/>
      <point x="706" y="301"/>
      <point x="732" y="347"/>
      <point x="732" y="410" type="curve" smooth="yes"/>
      <point x="732" y="581"/>
      <point x="550" y="666"/>
      <point x="370" y="666" type="curve" smooth="yes"/>
      <point x="127" y="666"/>
      <point x="22" y="548"/>
      <point x="22" y="431" type="curve" smooth="yes"/>
      <point x="22" y="341"/>
      <point x="84" y="251"/>
    </contour>
  </outline>
</glyph>
<glyph name="bhara-oriya.REV_BRACKET.141" format="2">
  <advance width="962"/>
  <anchor x="454" y="658" name="top"/>
  <anchor x="780" y="658" name="topright"/>
  <outline>
    <contour>
      <point x="696" y="157" type="curve"/>
      <point x="813.751" y="-8.827" type="line"/>
      <point x="953.882" y="90.489" type="line"/>
      <point x="841" y="230" type="line"/>
      <point x="811" y="100" type="line"/>
      <point x="896" y="179"/>
      <point x="930" y="268"/>
      <point x="930" y="351" type="curve"/>
      <point x="930" y="534"/>
      <point x="762" y="666"/>
      <point x="454" y="666" type="curve"/>
      <point x="179" y="666"/>
      <point x="22" y="561"/>
      <point x="22" y="397" type="curve"/>
      <point x="22" y="301"/>
      <point x="75" y="226"/>
      <point x="173" y="170" type="curve"/>
      <point x="233" y="282" type="line"/>
      <point x="202" y="310"/>
      <point x="186" y="340"/>
      <point x="186" y="374" type="curve"/>
      <point x="186" y="459"/>
      <point x="286" y="506"/>
      <point x="451" y="506" type="curve"/>
      <point x="661" y="506"/>
      <point x="756" y="430"/>
      <point x="756" y="306" type="curve"/>
      <point x="756" y="260"/>
      <point x="743" y="204"/>
    </contour>
    <contour>
      <point x="403" y="-8" type="curve"/>
      <point x="403" y="-8" type="line"/>
      <point x="578" y="-8"/>
      <point x="676" y="69"/>
      <point x="676" y="212" type="curve"/>
      <point x="676" y="320" type="line"/>
      <point x="506" y="320" type="line"/>
      <point x="506" y="204" type="line" smooth="yes"/>
      <point x="506" y="173"/>
      <point x="506" y="116"/>
      <point x="409" y="116" type="curve"/>
      <point x="330" y="116"/>
      <point x="293" y="157"/>
      <point x="293" y="212" type="curve"/>
      <point x="293" y="261"/>
      <point x="315" y="313"/>
      <point x="382" y="365" type="curve"/>
      <point x="296" y="459" type="line"/>
      <point x="184" y="401"/>
      <point x="129" y="295"/>
      <point x="129" y="198" type="curve"/>
      <point x="129" y="73"/>
      <point x="225" y="-8"/>
    </contour>
    <contour>
      <point x="464" y="123" type="curve"/>
      <point x="464" y="123" type="line"/>
      <point x="522" y="123"/>
      <point x="585" y="145"/>
      <point x="622" y="184" type="curve"/>
      <point x="595" y="265" type="line"/>
      <point x="575" y="236"/>
      <point x="538" y="223"/>
      <point x="509" y="223" type="curve"/>
      <point x="485" y="223"/>
      <point x="478" y="235"/>
      <point x="478" y="251" type="curve"/>
      <point x="478" y="264"/>
      <point x="482" y="279"/>
      <point x="498" y="297" type="curve"/>
      <point x="420" y="382" type="line"/>
      <point x="358" y="337"/>
      <point x="326" y="287"/>
      <point x="326" y="234" type="curve"/>
      <point x="326" y="160"/>
      <point x="389" y="123"/>
    </contour>
    <contour>
      <point x="161" y="-200" type="line"/>
      <point x="766" y="-200" type="line"/>
      <point x="766" y="20" type="line"/>
      <point x="596" y="20" type="line"/>
      <point x="596" y="-60" type="line"/>
      <point x="161" y="-60" type="line"/>
    </contour>
  </outline>
</glyph>
<glyph name="ca-oriya.base" format="2">
  <advance width="709"/>
  <anchor x="445" y="110" name="bottom"/>
  <anchor x="344" y="658" name="top"/>
  <anchor x="537" y="658" name="topright"/>
  <outline>
    <contour>
      <point x="173" y="224" type="curve"/>
      <point x="230" y="317" type="line"/>
      <point x="199" y="341"/>
      <point x="184" y="377"/>
      <point x="184" y="407" type="curve" smooth="yes"/>
      <point x="184" y="472"/>
      <point x="251" y="516"/>
      <point x="351" y="516" type="curve" smooth="yes"/>
      <point x="451" y="516"/>
      <point x="517" y="473"/>
      <point x="517" y="408" type="curve" smooth="yes"/>
      <point x="517" y="370"/>
      <point x="496" y="335"/>
      <point x="450" y="288" type="curve"/>
      <point x="450" y="379" type="line"/>
      <point x="752" y="251" type="line"/>
      <point x="645" y="282" type="line"/>
      <point x="672" y="317"/>
      <point x="687" y="357"/>
      <point x="687" y="407" type="curve" smooth="yes"/>
      <point x="687" y="562"/>
      <point x="550" y="666"/>
      <point x="344" y="666" type="curve" smooth="yes"/>
      <point x="151" y="666"/>
      <point x="22" y="573"/>
      <point x="22" y="434" type="curve" smooth="yes"/>
      <point x="22" y="352"/>
      <point x="62" y="283"/>
    </contour>
    <contour>
      <point x="315" y="69" type="curve" smooth="yes"/>
      <point x="437" y="69"/>
      <point x="519" y="136"/>
      <point x="519" y="237" type="curve" smooth="yes"/>
      <point x="519" y="338"/>
      <point x="437" y="405"/>
      <point x="315" y="405" type="curve" smooth="yes"/>
      <point x="194" y="405"/>
      <point x="114" y="338"/>
      <point x="114" y="237" type="curve" smooth="yes"/>
      <point x="114" y="136"/>
      <point x="194" y="69"/>
    </contour>
    <contour>
      <point x="317" y="193" type="curve" smooth="yes"/>
      <point x="283" y="193"/>
      <point x="264" y="214"/>
      <point x="264" y="237" type="curve" smooth="yes"/>
      <point x="264" y="260"/>
      <point x="283" y="281"/>
      <point x="317" y="281" type="curve" smooth="yes"/>
      <point x="352" y="281"/>
      <point x="370" y="260"/>
      <point x="370" y="237" type="curve" smooth="yes"/>
      <point x="370" y="214"/>
      <point x="352" y="193"/>
    </contour>
  </outline>
</glyph>
<glyph name="ca-oriya.below" format="2">
  <note>
casubscriptorya
</note>
  <guideline x="206" y="155" angle="90"/>
  <anchor x="226" y="110" name="_bottom"/>
  <outline>
    <contour>
      <point x="101" y="-152" type="curve"/>
      <point x="151" y="-90" type="line"/>
      <point x="131" y="-76"/>
      <point x="122" y="-58"/>
      <point x="122" y="-37" type="curve" smooth="yes"/>
      <point x="122" y="-2"/>
      <point x="165" y="16"/>
      <point x="209" y="16" type="curve" smooth="yes"/>
      <point x="252" y="16"/>
      <point x="295" y="-2"/>
      <point x="295" y="-37" type="curve" smooth="yes"/>
      <point x="295" y="-59"/>
      <point x="283" y="-80"/>
      <point x="257" y="-106" type="curve"/>
      <point x="277" y="-57" type="line"/>
      <point x="459" y="-120" type="line"/>
      <point x="381" y="-112" type="line"/>
      <point x="396" y="-92"/>
      <point x="405" y="-69"/>
      <point x="405" y="-39" type="curve" smooth="yes"/>
      <point x="405" y="65"/>
      <point x="304" y="116"/>
      <point x="204" y="116" type="curve" smooth="yes"/>
      <point x="107" y="116"/>
      <point x="12" y="68"/>
      <point x="12" y="-27" type="curve" smooth="yes"/>
      <point x="12" y="-70"/>
      <point x="37" y="-117"/>
    </contour>
    <contour>
      <point x="190" y="-248" type="curve" smooth="yes"/>
      <point x="262" y="-248"/>
      <point x="311" y="-207"/>
      <point x="311" y="-145" type="curve" smooth="yes"/>
      <point x="311" y="-83"/>
      <point x="262" y="-42"/>
      <point x="190" y="-42" type="curve" smooth="yes"/>
      <point x="117" y="-42"/>
      <point x="68" y="-83"/>
      <point x="68" y="-145" type="curve" smooth="yes"/>
      <point x="68" y="-207"/>
      <point x="117" y="-248"/>
    </contour>
    <contour>
      <point x="190" y="-172" type="curve" smooth="yes"/>
      <point x="168" y="-172"/>
      <point x="156" y="-161"/>
      <point x="156" y="-145" type="curve" smooth="yes"/>
      <point x="156" y="-129"/>
      <point x="168" y="-118"/>
      <point x="190" y="-118" type="curve" smooth="yes"/>
      <point x="212" y="-118"/>
      <point x="223" y="-129"/>
      <point x="223" y="-145" type="curve" smooth="yes"/>
      <point x="223" y="-161"/>
      <point x="212" y="-172"/>
    </contour>
  </outline>
</glyph>
<glyph name="candraBindu-oriya.REV_BRACKET.141" format="2">
  <note>
candrabinduorya
</note>
  <anchor x="400" y="658" name="_topright"/>
  <outline>
    <contour>
      <point x="400" y="678" type="curve"/>
      <point x="400" y="678" type="line"/>
      <point x="524" y="678"/>
      <point x="612" y="758"/>
      <point x="629" y="920" type="curve"/>
      <point x="501" y="934" type="line"/>
      <point x="494" y="830"/>
      <point x="458" y="786"/>
      <point x="400" y="786" type="curve"/>
      <point x="342" y="786"/>
      <point x="306" y="830"/>
      <point x="299" y="934" type="curve"/>
      <point x="171" y="920" type="line"/>
      <point x="188" y="758"/>
      <point x="276" y="678"/>
    </contour>
    <contour>
      <point x="400" y="807" type="curve"/>
      <point x="400" y="807" type="line"/>
      <point x="443" y="807"/>
      <point x="470" y="832"/>
      <point x="470" y="880" type="curve"/>
      <point x="470" y="925"/>
      <point x="443" y="949"/>
      <point x="400" y="949" type="curve"/>
      <point x="358" y="949"/>
      <point x="330" y="925"/>
      <point x="330" y="880" type="curve"/>
      <point x="330" y="834"/>
      <point x="358" y="807"/>
    </contour>
  </outline>
</glyph>
<glyph name="cha-oriya.REV_BRACKET.141" format="2">
  <advance width="789"/>
  <note>
chaorya
</note>
  <guideline x="409" y="241" angle="0"/>
  <anchor x="502" y="0" name="bottom"/>
  <anchor x="663" y="0" name="bottom_ra"/>
  <anchor x="385" y="658" name="top"/>
  <anchor x="617" y="658" name="topright"/>
  <outline>
    <contour>
      <point x="224" y="252" type="curve"/>
      <point x="224" y="252" type="line"/>
      <point x="253" y="335" type="line"/>
      <point x="211" y="345"/>
      <point x="186" y="373"/>
      <point x="186" y="408" type="curve"/>
      <point x="186" y="470"/>
      <point x="264" y="516"/>
      <point x="385" y="516" type="curve"/>
      <point x="515" y="516"/>
      <point x="603" y="463"/>
      <point x="603" y="394" type="curve"/>
      <point x="603" y="379.021"/>
      <point x="598.798" y="362.175"/>
      <point x="591.521" y="345.265" type="curve"/>
      <point x="745.517" y="306.448" type="line"/>
      <point x="759.958" y="342.74"/>
      <point x="767" y="377.376"/>
      <point x="767" y="410" type="curve"/>
      <point x="767" y="564"/>
      <point x="620" y="666"/>
      <point x="385" y="666" type="curve"/>
      <point x="165" y="666"/>
      <point x="22" y="577"/>
      <point x="22" y="439" type="curve"/>
      <point x="22" y="344"/>
      <point x="94" y="265"/>
    </contour>
    <contour>
      <point x="214" y="108" type="curve"/>
      <point x="214" y="108" type="line"/>
      <point x="197" y="108"/>
      <point x="189" y="118"/>
      <point x="189" y="130" type="curve"/>
      <point x="189" y="142"/>
      <point x="197" y="151"/>
      <point x="217" y="151" type="curve"/>
      <point x="234" y="151"/>
      <point x="259" y="144"/>
      <point x="282" y="133" type="curve"/>
      <point x="253" y="117"/>
      <point x="231" y="108"/>
    </contour>
    <contour>
      <point x="188" y="-8" type="curve"/>
      <point x="188" y="-8" type="line"/>
      <point x="251" y="-8"/>
      <point x="319" y="26"/>
      <point x="382" y="78" type="curve"/>
      <point x="461" y="15"/>
      <point x="527" y="-8"/>
      <point x="578" y="-8" type="curve"/>
      <point x="665" y="-8"/>
      <point x="706" y="56"/>
      <point x="706" y="121" type="curve"/>
      <point x="706" y="188"/>
      <point x="662" y="257"/>
      <point x="565" y="257" type="curve"/>
      <point x="517" y="257"/>
      <point x="472" y="239"/>
      <point x="383" y="188" type="curve"/>
      <point x="283" y="246"/>
      <point x="153" y="270"/>
      <point x="32" y="278" type="curve"/>
      <point x="23" y="172" type="line"/>
      <point x="88" y="172"/>
      <point x="168" y="171"/>
      <point x="195" y="169" type="curve"/>
      <point x="207" y="241" type="line"/>
      <point x="83" y="241"/>
      <point x="60" y="174"/>
      <point x="60" y="121" type="curve"/>
      <point x="60" y="56"/>
      <point x="102" y="-8"/>
    </contour>
    <contour>
      <point x="552" y="108" type="curve"/>
      <point x="552" y="108" type="line"/>
      <point x="535" y="108"/>
      <point x="513" y="117"/>
      <point x="484" y="133" type="curve"/>
      <point x="507" y="144"/>
      <point x="532" y="151"/>
      <point x="549" y="151" type="curve"/>
      <point x="568" y="151"/>
      <point x="577" y="141"/>
      <point x="577" y="130" type="curve"/>
      <point x="577" y="119"/>
      <point x="568" y="108"/>
    </contour>
    <contour>
      <point x="384" y="214" type="curve"/>
      <point x="384" y="214" type="line"/>
      <point x="349" y="214"/>
      <point x="331" y="233"/>
      <point x="331" y="268" type="curve"/>
      <point x="331" y="295"/>
      <point x="349" y="316"/>
      <point x="384" y="316" type="curve"/>
      <point x="419" y="316"/>
      <point x="438" y="295"/>
      <point x="438" y="268" type="curve"/>
      <point x="438" y="233"/>
      <point x="419" y="214"/>
    </contour>
    <contour>
      <point x="387" y="127" type="curve"/>
      <point x="387" y="127" type="line"/>
      <point x="520" y="127"/>
      <point x="578" y="193"/>
      <point x="578" y="286" type="curve"/>
      <point x="578" y="387"/>
      <point x="509" y="456"/>
      <point x="387" y="456" type="curve"/>
      <point x="248" y="456"/>
      <point x="191" y="367"/>
      <point x="191" y="284" type="curve"/>
      <point x="191" y="201"/>
      <point x="247" y="127"/>
    </contour>
  </outline>
</glyph>
<glyph name="da-oriya.base" format="2">
  <advance width="791"/>
  <anchor x="470" y="110" name="bottom"/>
  <anchor x="389" y="658" name="top"/>
  <anchor x="619" y="658" name="topright"/>
  <outline>
    <contour>
      <point x="301" y="118" type="curve" smooth="yes"/>
      <point x="407" y="118"/>
      <point x="521" y="179"/>
      <point x="521" y="300" type="curve"/>
      <point x="442" y="300" type="line"/>
      <point x="442" y="254"/>
      <point x="398" y="232"/>
      <point x="357" y="232" type="curve" smooth="yes"/>
      <point x="310" y="232"/>
      <point x="288" y="253"/>
      <point x="288" y="279" type="curve" smooth="yes"/>
      <point x="288" y="303"/>
      <point x="305" y="331"/>
      <point x="337" y="353" type="curve"/>
      <point x="264" y="441" type="line"/>
      <point x="166" y="403"/>
      <point x="120" y="332"/>
      <point x="120" y="259" type="curve" smooth="yes"/>
      <point x="120" y="165"/>
      <point x="208" y="118"/>
    </contour>
    <contour>
      <point x="385" y="76" type="line"/>
      <point x="555" y="76" type="line"/>
      <point x="555" y="360" type="line"/>
      <point x="395" y="360" type="line"/>
      <point x="395" y="191" type="line"/>
      <point x="401" y="174" type="line"/>
    </contour>
    <contour>
      <point x="169" y="228" type="curve"/>
      <point x="227" y="326" type="line"/>
      <point x="199" y="344"/>
      <point x="182" y="382"/>
      <point x="182" y="413" type="curve" smooth="yes"/>
      <point x="182" y="481"/>
      <point x="260" y="521"/>
      <point x="392" y="521" type="curve" smooth="yes"/>
      <point x="522" y="521"/>
      <point x="599" y="482"/>
      <point x="599" y="415" type="curve" smooth="yes"/>
      <point x="599" y="393"/>
      <point x="582" y="354"/>
      <point x="567" y="343" type="curve"/>
      <point x="551" y="368" type="line"/>
      <point x="786" y="267" type="line"/>
      <point x="721" y="281" type="line"/>
      <point x="749" y="317"/>
      <point x="769" y="357"/>
      <point x="769" y="416" type="curve" smooth="yes"/>
      <point x="769" y="571"/>
      <point x="630" y="666"/>
      <point x="389" y="666" type="curve" smooth="yes"/>
      <point x="158" y="666"/>
      <point x="22" y="578"/>
      <point x="22" y="435" type="curve" smooth="yes"/>
      <point x="22" y="354"/>
      <point x="66" y="284"/>
    </contour>
  </outline>
</glyph>
<glyph name="da_ra-oriya" format="2">
  <advance width="815"/>
  <anchor x="398" y="658" name="top"/>
  <anchor x="643" y="658" name="topright"/>
  <outline>
    <contour>
      <point x="332" y="44" type="curve" smooth="yes"/>
      <point x="464" y="44"/>
      <point x="566" y="111"/>
      <point x="566" y="242" type="curve"/>
      <point x="454" y="242" type="line"/>
      <point x="454" y="194"/>
      <point x="410" y="172"/>
      <point x="369" y="172" type="curve" smooth="yes"/>
      <point x="321" y="172"/>
      <point x="299" y="197"/>
      <point x="299" y="227" type="curve" smooth="yes"/>
      <point x="299" y="255"/>
      <point x="317" y="286"/>
      <point x="353" y="306" type="curve"/>
      <point x="284" y="394" type="line"/>
      <point x="176" y="357"/>
      <point x="124" y="278"/>
      <point x="124" y="205" type="curve" smooth="yes"/>
      <point x="124" y="121"/>
      <point x="189" y="44"/>
    </contour>
    <contour>
      <point x="407" y="0" type="line"/>
      <point x="577" y="0" type="line"/>
      <point x="577" y="320" type="line"/>
      <point x="407" y="320" type="line"/>
      <point x="407" y="131" type="line"/>
      <point x="425" y="111" type="line"/>
    </contour>
    <contour>
      <point x="173" y="170" type="curve"/>
      <point x="233" y="282" type="line"/>
      <point x="204" y="302"/>
      <point x="187" y="344"/>
      <point x="187" y="379" type="curve" smooth="yes"/>
      <point x="187" y="464"/>
      <point x="287" y="506"/>
      <point x="399" y="506" type="curve" smooth="yes"/>
      <point x="506" y="506"/>
      <point x="618" y="466"/>
      <point x="618" y="382" type="curve" smooth="yes"/>
      <point x="618" y="348"/>
      <point x="602" y="314"/>
      <point x="578" y="288" type="curve"/>
      <point x="572" y="326" type="line"/>
      <point x="802" y="220" type="line"/>
      <point x="735" y="221" type="line"/>
      <point x="776" y="272"/>
      <point x="793" y="324"/>
      <point x="793" y="380" type="curve" smooth="yes"/>
      <point x="793" y="570"/>
      <point x="594" y="666"/>
      <point x="398" y="666" type="curve" smooth="yes"/>
      <point x="205" y="666"/>
      <point x="22" y="573"/>
      <point x="22" y="399" type="curve" smooth="yes"/>
      <point x="22" y="313"/>
      <point x="67" y="233"/>
    </contour>
    <contour>
      <point x="767" y="-200" type="line"/>
      <point x="767" y="20" type="line"/>
      <point x="597" y="20" type="line"/>
      <point x="597" y="-60" type="line"/>
      <point x="162" y="-60" type="line"/>
      <point x="162" y="-200" type="line"/>
    </contour>
  </outline>
</glyph>
<glyph name="da_ra_uMatra-oriya" format="2">
  <advance width="791"/>
  <anchor x="389" y="658" name="top"/>
  <anchor x="619" y="658" name="topright"/>
  <outline>
    <contour>
      <point x="301" y="118" type="curve" smooth="yes"/>
      <point x="407" y="118"/>
      <point x="521" y="179"/>
      <point x="521" y="300" type="curve"/>
      <point x="442" y="300" type="line"/>
      <point x="442" y="254"/>
      <point x="398" y="232"/>
      <point x="357" y="232" type="curve" smooth="yes"/>
      <point x="310" y="232"/>
      <point x="288" y="253"/>
      <point x="288" y="279" type="curve" smooth="yes"/>
      <point x="288" y="303"/>
      <point x="305" y="331"/>
      <point x="337" y="353" type="curve"/>
      <point x="264" y="441" type="line"/>
      <point x="166" y="403"/>
      <point x="120" y="332"/>
      <point x="120" y="259" type="curve" smooth="yes"/>
      <point x="120" y="165"/>
      <point x="208" y="118"/>
    </contour>
    <contour>
      <point x="169" y="228" type="curve"/>
      <point x="227" y="326" type="line"/>
      <point x="199" y="344"/>
      <point x="182" y="382"/>
      <point x="182" y="413" type="curve" smooth="yes"/>
      <point x="182" y="481"/>
      <point x="260" y="521"/>
      <point x="392" y="521" type="curve" smooth="yes"/>
      <point x="522" y="521"/>
      <point x="599" y="482"/>
      <point x="599" y="415" type="curve" smooth="yes"/>
      <point x="599" y="393"/>
      <point x="582" y="354"/>
      <point x="567" y="343" type="curve"/>
      <point x="551" y="368" type="line"/>
      <point x="786" y="267" type="line"/>
      <point x="721" y="281" type="line"/>
      <point x="749" y="317"/>
      <point x="769" y="357"/>
      <point x="769" y="416" type="curve" smooth="yes"/>
      <point x="769" y="571"/>
      <point x="630" y="666"/>
      <point x="389" y="666" type="curve" smooth="yes"/>
      <point x="158" y="666"/>
      <point x="22" y="578"/>
      <point x="22" y="435" type="curve" smooth="yes"/>
      <point x="22" y="354"/>
      <point x="66" y="284"/>
    </contour>
    <contour>
      <point x="395" y="360" type="line"/>
      <point x="394" y="84" type="line"/>
      <point x="65" y="84" type="line"/>
      <point x="65" y="-30" type="line"/>
      <point x="555" y="-30" type="line"/>
      <point x="555" y="360" type="line"/>
    </contour>
    <contour>
      <point x="221" y="-232" type="curve" smooth="yes"/>
      <point x="338" y="-232"/>
      <point x="421" y="-147"/>
      <point x="421" y="-20" type="curve" smooth="yes"/>
      <point x="421" y="-4" type="line"/>
      <point x="313" y="-4" type="line"/>
      <point x="313" y="-20" type="line" smooth="yes"/>
      <point x="313" y="-115"/>
      <point x="251" y="-144"/>
      <point x="213" y="-144" type="curve" smooth="yes"/>
      <point x="197" y="-144"/>
      <point x="187" y="-139"/>
      <point x="187" y="-131" type="curve" smooth="yes"/>
      <point x="187" y="-123"/>
      <point x="196" y="-118"/>
      <point x="216" y="-118" type="curve" smooth="yes"/>
      <point x="312" y="-118"/>
      <point x="380" y="-232"/>
      <point x="502" y="-232" type="curve" smooth="yes"/>
      <point x="555" y="-232"/>
      <point x="606" y="-211"/>
      <point x="655" y="-163" type="curve"/>
      <point x="576" y="-251" type="line"/>
      <point x="533" y="-109" type="line"/>
      <point x="609" y="-113" type="line"/>
      <point x="573" y="-133"/>
      <point x="532" y="-144"/>
      <point x="497" y="-144" type="curve" smooth="yes"/>
      <point x="395" y="-144"/>
      <point x="332" y="-48"/>
      <point x="214" y="-48" type="curve" smooth="yes"/>
      <point x="142" y="-48"/>
      <point x="97" y="-84"/>
      <point x="97" y="-139" type="curve" smooth="yes"/>
      <point x="97" y="-195"/>
      <point x="144" y="-232"/>
    </contour>
  </outline>
</glyph>
<glyph name="da_va-oriya" format="2">
  <advance width="815"/>
  <anchor x="407" y="0" name="bottom"/>
  <anchor x="767" y="0" name="bottom_ra"/>
  <anchor x="203.117" y="18.719" name="curve"/>
  <anchor x="398" y="658" name="top"/>
  <anchor x="643" y="658" name="topright"/>
  <anchor x="407" y="-0.452" name="vertical"/>
  <outline>
    <contour>
      <point x="332" y="44" type="curve" smooth="yes"/>
      <point x="464" y="44"/>
      <point x="566" y="111"/>
      <point x="566" y="242" type="curve"/>
      <point x="454" y="242" type="line"/>
      <point x="454" y="194"/>
      <point x="410" y="172"/>
      <point x="369" y="172" type="curve" smooth="yes"/>
      <point x="321" y="172"/>
      <point x="299" y="197"/>
      <point x="299" y="227" type="curve" smooth="yes"/>
      <point x="299" y="255"/>
      <point x="317" y="286"/>
      <point x="353" y="306" type="curve"/>
      <point x="284" y="394" type="line"/>
      <point x="176" y="357"/>
      <point x="124" y="278"/>
      <point x="124" y="205" type="curve" smooth="yes"/>
      <point x="124" y="121"/>
      <point x="189" y="44"/>
    </contour>
    <contour>
      <point x="407" y="0" type="line"/>
      <point x="577" y="0" type="line"/>
      <point x="577" y="320" type="line"/>
      <point x="407" y="320" type="line"/>
      <point x="407" y="131" type="line"/>
      <point x="425" y="111" type="line"/>
    </contour>
    <contour>
      <point x="173" y="170" type="curve"/>
      <point x="233" y="282" type="line"/>
      <point x="204" y="302"/>
      <point x="187" y="344"/>
      <point x="187" y="379" type="curve" smooth="yes"/>
      <point x="187" y="464"/>
      <point x="287" y="506"/>
      <point x="399" y="506" type="curve" smooth="yes"/>
      <point x="506" y="506"/>
      <point x="618" y="466"/>
      <point x="618" y="382" type="curve" smooth="yes"/>
      <point x="618" y="348"/>
      <point x="602" y="314"/>
      <point x="578" y="288" type="curve"/>
      <point x="572" y="326" type="line"/>
      <point x="802" y="220" type="line"/>
      <point x="735" y="221" type="line"/>
      <point x="776" y="272"/>
      <point x="793" y="324"/>
      <point x="793" y="380" type="curve" smooth="yes"/>
      <point x="793" y="570"/>
      <point x="594" y="666"/>
      <point x="398" y="666" type="curve" smooth="yes"/>
      <point x="205" y="666"/>
      <point x="22" y="573"/>
      <point x="22" y="399" type="curve" smooth="yes"/>
      <point x="22" y="313"/>
      <point x="67" y="233"/>
    </contour>
    <contour>
      <point x="337" y="-207" type="curve" smooth="yes"/>
      <point x="422" y="-207"/>
      <point x="507" y="-156"/>
      <point x="507" y="-50" type="curve"/>
      <point x="424" y="-36" type="line"/>
      <point x="424" y="-74"/>
      <point x="398" y="-100"/>
      <point x="365" y="-100" type="curve" smooth="yes"/>
      <point x="335" y="-100"/>
      <point x="324" y="-80"/>
      <point x="324" y="-54" type="curve" smooth="yes"/>
      <point x="324" y="-16"/>
      <point x="341" y="34"/>
      <point x="360" y="51" type="curve"/>
      <point x="396" y="-6" type="line"/>
      <point x="169" y="22" type="line"/>
      <point x="254" y="93" type="line"/>
      <point x="215" y="46"/>
      <point x="194" y="-11"/>
      <point x="194" y="-63" type="curve" smooth="yes"/>
      <point x="194" y="-141"/>
      <point x="241" y="-207"/>
    </contour>
    <contour>
      <point x="407" y="-244" type="line"/>
      <point x="577" y="-244" type="line"/>
      <point x="577" y="0" type="line"/>
      <point x="407" y="0" type="line"/>
      <point x="407" y="-141" type="line"/>
      <point x="417" y="-150" type="line"/>
    </contour>
  </outline>
</glyph>
<glyph name="dda-oriya.base" format="2">
  <advance width="759"/>
  <anchor x="510" y="110" name="bottom"/>
  <anchor x="355" y="-40" name="nukta"/>
  <anchor x="369" y="658" name="top"/>
  <anchor x="587" y="658" name="topright"/>
  <outline>
    <contour>
      <point x="166" y="229" type="curve"/>
      <point x="223" y="328" type="line"/>
      <point x="206" y="337"/>
      <point x="184" y="372"/>
      <point x="184" y="409" type="curve" smooth="yes"/>
      <point x="184" y="485"/>
      <point x="276" y="515"/>
      <point x="382" y="515" type="curve" smooth="yes"/>
      <point x="489" y="515"/>
      <point x="567" y="484"/>
      <point x="567" y="413" type="curve" smooth="yes"/>
      <point x="567" y="375"/>
      <point x="546" y="337"/>
      <point x="504" y="304" type="curve"/>
      <point x="477" y="385" type="line"/>
      <point x="760" y="265" type="line"/>
      <point x="653" y="233" type="line"/>
      <point x="710" y="291"/>
      <point x="737" y="350"/>
      <point x="737" y="416" type="curve" smooth="yes"/>
      <point x="737" y="569"/>
      <point x="589" y="665"/>
      <point x="369" y="665" type="curve" smooth="yes"/>
      <point x="173" y="665"/>
      <point x="22" y="587"/>
      <point x="22" y="435" type="curve" smooth="yes"/>
      <point x="22" y="345"/>
      <point x="75" y="277"/>
    </contour>
    <contour>
      <point x="134" y="248" type="curve" smooth="yes"/>
      <point x="134" y="130"/>
      <point x="245" y="72"/>
      <point x="355" y="72" type="curve" smooth="yes"/>
      <point x="468" y="72"/>
      <point x="580" y="129"/>
      <point x="580" y="243" type="curve" smooth="yes"/>
      <point x="580" y="298"/>
      <point x="545" y="350"/>
      <point x="472" y="386" type="curve"/>
      <point x="372" y="309" type="line"/>
      <point x="425" y="279"/>
      <point x="440" y="260"/>
      <point x="440" y="241" type="curve" smooth="yes"/>
      <point x="440" y="213"/>
      <point x="407" y="198"/>
      <point x="365" y="198" type="curve" smooth="yes"/>
      <point x="329" y="198"/>
      <point x="282" y="220"/>
      <point x="282" y="271" type="curve" smooth="yes"/>
      <point x="282" y="312"/>
      <point x="312" y="346"/>
      <point x="368" y="386" type="curve"/>
      <point x="306" y="468" type="line"/>
      <point x="177" y="408"/>
      <point x="134" y="318"/>
    </contour>
    <contour>
      <point x="384" y="231" type="line"/>
      <point x="546" y="376" type="line"/>
      <point x="473" y="458" type="line"/>
      <point x="311" y="315" type="line"/>
    </contour>
  </outline>
</glyph>
<glyph name="dda_ra-oriya.REV_BRACKET.141" format="2">
  <advance width="789"/>
  <anchor x="393" y="658" name="top"/>
  <anchor x="617" y="658" name="topright"/>
  <outline>
    <contour>
      <point x="173" y="170" type="curve"/>
      <point x="233" y="282" type="line"/>
      <point x="204" y="302"/>
      <point x="186" y="344"/>
      <point x="186" y="379" type="curve" smooth="yes"/>
      <point x="186" y="456"/>
      <point x="273" y="506"/>
      <point x="394" y="506" type="curve" smooth="yes"/>
      <point x="505" y="506"/>
      <point x="593" y="464"/>
      <point x="593" y="380" type="curve" smooth="yes"/>
      <point x="593" y="335"/>
      <point x="575" y="303"/>
      <point x="526" y="245" type="curve"/>
      <point x="514" y="340" type="line"/>
      <point x="803" y="207" type="line"/>
      <point x="685" y="181" type="line"/>
      <point x="738" y="242"/>
      <point x="767" y="309"/>
      <point x="767" y="384" type="curve" smooth="yes"/>
      <point x="767" y="572"/>
      <point x="586" y="666"/>
      <point x="393" y="666" type="curve" smooth="yes"/>
      <point x="204" y="666"/>
      <point x="22" y="576"/>
      <point x="22" y="397" type="curve" smooth="yes"/>
      <point x="22" y="305"/>
      <point x="74" y="229"/>
    </contour>
    <contour>
      <point x="139" y="193" type="curve" smooth="yes"/>
      <point x="139" y="67"/>
      <point x="247" y="-8"/>
      <point x="372" y="-8" type="curve" smooth="yes"/>
      <point x="487" y="-8"/>
      <point x="603" y="56"/>
      <point x="603" y="186" type="curve" smooth="yes"/>
      <point x="603" y="247"/>
      <point x="577" y="299"/>
      <point x="490" y="344" type="curve"/>
      <point x="382" y="244" type="line"/>
      <point x="434" y="218"/>
      <point x="449" y="200"/>
      <point x="449" y="180" type="curve" smooth="yes"/>
      <point x="449" y="152"/>
      <point x="418" y="140"/>
      <point x="382" y="140" type="curve" smooth="yes"/>
      <point x="350" y="140"/>
      <point x="304" y="157"/>
      <point x="304" y="213" type="curve" smooth="yes"/>
      <point x="304" y="255"/>
      <point x="330" y="303"/>
      <point x="387" y="344" type="curve"/>
      <point x="318" y="442" type="line"/>
      <point x="182" y="376"/>
      <point x="139" y="272"/>
    </contour>
    <contour>
      <point x="397" y="174" type="line"/>
      <point x="575" y="344" type="line"/>
      <point x="492" y="431" type="line"/>
      <point x="314" y="261" type="line"/>
    </contour>
    <contour>
      <point x="722" y="-200" type="line"/>
      <point x="722" y="20" type="line"/>
      <point x="552" y="20" type="line"/>
      <point x="552" y="-60" type="line"/>
      <point x="117" y="-60" type="line"/>
      <point x="117" y="-200" type="line"/>
    </contour>
  </outline>
</glyph>
<glyph name="ddara-oriya.REV_BRACKET.141" format="2">
  <advance width="789"/>
  <anchor x="393" y="658" name="top"/>
  <anchor x="617" y="658" name="topright"/>
  <outline>
    <contour>
      <point x="173" y="170" type="curve"/>
      <point x="173" y="170" type="line"/>
      <point x="233" y="282" type="line"/>
      <point x="204" y="302"/>
      <point x="186" y="344"/>
      <point x="186" y="379" type="curve"/>
      <point x="186" y="456"/>
      <point x="273" y="506"/>
      <point x="394" y="506" type="curve"/>
      <point x="505" y="506"/>
      <point x="593" y="464"/>
      <point x="593" y="380" type="curve"/>
      <point x="593" y="355.559"/>
      <point x="587.69" y="334.953"/>
      <point x="574.987" y="311.933" type="curve"/>
      <point x="728.293" y="241.381" type="line"/>
      <point x="753.573" y="285.636"/>
      <point x="767" y="332.966"/>
      <point x="767" y="384" type="curve"/>
      <point x="767" y="572"/>
      <point x="586" y="666"/>
      <point x="393" y="666" type="curve"/>
      <point x="204" y="666"/>
      <point x="22" y="576"/>
      <point x="22" y="397" type="curve"/>
      <point x="22" y="305"/>
      <point x="74" y="229"/>
    </contour>
    <contour>
      <point x="139" y="193" type="curve"/>
      <point x="139" y="193" type="line"/>
      <point x="139" y="67"/>
      <point x="247" y="-8"/>
      <point x="372" y="-8" type="curve"/>
      <point x="487" y="-8"/>
      <point x="603" y="56"/>
      <point x="603" y="186" type="curve"/>
      <point x="603" y="247"/>
      <point x="577" y="299"/>
      <point x="490" y="344" type="curve"/>
      <point x="382" y="244" type="line"/>
      <point x="434" y="218"/>
      <point x="449" y="200"/>
      <point x="449" y="180" type="curve"/>
      <point x="449" y="152"/>
      <point x="418" y="140"/>
      <point x="382" y="140" type="curve"/>
      <point x="350" y="140"/>
      <point x="304" y="157"/>
      <point x="304" y="213" type="curve"/>
      <point x="304" y="255"/>
      <point x="330" y="303"/>
      <point x="387" y="344" type="curve"/>
      <point x="318" y="442" type="line"/>
      <point x="182" y="376"/>
      <point x="139" y="272"/>
    </contour>
    <contour>
      <point x="314" y="261" type="line"/>
      <point x="397" y="174" type="line"/>
      <point x="575" y="344" type="line"/>
      <point x="492" y="431" type="line"/>
    </contour>
    <contour>
      <point x="117" y="-200" type="line"/>
      <point x="722" y="-200" type="line"/>
      <point x="722" y="20" type="line"/>
      <point x="552" y="20" type="line"/>
      <point x="552" y="-60" type="line"/>
      <point x="117" y="-60" type="line"/>
    </contour>
  </outline>
</glyph>
<glyph name="ddha-oriya.REV_BRACKET.141" format="2">
  <advance width="789"/>
  <note>
ddhaorya
</note>
  <guideline x="440" y="174" angle="90"/>
  <anchor x="251" y="0" name="bottom"/>
  <anchor x="730" y="0" name="bottom_ra"/>
  <anchor x="394" y="-120" name="nukta"/>
  <anchor x="382" y="658" name="top"/>
  <anchor x="617" y="658" name="topright"/>
  <outline>
    <contour>
      <point x="95" y="188" type="curve"/>
      <point x="95" y="188" type="line"/>
      <point x="95" y="82"/>
      <point x="164" y="-8"/>
      <point x="310" y="-8" type="curve"/>
      <point x="483" y="-8"/>
      <point x="600" y="127"/>
      <point x="600" y="220" type="curve"/>
      <point x="600" y="303"/>
      <point x="526" y="356"/>
      <point x="436" y="356" type="curve"/>
      <point x="354" y="356"/>
      <point x="279" y="312"/>
      <point x="279" y="224" type="curve"/>
      <point x="279" y="102"/>
      <point x="396" y="0"/>
      <point x="609" y="-51" type="curve"/>
      <point x="641" y="75" type="line"/>
      <point x="487" y="97"/>
      <point x="420" y="166"/>
      <point x="420" y="207" type="curve"/>
      <point x="420" y="223"/>
      <point x="428" y="231"/>
      <point x="440" y="231" type="curve"/>
      <point x="451" y="231"/>
      <point x="459" y="225"/>
      <point x="459" y="207" type="curve"/>
      <point x="459" y="157"/>
      <point x="402" y="130"/>
      <point x="345" y="130" type="curve"/>
      <point x="273" y="130"/>
      <point x="249" y="163"/>
      <point x="249" y="207" type="curve"/>
      <point x="249" y="265"/>
      <point x="288" y="310"/>
      <point x="348" y="350" type="curve"/>
      <point x="283" y="442" type="line"/>
      <point x="162" y="386"/>
      <point x="95" y="292"/>
    </contour>
    <contour>
      <point x="173" y="170" type="curve"/>
      <point x="173" y="170" type="line"/>
      <point x="233" y="282" type="line"/>
      <point x="204" y="302"/>
      <point x="186" y="344"/>
      <point x="186" y="379" type="curve"/>
      <point x="186" y="456"/>
      <point x="273" y="506"/>
      <point x="394" y="506" type="curve"/>
      <point x="504" y="506"/>
      <point x="593" y="465"/>
      <point x="593" y="378" type="curve"/>
      <point x="593" y="360"/>
      <point x="589" y="340"/>
      <point x="580" y="319" type="curve"/>
      <point x="732" y="246" type="line"/>
      <point x="755" y="288"/>
      <point x="767" y="334"/>
      <point x="767" y="384" type="curve"/>
      <point x="767" y="572"/>
      <point x="586" y="666"/>
      <point x="393" y="666" type="curve"/>
      <point x="204" y="666"/>
      <point x="22" y="576"/>
      <point x="22" y="397" type="curve"/>
      <point x="22" y="305"/>
      <point x="74" y="229"/>
    </contour>
  </outline>
</glyph>
<glyph name="e-oriya.REV_BRACKET.141" format="2">
  <advance width="748"/>
  <note>
eorya
</note>
  <anchor x="617" y="658" name="topright"/>
  <outline>
    <contour>
      <point x="329" y="490" type="curve"/>
      <point x="414" y="414" type="line"/>
      <point x="414" y="480"/>
      <point x="486" y="498"/>
      <point x="550" y="498" type="curve"/>
      <point x="532" y="571" type="line"/>
      <point x="532" y="115" type="line"/>
      <point x="586" y="134" type="line"/>
      <point x="414" y="233"/>
      <point x="237" y="375"/>
      <point x="73" y="543" type="curve"/>
      <point x="142" y="548" type="line"/>
      <point x="-30" y="365" type="line"/>
      <point x="-53" y="415" type="line"/>
      <point x="113" y="258"/>
      <point x="299" y="115"/>
      <point x="502" y="0" type="curve"/>
      <point x="702" y="0" type="line"/>
      <point x="702" y="658" type="line"/>
      <point x="609" y="658" type="line" smooth="yes"/>
      <point x="394" y="658"/>
      <point x="289" y="534"/>
      <point x="289" y="437" type="curve" smooth="yes"/>
      <point x="289" y="374"/>
      <point x="329" y="325"/>
      <point x="394" y="325" type="curve" smooth="yes"/>
      <point x="452" y="325"/>
      <point x="496" y="365"/>
      <point x="496" y="417" type="curve" smooth="yes"/>
      <point x="496" y="468"/>
      <point x="452" y="508"/>
      <point x="393" y="508" type="curve" smooth="yes"/>
      <point x="368" y="508"/>
      <point x="346" y="501"/>
    </contour>
  </outline>
</glyph>
<glyph name="five-oriya.REV_BRACKET.141" format="2">
  <advance width="585"/>
  <note>
fiveorya
</note>
  <outline>
    <contour>
      <point x="499" y="178" type="curve"/>
      <point x="585" y="278" type="line"/>
      <point x="421" y="426"/>
      <point x="237" y="326"/>
      <point x="88" y="465" type="curve"/>
      <point x="0" y="366" type="line"/>
      <point x="141" y="232"/>
      <point x="341" y="326"/>
    </contour>
    <contour>
      <point x="253" y="-8" type="curve" smooth="yes"/>
      <point x="378" y="-8"/>
      <point x="460" y="58"/>
      <point x="460" y="147" type="curve" smooth="yes"/>
      <point x="460" y="211"/>
      <point x="417" y="272"/>
      <point x="322" y="332" type="curve"/>
      <point x="223" y="344" type="line"/>
      <point x="108" y="290"/>
      <point x="51" y="228"/>
      <point x="51" y="150" type="curve" smooth="yes"/>
      <point x="51" y="55"/>
      <point x="127" y="-8"/>
    </contour>
    <contour>
      <point x="128" y="511" type="curve" smooth="yes"/>
      <point x="128" y="462"/>
      <point x="147" y="421"/>
      <point x="198" y="375" type="curve"/>
      <point x="418" y="341" type="line"/>
      <point x="495" y="387"/>
      <point x="534" y="443"/>
      <point x="534" y="508" type="curve" smooth="yes"/>
      <point x="534" y="603"/>
      <point x="456" y="666"/>
      <point x="336" y="666" type="curve" smooth="yes"/>
      <point x="210" y="666"/>
      <point x="128" y="600"/>
    </contour>
    <contour>
      <point x="286" y="469" type="curve" smooth="yes"/>
      <point x="286" y="494"/>
      <point x="307" y="508"/>
      <point x="329" y="508" type="curve" smooth="yes"/>
      <point x="351" y="508"/>
      <point x="370" y="495"/>
      <point x="370" y="470" type="curve" smooth="yes"/>
      <point x="370" y="444"/>
      <point x="357" y="416"/>
      <point x="322" y="391" type="curve"/>
      <point x="294" y="422"/>
      <point x="286" y="447"/>
    </contour>
    <contour>
      <point x="215" y="183" type="curve" smooth="yes"/>
      <point x="215" y="206"/>
      <point x="232" y="230"/>
      <point x="265" y="251" type="curve"/>
      <point x="291" y="224"/>
      <point x="302" y="205"/>
      <point x="302" y="182" type="curve" smooth="yes"/>
      <point x="302" y="161"/>
      <point x="281" y="150"/>
      <point x="258" y="150" type="curve" smooth="yes"/>
      <point x="236" y="150"/>
      <point x="215" y="160"/>
    </contour>
  </outline>
</glyph>
<glyph name="ha-oriya.REV_BRACKET.141" format="2">
  <advance width="763"/>
  <note>
haorya
</note>
  <anchor x="314" y="0" name="bottom"/>
  <anchor x="614" y="0" name="bottom_ra"/>
  <anchor x="370" y="658" name="top"/>
  <anchor x="591" y="658" name="topright"/>
  <outline>
    <contour>
      <point x="665" y="188" type="line"/>
      <point x="713" y="246"/>
      <point x="741" y="312"/>
      <point x="741" y="386" type="curve" smooth="yes"/>
      <point x="741" y="576"/>
      <point x="553" y="666"/>
      <point x="370" y="666" type="curve" smooth="yes"/>
      <point x="193" y="666"/>
      <point x="22" y="581"/>
      <point x="22" y="426" type="curve" smooth="yes"/>
      <point x="22" y="343"/>
      <point x="72" y="258"/>
      <point x="182" y="220" type="curve"/>
      <point x="232" y="326" type="line"/>
      <point x="200" y="354"/>
      <point x="186" y="382"/>
      <point x="186" y="409" type="curve" smooth="yes"/>
      <point x="186" y="475"/>
      <point x="271" y="506"/>
      <point x="361" y="506" type="curve" smooth="yes"/>
      <point x="461" y="506"/>
      <point x="567" y="468"/>
      <point x="567" y="380" type="curve" smooth="yes"/>
      <point x="567" y="341"/>
      <point x="546" y="291"/>
      <point x="500" y="243" type="curve"/>
      <point x="469" y="338" type="line"/>
      <point x="770" y="207" type="line"/>
    </contour>
    <contour>
      <point x="577" y="-90" type="line"/>
      <point x="614" y="34" type="line"/>
      <point x="255" y="131" type="line"/>
      <point x="174" y="33" type="line"/>
      <point x="364" y="173" type="line"/>
      <point x="270" y="253" type="line"/>
      <point x="93" y="130" type="line"/>
      <point x="109" y="40" type="line"/>
    </contour>
    <contour>
      <point x="311" y="151" type="curve" smooth="yes"/>
      <point x="402" y="151"/>
      <point x="494" y="205"/>
      <point x="494" y="304" type="curve"/>
      <point x="390" y="315" type="line"/>
      <point x="383" y="287"/>
      <point x="362" y="274"/>
      <point x="340" y="274" type="curve" smooth="yes"/>
      <point x="319" y="274"/>
      <point x="308" y="286"/>
      <point x="308" y="302" type="curve" smooth="yes"/>
      <point x="308" y="320"/>
      <point x="323" y="342"/>
      <point x="348" y="354" type="curve"/>
      <point x="286" y="458" type="line"/>
      <point x="196" y="425"/>
      <point x="152" y="356"/>
      <point x="152" y="291" type="curve" smooth="yes"/>
      <point x="152" y="219"/>
      <point x="209" y="151"/>
    </contour>
    <contour>
      <point x="371" y="116" type="line"/>
      <point x="525" y="116" type="line"/>
      <point x="525" y="406" type="line"/>
      <point x="371" y="406" type="line"/>
      <point x="371" y="228" type="line"/>
      <point x="380" y="211" type="line"/>
    </contour>
  </outline>
</glyph>
<glyph name="ha-oriya.below" format="2">
  <note>
hasubscriptorya
</note>
  <guideline x="221" y="157" angle="90"/>
  <anchor x="241" y="110" name="_bottom"/>
  <outline>
    <contour>
      <point x="110" y="-127" type="curve"/>
      <point x="151" y="-67" type="line"/>
      <point x="124" y="-55"/>
      <point x="110" y="-43"/>
      <point x="110" y="-24" type="curve" smooth="yes"/>
      <point x="110" y="7"/>
      <point x="145" y="26"/>
      <point x="209" y="26" type="curve" smooth="yes"/>
      <point x="277" y="26"/>
      <point x="321" y="4"/>
      <point x="321" y="-39" type="curve" smooth="yes"/>
      <point x="321" y="-62"/>
      <point x="309" y="-89"/>
      <point x="282" y="-115" type="curve"/>
      <point x="291" y="-56" type="line"/>
      <point x="437" y="-112" type="line"/>
      <point x="364" y="-157" type="line"/>
      <point x="405" y="-122"/>
      <point x="429" y="-83"/>
      <point x="429" y="-35" type="curve" smooth="yes"/>
      <point x="429" y="58"/>
      <point x="341" y="116"/>
      <point x="214" y="116" type="curve" smooth="yes"/>
      <point x="92" y="116"/>
      <point x="12" y="62"/>
      <point x="12" y="-18" type="curve" smooth="yes"/>
      <point x="12" y="-71"/>
      <point x="51" y="-113"/>
    </contour>
    <contour>
      <point x="328" y="-290" type="line"/>
      <point x="350" y="-224" type="line"/>
      <point x="126" y="-163" type="line"/>
      <point x="120" y="-203" type="line"/>
      <point x="201" y="-148" type="line"/>
      <point x="135" y="-120" type="line"/>
      <point x="54" y="-172" type="line"/>
      <point x="68" y="-222" type="line"/>
    </contour>
    <contour>
      <point x="87" y="-82" type="curve" smooth="yes"/>
      <point x="87" y="-123"/>
      <point x="121" y="-161"/>
      <point x="182" y="-161" type="curve" smooth="yes"/>
      <point x="233" y="-161"/>
      <point x="285" y="-134"/>
      <point x="285" y="-86" type="curve"/>
      <point x="228" y="-70" type="line"/>
      <point x="228" y="-88"/>
      <point x="207" y="-101"/>
      <point x="189" y="-101" type="curve" smooth="yes"/>
      <point x="176" y="-101"/>
      <point x="167" y="-94"/>
      <point x="167" y="-82" type="curve" smooth="yes"/>
      <point x="167" y="-69"/>
      <point x="177" y="-55"/>
      <point x="201" y="-43" type="curve"/>
      <point x="170" y="6" type="line"/>
      <point x="115" y="-10"/>
      <point x="87" y="-48"/>
    </contour>
    <contour>
      <point x="215" y="-179" type="line"/>
      <point x="303" y="-179" type="line"/>
      <point x="303" y="-22" type="line"/>
      <point x="215" y="-22" type="line"/>
      <point x="215" y="-121" type="line"/>
      <point x="224" y="-132" type="line"/>
    </contour>
  </outline>
</glyph>
<glyph name="ha_ka-oriya" format="2">
  <advance width="734"/>
  <note>
hakaorya
</note>
  <guideline x="512" y="372" angle="90"/>
  <guideline x="588" y="372" angle="90"/>
  <anchor x="360" y="658" name="top"/>
  <anchor x="562" y="658" name="topright"/>
  <outline>
    <contour>
      <point x="302" y="211" type="curve" smooth="yes"/>
      <point x="394" y="211"/>
      <point x="480" y="265"/>
      <point x="480" y="380" type="curve"/>
      <point x="378" y="382" type="line"/>
      <point x="378" y="344"/>
      <point x="360" y="317"/>
      <point x="327" y="317" type="curve" smooth="yes"/>
      <point x="303" y="317"/>
      <point x="291" y="331"/>
      <point x="291" y="348" type="curve" smooth="yes"/>
      <point x="291" y="368"/>
      <point x="303" y="384"/>
      <point x="333" y="400" type="curve"/>
      <point x="276" y="483" type="line"/>
      <point x="197" y="457"/>
      <point x="147" y="402"/>
      <point x="147" y="335" type="curve" smooth="yes"/>
      <point x="147" y="256"/>
      <point x="221" y="211"/>
    </contour>
    <contour>
      <point x="361" y="182" type="line"/>
      <point x="512" y="182" type="line"/>
      <point x="512" y="436" type="line"/>
      <point x="362" y="436" type="line"/>
      <point x="362" y="273" type="line"/>
      <point x="374" y="257" type="line"/>
    </contour>
    <contour>
      <point x="636" y="237" type="line"/>
      <point x="684" y="291"/>
      <point x="712" y="352"/>
      <point x="712" y="421" type="curve" smooth="yes"/>
      <point x="712" y="588"/>
      <point x="547" y="666"/>
      <point x="360" y="666" type="curve" smooth="yes"/>
      <point x="156" y="666"/>
      <point x="22" y="573"/>
      <point x="22" y="452" type="curve" smooth="yes"/>
      <point x="22" y="369"/>
      <point x="85" y="301"/>
      <point x="184" y="271" type="curve"/>
      <point x="218" y="362" type="line"/>
      <point x="186" y="387"/>
      <point x="172" y="413"/>
      <point x="172" y="434" type="curve" smooth="yes"/>
      <point x="172" y="487"/>
      <point x="251" y="521"/>
      <point x="361" y="521" type="curve" smooth="yes"/>
      <point x="470" y="521"/>
      <point x="552" y="488"/>
      <point x="552" y="416" type="curve" smooth="yes"/>
      <point x="552" y="379"/>
      <point x="530" y="331"/>
      <point x="485" y="287" type="curve"/>
      <point x="454" y="378" type="line"/>
      <point x="755" y="258" type="line"/>
    </contour>
    <contour>
      <point x="319" y="-125" type="curve" smooth="yes"/>
      <point x="404" y="-125"/>
      <point x="455" y="-80"/>
      <point x="455" y="-4" type="curve" smooth="yes"/>
      <point x="455" y="71"/>
      <point x="406" y="116"/>
      <point x="322" y="116" type="curve" smooth="yes"/>
      <point x="240" y="116"/>
      <point x="191" y="71"/>
      <point x="191" y="-5" type="curve" smooth="yes"/>
      <point x="191" y="-80"/>
      <point x="239" y="-125"/>
    </contour>
    <contour>
      <point x="323" y="-35" type="curve" smooth="yes"/>
      <point x="309" y="-35"/>
      <point x="301" y="-23"/>
      <point x="301" y="-5" type="curve" smooth="yes"/>
      <point x="301" y="14"/>
      <point x="309" y="26"/>
      <point x="323" y="26" type="curve" smooth="yes"/>
      <point x="337" y="26"/>
      <point x="345" y="14"/>
      <point x="345" y="-5" type="curve" smooth="yes"/>
      <point x="345" y="-23"/>
      <point x="337" y="-35"/>
    </contour>
    <contour>
      <point x="516" y="114" type="curve" smooth="yes"/>
      <point x="281" y="185" type="line"/>
      <point x="355" y="235" type="line"/>
      <point x="264" y="295" type="line"/>
      <point x="92" y="186" type="line"/>
      <point x="106" y="115" type="line"/>
      <point x="412" y="24" type="line"/>
      <point x="421" y="98" type="line"/>
      <point x="393" y="79"/>
      <point x="379" y="48"/>
      <point x="379" y="8" type="curve"/>
      <point x="363" y="-69" type="line"/>
      <point x="347" y="-164" type="line"/>
      <point x="455" y="-164" type="line"/>
      <point x="455" y="-5" type="line" smooth="yes"/>
      <point x="455" y="9"/>
      <point x="460" y="16"/>
      <point x="468" y="16" type="curve" smooth="yes"/>
      <point x="476" y="16"/>
      <point x="480" y="9"/>
      <point x="480" y="-5" type="curve" smooth="yes"/>
      <point x="480" y="-164" type="line"/>
      <point x="588" y="-164" type="line"/>
      <point x="588" y="8" type="line" smooth="yes"/>
      <point x="588" y="55"/>
      <point x="575" y="96"/>
    </contour>
  </outline>
</glyph>
<glyph name="ha_ma-oriya" format="2">
  <advance width="734"/>
  <note>
hamaorya
</note>
  <guideline x="512" y="372" angle="90"/>
  <guideline x="587" y="372" angle="90"/>
  <anchor x="360" y="658" name="top"/>
  <anchor x="562" y="658" name="topright"/>
  <outline>
    <contour>
      <point x="636" y="237" type="line"/>
      <point x="684" y="291"/>
      <point x="712" y="352"/>
      <point x="712" y="421" type="curve" smooth="yes"/>
      <point x="712" y="588"/>
      <point x="547" y="666"/>
      <point x="360" y="666" type="curve" smooth="yes"/>
      <point x="156" y="666"/>
      <point x="22" y="573"/>
      <point x="22" y="452" type="curve" smooth="yes"/>
      <point x="22" y="369"/>
      <point x="85" y="301"/>
      <point x="184" y="271" type="curve"/>
      <point x="218" y="362" type="line"/>
      <point x="186" y="387"/>
      <point x="172" y="413"/>
      <point x="172" y="434" type="curve" smooth="yes"/>
      <point x="172" y="487"/>
      <point x="251" y="521"/>
      <point x="361" y="521" type="curve" smooth="yes"/>
      <point x="470" y="521"/>
      <point x="552" y="488"/>
      <point x="552" y="416" type="curve" smooth="yes"/>
      <point x="552" y="379"/>
      <point x="530" y="331"/>
      <point x="485" y="287" type="curve"/>
      <point x="454" y="378" type="line"/>
      <point x="755" y="258" type="line"/>
    </contour>
    <contour>
      <point x="323" y="-248" type="curve" smooth="yes"/>
      <point x="385" y="-248"/>
      <point x="447" y="-214"/>
      <point x="447" y="-144" type="curve" smooth="yes"/>
      <point x="447" y="-34"/>
      <point x="304" y="26"/>
      <point x="190" y="36" type="curve"/>
      <point x="177" y="-54" type="line"/>
      <point x="316" y="-65"/>
      <point x="359" y="-102"/>
      <point x="359" y="-141" type="curve" smooth="yes"/>
      <point x="359" y="-159"/>
      <point x="344" y="-172"/>
      <point x="324" y="-172" type="curve" smooth="yes"/>
      <point x="302" y="-172"/>
      <point x="288" y="-158"/>
      <point x="288" y="-140" type="curve" smooth="yes"/>
      <point x="288" y="-105"/>
      <point x="342" y="-54"/>
      <point x="493" y="-54" type="curve" smooth="yes"/>
      <point x="523" y="-54"/>
      <point x="540" y="-56"/>
      <point x="557" y="-59" type="curve"/>
      <point x="587" y="32" type="line"/>
      <point x="563" y="34"/>
      <point x="538" y="36"/>
      <point x="512" y="36" type="curve" smooth="yes"/>
      <point x="364" y="36"/>
      <point x="200" y="-29"/>
      <point x="200" y="-146" type="curve" smooth="yes"/>
      <point x="200" y="-214"/>
      <point x="261" y="-248"/>
    </contour>
    <contour>
      <point x="479" y="-244" type="line"/>
      <point x="587" y="-244" type="line"/>
      <point x="587" y="112" type="line"/>
      <point x="208" y="204" type="line"/>
      <point x="218" y="143" type="line"/>
      <point x="355" y="235" type="line"/>
      <point x="264" y="295" type="line"/>
      <point x="92" y="186" type="line"/>
      <point x="106" y="115" type="line"/>
      <point x="505" y="22" type="line"/>
      <point x="479" y="52" type="line"/>
    </contour>
    <contour>
      <point x="302" y="211" type="curve" smooth="yes"/>
      <point x="394" y="211"/>
      <point x="480" y="265"/>
      <point x="480" y="380" type="curve"/>
      <point x="378" y="382" type="line"/>
      <point x="378" y="344"/>
      <point x="360" y="317"/>
      <point x="327" y="317" type="curve" smooth="yes"/>
      <point x="303" y="317"/>
      <point x="291" y="331"/>
      <point x="291" y="348" type="curve" smooth="yes"/>
      <point x="291" y="368"/>
      <point x="303" y="384"/>
      <point x="333" y="400" type="curve"/>
      <point x="276" y="483" type="line"/>
      <point x="197" y="457"/>
      <point x="147" y="402"/>
      <point x="147" y="335" type="curve" smooth="yes"/>
      <point x="147" y="256"/>
      <point x="221" y="211"/>
    </contour>
    <contour>
      <point x="361" y="182" type="line"/>
      <point x="512" y="182" type="line"/>
      <point x="512" y="436" type="line"/>
      <point x="362" y="436" type="line"/>
      <point x="362" y="273" type="line"/>
      <point x="374" y="257" type="line"/>
    </contour>
  </outline>
</glyph>
<glyph name="ha_ra-oriya" format="2">
  <advance width="763"/>
  <guideline x="109" y="187" angle="90"/>
  <anchor x="370" y="658" name="top"/>
  <anchor x="591" y="658" name="topright"/>
  <outline>
    <contour>
      <point x="665" y="188" type="line"/>
      <point x="713" y="246"/>
      <point x="741" y="312"/>
      <point x="741" y="386" type="curve" smooth="yes"/>
      <point x="741" y="576"/>
      <point x="553" y="666"/>
      <point x="370" y="666" type="curve" smooth="yes"/>
      <point x="193" y="666"/>
      <point x="22" y="581"/>
      <point x="22" y="426" type="curve" smooth="yes"/>
      <point x="22" y="343"/>
      <point x="72" y="258"/>
      <point x="182" y="220" type="curve"/>
      <point x="222" y="324" type="line"/>
      <point x="190" y="352"/>
      <point x="176" y="381"/>
      <point x="176" y="407" type="curve" smooth="yes"/>
      <point x="176" y="474"/>
      <point x="267" y="506"/>
      <point x="360" y="506" type="curve" smooth="yes"/>
      <point x="461" y="506"/>
      <point x="567" y="468"/>
      <point x="567" y="382" type="curve" smooth="yes"/>
      <point x="567" y="343"/>
      <point x="546" y="290"/>
      <point x="500" y="243" type="curve"/>
      <point x="469" y="338" type="line"/>
      <point x="770" y="207" type="line"/>
    </contour>
    <contour>
      <point x="311" y="149" type="curve" smooth="yes"/>
      <point x="402" y="149"/>
      <point x="494" y="205"/>
      <point x="494" y="304" type="curve"/>
      <point x="399" y="304" type="line"/>
      <point x="390" y="276"/>
      <point x="364" y="261"/>
      <point x="339" y="261" type="curve" smooth="yes"/>
      <point x="308" y="261"/>
      <point x="293" y="280"/>
      <point x="293" y="304" type="curve" smooth="yes"/>
      <point x="293" y="328"/>
      <point x="313" y="352"/>
      <point x="344" y="367" type="curve"/>
      <point x="286" y="458" type="line"/>
      <point x="196" y="425"/>
      <point x="151" y="359"/>
      <point x="151" y="291" type="curve" smooth="yes"/>
      <point x="151" y="219"/>
      <point x="209" y="149"/>
    </contour>
    <contour>
      <point x="375" y="116" type="line"/>
      <point x="525" y="116" type="line"/>
      <point x="525" y="406" type="line"/>
      <point x="375" y="406" type="line"/>
      <point x="375" y="228" type="line"/>
      <point x="390" y="211" type="line"/>
    </contour>
    <contour>
      <point x="577" y="-90" type="line"/>
      <point x="449" y="34" type="line"/>
      <point x="444" y="-60" type="line"/>
      <point x="77" y="-60" type="line"/>
      <point x="77" y="-200" type="line"/>
      <point x="614" y="-200" type="line"/>
      <point x="614" y="34" type="line"/>
      <point x="255" y="131" type="line"/>
      <point x="174" y="33" type="line"/>
      <point x="364" y="173" type="line"/>
      <point x="272" y="243" type="line"/>
      <point x="95" y="120" type="line"/>
      <point x="109" y="40" type="line"/>
    </contour>
  </outline>
</glyph>
<glyph name="ha_u-oriya" format="2">
  <advance width="734"/>
  <note>
huorya
</note>
  <guideline x="361" y="182" angle="90"/>
  <guideline x="512" y="182" angle="90"/>
  <anchor x="360" y="658" name="top"/>
  <anchor x="562" y="658" name="topright"/>
  <outline>
    <contour>
      <point x="276" y="-248" type="curve" smooth="yes"/>
      <point x="399" y="-248"/>
      <point x="512" y="-148"/>
      <point x="512" y="44" type="curve"/>
      <point x="362" y="74" type="line"/>
      <point x="362" y="44" type="line"/>
      <point x="362" y="-21"/>
      <point x="362" y="-140"/>
      <point x="282" y="-140" type="curve" smooth="yes"/>
      <point x="261" y="-140"/>
      <point x="248" y="-132"/>
      <point x="248" y="-117" type="curve" smooth="yes"/>
      <point x="248" y="-103"/>
      <point x="260" y="-96"/>
      <point x="273" y="-96" type="curve" smooth="yes"/>
      <point x="335" y="-96"/>
      <point x="436" y="-248"/>
      <point x="562" y="-248" type="curve" smooth="yes"/>
      <point x="612" y="-248"/>
      <point x="667" y="-224"/>
      <point x="725" y="-153" type="curve"/>
      <point x="683" y="-254" type="line"/>
      <point x="593" y="-93" type="line"/>
      <point x="627" y="-89" type="line"/>
      <point x="594" y="-119"/>
      <point x="566" y="-130"/>
      <point x="541" y="-130" type="curve" smooth="yes"/>
      <point x="454" y="-130"/>
      <point x="398" y="12"/>
      <point x="266" y="12" type="curve" smooth="yes"/>
      <point x="180" y="12"/>
      <point x="130" y="-48"/>
      <point x="130" y="-118" type="curve" smooth="yes"/>
      <point x="130" y="-187"/>
      <point x="180" y="-248"/>
    </contour>
    <contour>
      <point x="555" y="1" type="line"/>
      <point x="591" y="110" type="line"/>
      <point x="259" y="192" type="line"/>
      <point x="169" y="110" type="line"/>
      <point x="355" y="235" type="line"/>
      <point x="264" y="295" type="line"/>
      <point x="92" y="186" type="line"/>
      <point x="106" y="115" type="line"/>
    </contour>
    <contour>
      <point x="302" y="211" type="curve" smooth="yes"/>
      <point x="394" y="211"/>
      <point x="480" y="265"/>
      <point x="480" y="380" type="curve"/>
      <point x="378" y="382" type="line"/>
      <point x="378" y="344"/>
      <point x="360" y="317"/>
      <point x="327" y="317" type="curve" smooth="yes"/>
      <point x="303" y="317"/>
      <point x="291" y="331"/>
      <point x="291" y="348" type="curve" smooth="yes"/>
      <point x="291" y="368"/>
      <point x="303" y="384"/>
      <point x="333" y="400" type="curve"/>
      <point x="276" y="483" type="line"/>
      <point x="197" y="457"/>
      <point x="147" y="402"/>
      <point x="147" y="335" type="curve" smooth="yes"/>
      <point x="147" y="256"/>
      <point x="221" y="211"/>
    </contour>
    <contour>
      <point x="361" y="182" type="line"/>
      <point x="512" y="182" type="line"/>
      <point x="512" y="436" type="line"/>
      <point x="362" y="436" type="line"/>
      <point x="362" y="273" type="line"/>
      <point x="374" y="257" type="line"/>
    </contour>
    <contour>
      <point x="636" y="237" type="line"/>
      <point x="684" y="291"/>
      <point x="712" y="352"/>
      <point x="712" y="421" type="curve" smooth="yes"/>
      <point x="712" y="588"/>
      <point x="547" y="666"/>
      <point x="360" y="666" type="curve" smooth="yes"/>
      <point x="156" y="666"/>
      <point x="22" y="573"/>
      <point x="22" y="452" type="curve" smooth="yes"/>
      <point x="22" y="369"/>
      <point x="85" y="301"/>
      <point x="184" y="271" type="curve"/>
      <point x="218" y="362" type="line"/>
      <point x="186" y="387"/>
      <point x="172" y="413"/>
      <point x="172" y="434" type="curve" smooth="yes"/>
      <point x="172" y="487"/>
      <point x="251" y="521"/>
      <point x="361" y="521" type="curve" smooth="yes"/>
      <point x="470" y="521"/>
      <point x="552" y="488"/>
      <point x="552" y="416" type="curve" smooth="yes"/>
      <point x="552" y="379"/>
      <point x="530" y="331"/>
      <point x="485" y="287" type="curve"/>
      <point x="454" y="378" type="line"/>
      <point x="755" y="258" type="line"/>
    </contour>
  </outline>
</glyph>
<glyph name="ha_va-oriya" format="2">
  <advance width="734"/>
  <note>
habaorya
</note>
  <guideline x="512" y="372" angle="90"/>
  <guideline x="587" y="372" angle="90"/>
  <anchor x="360" y="658" name="top"/>
  <anchor x="562" y="658" name="topright"/>
  <outline>
    <contour>
      <point x="551" y="3" type="line"/>
      <point x="587" y="112" type="line"/>
      <point x="259" y="192" type="line"/>
      <point x="169" y="110" type="line"/>
      <point x="355" y="235" type="line"/>
      <point x="264" y="295" type="line"/>
      <point x="92" y="186" type="line"/>
      <point x="106" y="115" type="line"/>
    </contour>
    <contour>
      <point x="302" y="211" type="curve" smooth="yes"/>
      <point x="394" y="211"/>
      <point x="480" y="265"/>
      <point x="480" y="380" type="curve"/>
      <point x="378" y="382" type="line"/>
      <point x="378" y="344"/>
      <point x="360" y="317"/>
      <point x="327" y="317" type="curve" smooth="yes"/>
      <point x="303" y="317"/>
      <point x="291" y="331"/>
      <point x="291" y="348" type="curve" smooth="yes"/>
      <point x="291" y="368"/>
      <point x="303" y="384"/>
      <point x="333" y="400" type="curve"/>
      <point x="276" y="483" type="line"/>
      <point x="197" y="457"/>
      <point x="147" y="402"/>
      <point x="147" y="335" type="curve" smooth="yes"/>
      <point x="147" y="256"/>
      <point x="221" y="211"/>
    </contour>
    <contour>
      <point x="361" y="182" type="line"/>
      <point x="512" y="182" type="line"/>
      <point x="512" y="436" type="line"/>
      <point x="362" y="436" type="line"/>
      <point x="362" y="273" type="line"/>
      <point x="374" y="257" type="line"/>
    </contour>
    <contour>
      <point x="636" y="237" type="line"/>
      <point x="684" y="291"/>
      <point x="712" y="352"/>
      <point x="712" y="421" type="curve" smooth="yes"/>
      <point x="712" y="588"/>
      <point x="547" y="666"/>
      <point x="360" y="666" type="curve" smooth="yes"/>
      <point x="156" y="666"/>
      <point x="22" y="573"/>
      <point x="22" y="452" type="curve" smooth="yes"/>
      <point x="22" y="369"/>
      <point x="85" y="301"/>
      <point x="184" y="271" type="curve"/>
      <point x="218" y="362" type="line"/>
      <point x="186" y="387"/>
      <point x="172" y="413"/>
      <point x="172" y="434" type="curve" smooth="yes"/>
      <point x="172" y="487"/>
      <point x="251" y="521"/>
      <point x="361" y="521" type="curve" smooth="yes"/>
      <point x="470" y="521"/>
      <point x="552" y="488"/>
      <point x="552" y="416" type="curve" smooth="yes"/>
      <point x="552" y="379"/>
      <point x="530" y="331"/>
      <point x="485" y="287" type="curve"/>
      <point x="454" y="378" type="line"/>
      <point x="755" y="258" type="line"/>
    </contour>
    <contour>
      <point x="367" y="-207" type="curve" smooth="yes"/>
      <point x="452" y="-207"/>
      <point x="537" y="-156"/>
      <point x="537" y="-50" type="curve"/>
      <point x="454" y="-36" type="line"/>
      <point x="454" y="-74"/>
      <point x="428" y="-100"/>
      <point x="395" y="-100" type="curve" smooth="yes"/>
      <point x="365" y="-100"/>
      <point x="354" y="-80"/>
      <point x="354" y="-52" type="curve" smooth="yes"/>
      <point x="354" y="-32"/>
      <point x="359" y="-8"/>
      <point x="371" y="29" type="curve"/>
      <point x="394" y="-3" type="line"/>
      <point x="229" y="24" type="line"/>
      <point x="242" y="32" type="line"/>
      <point x="230" y="0"/>
      <point x="224" y="-32"/>
      <point x="224" y="-63" type="curve" smooth="yes"/>
      <point x="224" y="-141"/>
      <point x="271" y="-207"/>
    </contour>
    <contour>
      <point x="437" y="-244" type="line"/>
      <point x="587" y="-244" type="line"/>
      <point x="587" y="112" type="line"/>
      <point x="437" y="112" type="line"/>
      <point x="437" y="-141" type="line"/>
      <point x="446" y="-150" type="line"/>
    </contour>
  </outline>
</glyph>
<glyph name="i-oriya.REV_BRACKET.141" format="2">
  <advance width="876"/>
  <note>
iorya
</note>
  <anchor x="695" y="658" name="topright"/>
  <outline>
    <contour>
      <point x="610" y="157" type="curve"/>
      <point x="610" y="157" type="line"/>
      <point x="727.791" y="-8.855" type="line"/>
      <point x="868.173" y="90.439" type="line"/>
      <point x="755" y="230" type="line"/>
      <point x="725" y="100" type="line"/>
      <point x="811" y="178"/>
      <point x="845" y="265"/>
      <point x="845" y="347" type="curve"/>
      <point x="845" y="554"/>
      <point x="625" y="665"/>
      <point x="414" y="665" type="curve"/>
      <point x="214" y="665"/>
      <point x="22" y="571"/>
      <point x="22" y="392" type="curve"/>
      <point x="22" y="317"/>
      <point x="56" y="240"/>
      <point x="173" y="170" type="curve"/>
      <point x="233" y="282" type="line"/>
      <point x="201" y="311"/>
      <point x="186" y="341"/>
      <point x="186" y="373" type="curve"/>
      <point x="186" y="456"/>
      <point x="291" y="506"/>
      <point x="404" y="506" type="curve"/>
      <point x="532" y="506"/>
      <point x="671" y="441"/>
      <point x="671" y="300" type="curve"/>
      <point x="671" y="253"/>
      <point x="655" y="201"/>
    </contour>
    <contour>
      <point x="238" y="-8" type="curve"/>
      <point x="238" y="-8" type="line"/>
      <point x="323" y="-8"/>
      <point x="373" y="67"/>
      <point x="373" y="172" type="curve"/>
      <point x="373" y="280"/>
      <point x="323" y="351"/>
      <point x="238" y="351" type="curve"/>
      <point x="152" y="351"/>
      <point x="90" y="285"/>
      <point x="90" y="168" type="curve"/>
      <point x="90" y="58"/>
      <point x="152" y="-8"/>
    </contour>
    <contour>
      <point x="243" y="126" type="curve"/>
      <point x="243" y="126" type="line"/>
      <point x="223" y="126"/>
      <point x="214" y="143"/>
      <point x="214" y="172" type="curve"/>
      <point x="214" y="201"/>
      <point x="223" y="217"/>
      <point x="243" y="217" type="curve"/>
      <point x="263" y="217"/>
      <point x="272" y="203"/>
      <point x="272" y="172" type="curve"/>
      <point x="272" y="142"/>
      <point x="263" y="126"/>
    </contour>
    <contour>
      <point x="446" y="-8" type="curve"/>
      <point x="446" y="-8" type="line"/>
      <point x="530" y="-8"/>
      <point x="590" y="60"/>
      <point x="590" y="171" type="curve"/>
      <point x="590" y="285"/>
      <point x="532" y="351"/>
      <point x="445" y="351" type="curve"/>
      <point x="361" y="351"/>
      <point x="303" y="280"/>
      <point x="303" y="172" type="curve"/>
      <point x="303" y="67"/>
      <point x="361" y="-8"/>
    </contour>
    <contour>
      <point x="437" y="126" type="curve"/>
      <point x="437" y="126" type="line"/>
      <point x="417" y="126"/>
      <point x="408" y="142"/>
      <point x="408" y="172" type="curve"/>
      <point x="408" y="203"/>
      <point x="417" y="217"/>
      <point x="437" y="217" type="curve"/>
      <point x="457" y="217"/>
      <point x="466" y="201"/>
      <point x="466" y="172" type="curve"/>
      <point x="466" y="143"/>
      <point x="457" y="126"/>
    </contour>
  </outline>
</glyph>
<glyph name="ii-oriya.REV_BRACKET.141" format="2">
  <advance width="876"/>
  <note>
iiorya
</note>
  <anchor x="705" y="658" name="topright"/>
  <outline>
    <contour>
      <point x="610" y="157" type="curve"/>
      <point x="784" y="-88" type="line"/>
      <point x="688" y="-37" type="line"/>
      <point x="893" y="108" type="line"/>
      <point x="948" y="-8" type="line"/>
      <point x="755" y="230" type="line"/>
      <point x="727" y="100" type="line"/>
      <point x="815" y="179"/>
      <point x="855" y="269"/>
      <point x="855" y="360" type="curve" smooth="yes"/>
      <point x="855" y="541"/>
      <point x="695" y="666"/>
      <point x="469" y="666" type="curve" smooth="yes"/>
      <point x="282" y="666"/>
      <point x="118" y="579"/>
      <point x="118" y="355" type="curve"/>
      <point x="309" y="467" type="line"/>
      <point x="335" y="497"/>
      <point x="377" y="516"/>
      <point x="445" y="516" type="curve" smooth="yes"/>
      <point x="597" y="516"/>
      <point x="680" y="420"/>
      <point x="680" y="316" type="curve" smooth="yes"/>
      <point x="680" y="261"/>
      <point x="657" y="205"/>
    </contour>
    <contour>
      <point x="238" y="-8" type="curve" smooth="yes"/>
      <point x="323" y="-8"/>
      <point x="373" y="67"/>
      <point x="373" y="167" type="curve" smooth="yes"/>
      <point x="373" y="270"/>
      <point x="323" y="341"/>
      <point x="238" y="341" type="curve" smooth="yes"/>
      <point x="152" y="341"/>
      <point x="90" y="275"/>
      <point x="90" y="163" type="curve" smooth="yes"/>
      <point x="90" y="58"/>
      <point x="152" y="-8"/>
    </contour>
    <contour>
      <point x="243" y="121" type="curve" smooth="yes"/>
      <point x="223" y="121"/>
      <point x="214" y="138"/>
      <point x="214" y="167" type="curve" smooth="yes"/>
      <point x="214" y="196"/>
      <point x="223" y="212"/>
      <point x="243" y="212" type="curve" smooth="yes"/>
      <point x="263" y="212"/>
      <point x="272" y="198"/>
      <point x="272" y="167" type="curve" smooth="yes"/>
      <point x="272" y="137"/>
      <point x="263" y="121"/>
    </contour>
    <contour>
      <point x="446" y="-8" type="curve" smooth="yes"/>
      <point x="530" y="-8"/>
      <point x="590" y="60"/>
      <point x="590" y="166" type="curve" smooth="yes"/>
      <point x="590" y="275"/>
      <point x="532" y="341"/>
      <point x="445" y="341" type="curve" smooth="yes"/>
      <point x="361" y="341"/>
      <point x="303" y="270"/>
      <point x="303" y="167" type="curve" smooth="yes"/>
      <point x="303" y="67"/>
      <point x="361" y="-8"/>
    </contour>
    <contour>
      <point x="437" y="121" type="curve" smooth="yes"/>
      <point x="417" y="121"/>
      <point x="408" y="137"/>
      <point x="408" y="167" type="curve" smooth="yes"/>
      <point x="408" y="198"/>
      <point x="417" y="212"/>
      <point x="437" y="212" type="curve" smooth="yes"/>
      <point x="457" y="212"/>
      <point x="466" y="196"/>
      <point x="466" y="167" type="curve" smooth="yes"/>
      <point x="466" y="138"/>
      <point x="457" y="121"/>
    </contour>
    <contour>
      <point x="170" y="150" type="curve"/>
      <point x="224" y="242" type="line"/>
      <point x="196" y="262"/>
      <point x="182" y="286"/>
      <point x="182" y="308" type="curve" smooth="yes"/>
      <point x="182" y="345"/>
      <point x="224" y="367"/>
      <point x="278" y="367" type="curve" smooth="yes"/>
      <point x="330" y="367"/>
      <point x="386" y="347"/>
      <point x="386" y="306" type="curve"/>
      <point x="365" y="323" type="line"/>
      <point x="509" y="508" type="line"/>
      <point x="492" y="413" type="line"/>
      <point x="449" y="482"/>
      <point x="347" y="517"/>
      <point x="258" y="517" type="curve" smooth="yes"/>
      <point x="125" y="517"/>
      <point x="22" y="439"/>
      <point x="22" y="329" type="curve" smooth="yes"/>
      <point x="22" y="257"/>
      <point x="67" y="191"/>
    </contour>
  </outline>
</glyph>
<glyph name="ja-oriya.base.REV_BRACKET.141" format="2">
  <advance width="791"/>
  <anchor x="524" y="110" name="bottom"/>
  <anchor x="390" y="658" name="top"/>
  <anchor x="619" y="658" name="topright"/>
  <outline>
    <contour>
      <point x="302" y="71" type="curve"/>
      <point x="302" y="71" type="line"/>
      <point x="339.429" y="71"/>
      <point x="381.923" y="76.065"/>
      <point x="423.327" y="88.658" type="curve"/>
      <point x="414.056" y="150.621"/>
      <point x="409" y="199.524"/>
      <point x="409" y="240" type="curve"/>
      <point x="409" y="270"/>
      <point x="411" y="292"/>
      <point x="427" y="292" type="curve"/>
      <point x="443" y="292"/>
      <point x="442" y="269"/>
      <point x="442" y="261" type="curve"/>
      <point x="442" y="76" type="line"/>
      <point x="605" y="76" type="line"/>
      <point x="605" y="280" type="line" smooth="yes"/>
      <point x="605" y="356"/>
      <point x="547" y="405"/>
      <point x="443" y="405" type="curve"/>
      <point x="321" y="405"/>
      <point x="263" y="338"/>
      <point x="263" y="242" type="curve"/>
      <point x="263" y="211"/>
      <point x="269" y="171"/>
      <point x="283" y="130" type="curve"/>
      <point x="328" y="186" type="line"/>
      <point x="317" y="182"/>
      <point x="304" y="181"/>
      <point x="297" y="181" type="curve"/>
      <point x="264" y="181"/>
      <point x="234" y="207"/>
      <point x="234" y="245" type="curve"/>
      <point x="234" y="284"/>
      <point x="265" y="342"/>
      <point x="337" y="384" type="curve"/>
      <point x="284" y="465" type="line"/>
      <point x="159" y="412"/>
      <point x="98" y="339"/>
      <point x="98" y="238" type="curve"/>
      <point x="98" y="118"/>
      <point x="185" y="71"/>
    </contour>
    <contour>
      <point x="169" y="228" type="curve"/>
      <point x="169" y="228" type="line"/>
      <point x="227" y="326" type="line"/>
      <point x="199" y="344"/>
      <point x="182" y="382"/>
      <point x="182" y="413" type="curve"/>
      <point x="182" y="481"/>
      <point x="260" y="521"/>
      <point x="392" y="521" type="curve"/>
      <point x="522" y="521"/>
      <point x="599" y="482"/>
      <point x="599" y="415" type="curve"/>
      <point x="599" y="401.443"/>
      <point x="595.784" y="385.589"/>
      <point x="590.597" y="374.601" type="curve"/>
      <point x="747.793" y="323.13" type="line"/>
      <point x="760.686" y="349.619"/>
      <point x="769" y="380.246"/>
      <point x="769" y="418" type="curve"/>
      <point x="769" y="572"/>
      <point x="629" y="666"/>
      <point x="389" y="666" type="curve"/>
      <point x="158" y="666"/>
      <point x="22" y="578"/>
      <point x="22" y="435" type="curve"/>
      <point x="22" y="354"/>
      <point x="66" y="284"/>
    </contour>
  </outline>
</glyph>
<glyph name="ja_ja-oriya" format="2">
  <advance width="791"/>
  <note>
jajaorya
</note>
  <guideline x="605" y="177" angle="90"/>
  <guideline x="675" y="177" angle="90"/>
  <anchor x="390" y="658" name="top"/>
  <anchor x="619" y="658" name="topright"/>
  <outline>
    <contour>
      <point x="169" y="228" type="curve"/>
      <point x="227" y="326" type="line"/>
      <point x="199" y="344"/>
      <point x="182" y="382"/>
      <point x="182" y="413" type="curve" smooth="yes"/>
      <point x="182" y="481"/>
      <point x="260" y="521"/>
      <point x="392" y="521" type="curve" smooth="yes"/>
      <point x="522" y="521"/>
      <point x="599" y="482"/>
      <point x="599" y="415" type="curve" smooth="yes"/>
      <point x="599" y="395"/>
      <point x="592" y="370"/>
      <point x="582" y="363" type="curve"/>
      <point x="568" y="382" type="line"/>
      <point x="794" y="308" type="line"/>
      <point x="721" y="280" type="line"/>
      <point x="748" y="316"/>
      <point x="769" y="358"/>
      <point x="769" y="415" type="curve" smooth="yes"/>
      <point x="769" y="573"/>
      <point x="628" y="666"/>
      <point x="389" y="666" type="curve" smooth="yes"/>
      <point x="158" y="666"/>
      <point x="22" y="579"/>
      <point x="22" y="431" type="curve" smooth="yes"/>
      <point x="22" y="355"/>
      <point x="66" y="284"/>
    </contour>
    <contour>
      <point x="412" y="-168" type="curve" smooth="yes"/>
      <point x="448" y="-168"/>
      <point x="509" y="-163"/>
      <point x="565" y="-146" type="curve"/>
      <point x="544" y="-200" type="line"/>
      <point x="533" y="-155"/>
      <point x="518" y="-89"/>
      <point x="518" y="-23" type="curve" smooth="yes"/>
      <point x="518" y="6"/>
      <point x="521" y="22"/>
      <point x="536" y="22" type="curve" smooth="yes"/>
      <point x="550" y="22"/>
      <point x="550" y="6"/>
      <point x="550" y="-1" type="curve" smooth="yes"/>
      <point x="550" y="-164" type="line"/>
      <point x="674" y="-164" type="line"/>
      <point x="674" y="13" type="line" smooth="yes"/>
      <point x="674" y="75"/>
      <point x="630" y="116"/>
      <point x="542" y="116" type="curve" smooth="yes"/>
      <point x="438" y="116"/>
      <point x="393" y="58"/>
      <point x="393" y="-19" type="curve" smooth="yes"/>
      <point x="393" y="-54"/>
      <point x="402" y="-89"/>
      <point x="414" y="-121" type="curve"/>
      <point x="434" y="-68" type="line"/>
      <point x="422" y="-72"/>
      <point x="412" y="-74"/>
      <point x="403" y="-74" type="curve" smooth="yes"/>
      <point x="373" y="-74"/>
      <point x="353" y="-53"/>
      <point x="353" y="-15" type="curve" smooth="yes"/>
      <point x="353" y="25"/>
      <point x="375" y="55"/>
      <point x="423" y="89" type="curve"/>
      <point x="324" y="133" type="line"/>
      <point x="264" y="90"/>
      <point x="229" y="32"/>
      <point x="229" y="-28" type="curve" smooth="yes"/>
      <point x="229" y="-102"/>
      <point x="282" y="-168"/>
    </contour>
    <contour>
      <point x="309" y="71" type="curve" smooth="yes"/>
      <point x="344" y="71"/>
      <point x="397" y="78"/>
      <point x="445" y="96" type="curve"/>
      <point x="434" y="22" type="line"/>
      <point x="418" y="117"/>
      <point x="409" y="186"/>
      <point x="409" y="240" type="curve" smooth="yes"/>
      <point x="409" y="270"/>
      <point x="411" y="292"/>
      <point x="427" y="292" type="curve" smooth="yes"/>
      <point x="443" y="292"/>
      <point x="442" y="269"/>
      <point x="442" y="261" type="curve" smooth="yes"/>
      <point x="442" y="76" type="line"/>
      <point x="605" y="76" type="line"/>
      <point x="605" y="280" type="line" smooth="yes"/>
      <point x="605" y="356"/>
      <point x="550" y="405"/>
      <point x="444" y="405" type="curve" smooth="yes"/>
      <point x="343" y="405"/>
      <point x="283" y="338"/>
      <point x="283" y="241" type="curve" smooth="yes"/>
      <point x="283" y="211"/>
      <point x="289" y="171"/>
      <point x="303" y="130" type="curve"/>
      <point x="328" y="186" type="line"/>
      <point x="317" y="182"/>
      <point x="304" y="181"/>
      <point x="297" y="181" type="curve" smooth="yes"/>
      <point x="264" y="181"/>
      <point x="244" y="208"/>
      <point x="244" y="243" type="curve" smooth="yes"/>
      <point x="244" y="286"/>
      <point x="269" y="340"/>
      <point x="337" y="384" type="curve"/>
      <point x="284" y="465" type="line"/>
      <point x="159" y="412"/>
      <point x="98" y="340"/>
      <point x="98" y="235" type="curve" smooth="yes"/>
      <point x="98" y="118"/>
      <point x="185" y="71"/>
    </contour>
  </outline>
</glyph>
<glyph name="ja_ja_va-oriya" format="2">
  <advance width="901"/>
  <guideline x="640" y="-99" angle="0"/>
  <guideline x="605" y="177" angle="90"/>
  <guideline x="675" y="177" angle="90"/>
  <anchor x="390" y="658" name="top"/>
  <anchor x="619" y="658" name="topright"/>
  <outline>
    <contour>
      <point x="725" y="-244" type="line"/>
      <point x="875" y="-244" type="line"/>
      <point x="875" y="60" type="line"/>
      <point x="725" y="60" type="line"/>
      <point x="725" y="-183" type="line"/>
      <point x="734" y="-192" type="line"/>
    </contour>
    <contour>
      <point x="557" y="-77" type="line" smooth="yes"/>
      <point x="557" y="-92"/>
      <point x="557" y="-204"/>
      <point x="679" y="-204" type="curve" smooth="yes"/>
      <point x="755" y="-204"/>
      <point x="828" y="-161"/>
      <point x="828" y="-55" type="curve"/>
      <point x="746" y="-46" type="line"/>
      <point x="746" y="-85"/>
      <point x="724" y="-110"/>
      <point x="703" y="-110" type="curve" smooth="yes"/>
      <point x="690" y="-110"/>
      <point x="675" y="-100"/>
      <point x="675" y="-69" type="curve" smooth="yes"/>
      <point x="675" y="13" type="line" smooth="yes"/>
      <point x="675" y="75"/>
      <point x="633" y="116"/>
      <point x="549" y="116" type="curve" smooth="yes"/>
      <point x="447" y="116"/>
      <point x="404" y="58"/>
      <point x="404" y="-21" type="curve" smooth="yes"/>
      <point x="404" y="-52"/>
      <point x="412" y="-88"/>
      <point x="424" y="-121" type="curve"/>
      <point x="443" y="-68" type="line"/>
      <point x="433" y="-72"/>
      <point x="423" y="-74"/>
      <point x="414" y="-74" type="curve" smooth="yes"/>
      <point x="384" y="-74"/>
      <point x="370" y="-51"/>
      <point x="370" y="-22" type="curve" smooth="yes"/>
      <point x="370" y="14"/>
      <point x="390" y="60"/>
      <point x="423" y="89" type="curve"/>
      <point x="327" y="119" type="line"/>
      <point x="274" y="77"/>
      <point x="248" y="23"/>
      <point x="248" y="-28" type="curve" smooth="yes"/>
      <point x="248" y="-102"/>
      <point x="300" y="-168"/>
      <point x="422" y="-168" type="curve" smooth="yes"/>
      <point x="456" y="-168"/>
      <point x="513" y="-164"/>
      <point x="571" y="-146" type="curve"/>
      <point x="551" y="-200" type="line"/>
      <point x="540" y="-155"/>
      <point x="526" y="-86"/>
      <point x="526" y="-25" type="curve" smooth="yes"/>
      <point x="526" y="7"/>
      <point x="529" y="22"/>
      <point x="543" y="22" type="curve" smooth="yes"/>
      <point x="556" y="22"/>
      <point x="557" y="9"/>
      <point x="557" y="-1" type="curve" smooth="yes"/>
    </contour>
    <contour>
      <point x="309" y="71" type="curve" smooth="yes"/>
      <point x="344" y="71"/>
      <point x="397" y="78"/>
      <point x="445" y="96" type="curve"/>
      <point x="434" y="22" type="line"/>
      <point x="418" y="117"/>
      <point x="409" y="186"/>
      <point x="409" y="240" type="curve" smooth="yes"/>
      <point x="409" y="270"/>
      <point x="411" y="292"/>
      <point x="427" y="292" type="curve" smooth="yes"/>
      <point x="443" y="292"/>
      <point x="442" y="269"/>
      <point x="442" y="261" type="curve" smooth="yes"/>
      <point x="442" y="76" type="line"/>
      <point x="605" y="76" type="line"/>
      <point x="605" y="280" type="line" smooth="yes"/>
      <point x="605" y="356"/>
      <point x="550" y="405"/>
      <point x="444" y="405" type="curve" smooth="yes"/>
      <point x="343" y="405"/>
      <point x="283" y="338"/>
      <point x="283" y="241" type="curve" smooth="yes"/>
      <point x="283" y="211"/>
      <point x="289" y="171"/>
      <point x="303" y="130" type="curve"/>
      <point x="328" y="186" type="line"/>
      <point x="317" y="182"/>
      <point x="304" y="181"/>
      <point x="297" y="181" type="curve" smooth="yes"/>
      <point x="264" y="181"/>
      <point x="244" y="208"/>
      <point x="244" y="243" type="curve" smooth="yes"/>
      <point x="244" y="286"/>
      <point x="269" y="340"/>
      <point x="337" y="384" type="curve"/>
      <point x="284" y="465" type="line"/>
      <point x="159" y="412"/>
      <point x="98" y="340"/>
      <point x="98" y="235" type="curve" smooth="yes"/>
      <point x="98" y="118"/>
      <point x="185" y="71"/>
    </contour>
    <contour>
      <point x="169" y="228" type="curve"/>
      <point x="227" y="326" type="line"/>
      <point x="199" y="344"/>
      <point x="182" y="382"/>
      <point x="182" y="413" type="curve" smooth="yes"/>
      <point x="182" y="481"/>
      <point x="260" y="521"/>
      <point x="392" y="521" type="curve" smooth="yes"/>
      <point x="522" y="521"/>
      <point x="599" y="482"/>
      <point x="599" y="415" type="curve" smooth="yes"/>
      <point x="599" y="395"/>
      <point x="592" y="370"/>
      <point x="582" y="363" type="curve"/>
      <point x="568" y="382" type="line"/>
      <point x="794" y="308" type="line"/>
      <point x="721" y="280" type="line"/>
      <point x="748" y="316"/>
      <point x="769" y="358"/>
      <point x="769" y="415" type="curve" smooth="yes"/>
      <point x="769" y="573"/>
      <point x="628" y="666"/>
      <point x="389" y="666" type="curve" smooth="yes"/>
      <point x="158" y="666"/>
      <point x="22" y="579"/>
      <point x="22" y="431" type="curve" smooth="yes"/>
      <point x="22" y="355"/>
      <point x="66" y="284"/>
    </contour>
  </outline>
</glyph>
<glyph name="ja_ra-oriya" format="2">
  <advance width="815"/>
  <guideline x="95" y="128" angle="90"/>
  <anchor x="398" y="658" name="top"/>
  <anchor x="643" y="658" name="topright"/>
  <outline>
    <contour>
      <point x="173" y="170" type="curve"/>
      <point x="233" y="282" type="line"/>
      <point x="204" y="302"/>
      <point x="187" y="344"/>
      <point x="187" y="379" type="curve" smooth="yes"/>
      <point x="187" y="464"/>
      <point x="287" y="506"/>
      <point x="399" y="506" type="curve" smooth="yes"/>
      <point x="506" y="506"/>
      <point x="618" y="465"/>
      <point x="618" y="382" type="curve" smooth="yes"/>
      <point x="618" y="348"/>
      <point x="602" y="314"/>
      <point x="578" y="288" type="curve"/>
      <point x="539" y="360" type="line"/>
      <point x="843" y="253" type="line"/>
      <point x="741" y="232" type="line"/>
      <point x="776" y="275"/>
      <point x="793" y="324"/>
      <point x="793" y="380" type="curve" smooth="yes"/>
      <point x="793" y="570"/>
      <point x="594" y="666"/>
      <point x="398" y="666" type="curve" smooth="yes"/>
      <point x="205" y="666"/>
      <point x="22" y="573"/>
      <point x="22" y="399" type="curve" smooth="yes"/>
      <point x="22" y="313"/>
      <point x="67" y="233"/>
    </contour>
    <contour>
      <point x="93" y="-200" type="line"/>
      <point x="629" y="-200" type="line"/>
      <point x="629" y="229" type="line" smooth="yes"/>
      <point x="629" y="326"/>
      <point x="575" y="370"/>
      <point x="471" y="370" type="curve" smooth="yes"/>
      <point x="346" y="370"/>
      <point x="291" y="289"/>
      <point x="291" y="181" type="curve" smooth="yes"/>
      <point x="291" y="142"/>
      <point x="298" y="99"/>
      <point x="312" y="56" type="curve"/>
      <point x="339" y="125" type="line"/>
      <point x="326" y="120"/>
      <point x="312" y="118"/>
      <point x="303" y="118" type="curve" smooth="yes"/>
      <point x="270" y="118"/>
      <point x="249" y="146"/>
      <point x="249" y="188" type="curve" smooth="yes"/>
      <point x="249" y="249"/>
      <point x="290" y="325"/>
      <point x="432" y="396" type="curve"/>
      <point x="386" y="287" type="line"/>
      <point x="258" y="500" type="line"/>
      <point x="358" y="464" type="line"/>
      <point x="186" y="406"/>
      <point x="95" y="314"/>
      <point x="95" y="179" type="curve" smooth="yes"/>
      <point x="95" y="49"/>
      <point x="187" y="-8"/>
      <point x="309" y="-8" type="curve" smooth="yes"/>
      <point x="364" y="-8"/>
      <point x="426" y="4"/>
      <point x="488" y="26" type="curve"/>
      <point x="451" y="-47" type="line"/>
      <point x="439" y="11"/>
      <point x="425" y="106"/>
      <point x="425" y="174" type="curve" smooth="yes"/>
      <point x="425" y="226"/>
      <point x="430" y="242"/>
      <point x="444" y="242" type="curve" smooth="yes"/>
      <point x="458" y="242"/>
      <point x="459" y="230"/>
      <point x="459" y="208" type="curve" smooth="yes"/>
      <point x="459" y="-60" type="line"/>
      <point x="93" y="-60" type="line"/>
    </contour>
  </outline>
</glyph>
<glyph name="ja_va-oriya" format="2">
  <advance width="791"/>
  <anchor x="390" y="658" name="top"/>
  <anchor x="619" y="658" name="topright"/>
  <outline>
    <contour>
      <point x="169" y="228" type="curve"/>
      <point x="227" y="326" type="line"/>
      <point x="199" y="344"/>
      <point x="182" y="382"/>
      <point x="182" y="413" type="curve" smooth="yes"/>
      <point x="182" y="481"/>
      <point x="260" y="521"/>
      <point x="392" y="521" type="curve" smooth="yes"/>
      <point x="522" y="521"/>
      <point x="599" y="482"/>
      <point x="599" y="415" type="curve" smooth="yes"/>
      <point x="599" y="395"/>
      <point x="592" y="370"/>
      <point x="582" y="363" type="curve"/>
      <point x="568" y="382" type="line"/>
      <point x="794" y="308" type="line"/>
      <point x="721" y="280" type="line"/>
      <point x="748" y="316"/>
      <point x="769" y="358"/>
      <point x="769" y="415" type="curve" smooth="yes"/>
      <point x="769" y="573"/>
      <point x="628" y="666"/>
      <point x="389" y="666" type="curve" smooth="yes"/>
      <point x="158" y="666"/>
      <point x="22" y="579"/>
      <point x="22" y="431" type="curve" smooth="yes"/>
      <point x="22" y="355"/>
      <point x="66" y="284"/>
    </contour>
    <contour>
      <point x="372" y="-207" type="curve" smooth="yes"/>
      <point x="457" y="-207"/>
      <point x="542" y="-156"/>
      <point x="542" y="-50" type="curve"/>
      <point x="459" y="-36" type="line"/>
      <point x="459" y="-74"/>
      <point x="433" y="-100"/>
      <point x="400" y="-100" type="curve" smooth="yes"/>
      <point x="370" y="-100"/>
      <point x="359" y="-80"/>
      <point x="359" y="-53" type="curve" smooth="yes"/>
      <point x="359" y="-27"/>
      <point x="367" y="4"/>
      <point x="381" y="35" type="curve"/>
      <point x="408" y="-4" type="line"/>
      <point x="226" y="23" type="line"/>
      <point x="259" y="49" type="line"/>
      <point x="239" y="13"/>
      <point x="229" y="-26"/>
      <point x="229" y="-63" type="curve" smooth="yes"/>
      <point x="229" y="-141"/>
      <point x="276" y="-207"/>
    </contour>
    <contour>
      <point x="605" y="-244" type="line"/>
      <point x="605" y="280" type="line" smooth="yes"/>
      <point x="605" y="356"/>
      <point x="550" y="405"/>
      <point x="444" y="405" type="curve" smooth="yes"/>
      <point x="343" y="405"/>
      <point x="283" y="338"/>
      <point x="283" y="241" type="curve" smooth="yes"/>
      <point x="283" y="211"/>
      <point x="289" y="171"/>
      <point x="303" y="130" type="curve"/>
      <point x="328" y="186" type="line"/>
      <point x="317" y="182"/>
      <point x="304" y="181"/>
      <point x="297" y="181" type="curve" smooth="yes"/>
      <point x="264" y="181"/>
      <point x="244" y="208"/>
      <point x="244" y="243" type="curve" smooth="yes"/>
      <point x="244" y="286"/>
      <point x="269" y="340"/>
      <point x="337" y="384" type="curve"/>
      <point x="284" y="465" type="line"/>
      <point x="159" y="412"/>
      <point x="98" y="340"/>
      <point x="98" y="235" type="curve" smooth="yes"/>
      <point x="98" y="118"/>
      <point x="185" y="71"/>
      <point x="309" y="71" type="curve" smooth="yes"/>
      <point x="344" y="71"/>
      <point x="397" y="78"/>
      <point x="445" y="96" type="curve"/>
      <point x="434" y="22" type="line"/>
      <point x="418" y="117"/>
      <point x="409" y="186"/>
      <point x="409" y="240" type="curve" smooth="yes"/>
      <point x="409" y="270"/>
      <point x="411" y="292"/>
      <point x="427" y="292" type="curve" smooth="yes"/>
      <point x="443" y="292"/>
      <point x="442" y="269"/>
      <point x="442" y="261" type="curve" smooth="yes"/>
      <point x="442" y="-141" type="line"/>
      <point x="452" y="-150" type="line"/>
      <point x="442" y="-244" type="line"/>
    </contour>
  </outline>
</glyph>
<glyph name="jha-oriya.base" format="2">
  <advance width="713"/>
  <guideline x="707" y="526" angle="90"/>
  <anchor x="442" y="110" name="bottom"/>
  <anchor x="366" y="658" name="top"/>
  <anchor x="557" y="658" name="topright"/>
  <outline>
    <contour>
      <point x="168" y="227" type="curve"/>
      <point x="229" y="326" type="line"/>
      <point x="199" y="357"/>
      <point x="184" y="385"/>
      <point x="184" y="416" type="curve" smooth="yes"/>
      <point x="184" y="469"/>
      <point x="229" y="516"/>
      <point x="355" y="516" type="curve" smooth="yes"/>
      <point x="379" y="516"/>
      <point x="411" y="513"/>
      <point x="422" y="509" type="curve"/>
      <point x="399" y="666" type="line"/>
      <point x="394" y="666"/>
      <point x="378" y="666"/>
      <point x="371" y="666" type="curve" smooth="yes"/>
      <point x="151" y="666"/>
      <point x="22" y="578"/>
      <point x="22" y="435" type="curve" smooth="yes"/>
      <point x="22" y="343"/>
      <point x="76" y="280"/>
    </contour>
    <contour>
      <point x="629" y="38" type="line"/>
      <point x="712" y="232" type="line"/>
      <point x="796" y="186" type="line"/>
      <point x="482" y="286" type="line"/>
      <point x="455" y="146" type="line"/>
      <point x="694" y="55" type="line"/>
    </contour>
    <contour>
      <point x="518" y="388" type="curve" smooth="yes"/>
      <point x="647" y="388"/>
      <point x="707" y="454"/>
      <point x="707" y="526" type="curve" smooth="yes"/>
      <point x="707" y="589"/>
      <point x="662" y="656"/>
      <point x="579" y="691" type="curve"/>
      <point x="640" y="680" type="line"/>
      <point x="516" y="568" type="line"/>
      <point x="531" y="626" type="line"/>
      <point x="535" y="619"/>
      <point x="564" y="582"/>
      <point x="564" y="553" type="curve" smooth="yes"/>
      <point x="564" y="524"/>
      <point x="538" y="510"/>
      <point x="513" y="510" type="curve" smooth="yes"/>
      <point x="488" y="510"/>
      <point x="464" y="523"/>
      <point x="464" y="550" type="curve" smooth="yes"/>
      <point x="464" y="561"/>
      <point x="467" y="577"/>
      <point x="478" y="598" type="curve"/>
      <point x="399" y="666" type="line"/>
      <point x="349" y="634"/>
      <point x="319" y="581"/>
      <point x="319" y="529" type="curve" smooth="yes"/>
      <point x="319" y="457"/>
      <point x="378" y="388"/>
    </contour>
    <contour>
      <point x="316" y="70" type="curve" smooth="yes"/>
      <point x="422" y="70"/>
      <point x="518" y="125"/>
      <point x="518" y="238" type="curve" smooth="yes"/>
      <point x="518" y="350"/>
      <point x="422" y="406"/>
      <point x="317" y="406" type="curve" smooth="yes"/>
      <point x="211" y="406"/>
      <point x="114" y="350"/>
      <point x="114" y="237" type="curve" smooth="yes"/>
      <point x="114" y="125"/>
      <point x="211" y="70"/>
    </contour>
    <contour>
      <point x="316" y="194" type="curve" smooth="yes"/>
      <point x="285" y="194"/>
      <point x="266" y="210"/>
      <point x="266" y="237" type="curve" smooth="yes"/>
      <point x="266" y="265"/>
      <point x="285" y="282"/>
      <point x="316" y="282" type="curve" smooth="yes"/>
      <point x="347" y="282"/>
      <point x="366" y="265"/>
      <point x="366" y="237" type="curve" smooth="yes"/>
      <point x="366" y="210"/>
      <point x="347" y="194"/>
    </contour>
  </outline>
</glyph>
<glyph name="jha-oriya.below" format="2">
  <note>
jhasubscriptorya
</note>
  <guideline x="216" y="155" angle="90"/>
  <anchor x="185" y="110" name="_bottom"/>
  <outline>
    <contour>
      <point x="101" y="-152" type="curve"/>
      <point x="151" y="-90" type="line"/>
      <point x="130" y="-72"/>
      <point x="122" y="-56"/>
      <point x="122" y="-40" type="curve" smooth="yes"/>
      <point x="122" y="3"/>
      <point x="158" y="26"/>
      <point x="212" y="26" type="curve" smooth="yes"/>
      <point x="237" y="26"/>
      <point x="255" y="26"/>
      <point x="272" y="26" type="curve"/>
      <point x="243" y="116" type="line"/>
      <point x="238" y="116"/>
      <point x="223" y="116"/>
      <point x="212" y="116" type="curve" smooth="yes"/>
      <point x="81" y="116"/>
      <point x="12" y="60"/>
      <point x="12" y="-25" type="curve" smooth="yes"/>
      <point x="12" y="-80"/>
      <point x="44" y="-119"/>
    </contour>
    <contour>
      <point x="378" y="-270" type="line"/>
      <point x="428" y="-151" type="line"/>
      <point x="478" y="-179" type="line"/>
      <point x="307" y="-125" type="line"/>
      <point x="271" y="-204" type="line"/>
      <point x="416" y="-260" type="line"/>
    </contour>
    <contour>
      <point x="310" y="-56" type="curve" smooth="yes"/>
      <point x="372" y="-56"/>
      <point x="420" y="-26"/>
      <point x="420" y="31" type="curve" smooth="yes"/>
      <point x="420" y="70"/>
      <point x="390" y="108"/>
      <point x="356" y="126" type="curve"/>
      <point x="381" y="125" type="line"/>
      <point x="305" y="50" type="line"/>
      <point x="307" y="93" type="line"/>
      <point x="323" y="80"/>
      <point x="336" y="65"/>
      <point x="336" y="47" type="curve" smooth="yes"/>
      <point x="336" y="29"/>
      <point x="321" y="20"/>
      <point x="308" y="20" type="curve" smooth="yes"/>
      <point x="295" y="20"/>
      <point x="280" y="29"/>
      <point x="280" y="47" type="curve" smooth="yes"/>
      <point x="280" y="54"/>
      <point x="282" y="63"/>
      <point x="288" y="74" type="curve"/>
      <point x="243" y="116" type="line"/>
      <point x="222" y="104"/>
      <point x="196" y="73"/>
      <point x="196" y="36" type="curve" smooth="yes"/>
      <point x="196" y="-25"/>
      <point x="243" y="-56"/>
    </contour>
    <contour>
      <point x="190" y="-248" type="curve" smooth="yes"/>
      <point x="262" y="-248"/>
      <point x="311" y="-207"/>
      <point x="311" y="-145" type="curve" smooth="yes"/>
      <point x="311" y="-83"/>
      <point x="262" y="-42"/>
      <point x="190" y="-42" type="curve" smooth="yes"/>
      <point x="117" y="-42"/>
      <point x="68" y="-83"/>
      <point x="68" y="-145" type="curve" smooth="yes"/>
      <point x="68" y="-207"/>
      <point x="117" y="-248"/>
    </contour>
    <contour>
      <point x="190" y="-172" type="curve" smooth="yes"/>
      <point x="169" y="-172"/>
      <point x="156" y="-161"/>
      <point x="156" y="-145" type="curve" smooth="yes"/>
      <point x="156" y="-129"/>
      <point x="169" y="-118"/>
      <point x="190" y="-118" type="curve" smooth="yes"/>
      <point x="211" y="-118"/>
      <point x="223" y="-129"/>
      <point x="223" y="-145" type="curve" smooth="yes"/>
      <point x="223" y="-161"/>
      <point x="211" y="-172"/>
    </contour>
  </outline>
</glyph>
<glyph name="ka-oriya.REV_BRACKET.141" format="2">
  <advance width="815"/>
  <note>
kaorya
</note>
  <anchor x="459" y="0" name="bottom"/>
  <anchor x="629" y="0" name="bottom_ra"/>
  <anchor x="629" y="10" name="bottom_ta"/>
  <anchor x="398" y="658" name="top"/>
  <anchor x="643" y="658" name="topright"/>
  <outline>
    <contour>
      <point x="173" y="170" type="curve"/>
      <point x="233" y="282" type="line"/>
      <point x="204" y="302"/>
      <point x="187" y="344"/>
      <point x="187" y="379" type="curve" smooth="yes"/>
      <point x="187" y="464"/>
      <point x="287" y="506"/>
      <point x="399" y="506" type="curve" smooth="yes"/>
      <point x="506" y="506"/>
      <point x="618" y="465"/>
      <point x="618" y="382" type="curve" smooth="yes"/>
      <point x="618" y="348"/>
      <point x="602" y="314"/>
      <point x="578" y="288" type="curve"/>
      <point x="539" y="360" type="line"/>
      <point x="843" y="253" type="line"/>
      <point x="741" y="232" type="line"/>
      <point x="776" y="275"/>
      <point x="793" y="324"/>
      <point x="793" y="380" type="curve" smooth="yes"/>
      <point x="793" y="570"/>
      <point x="594" y="666"/>
      <point x="398" y="666" type="curve" smooth="yes"/>
      <point x="205" y="666"/>
      <point x="22" y="573"/>
      <point x="22" y="399" type="curve" smooth="yes"/>
      <point x="22" y="313"/>
      <point x="67" y="233"/>
    </contour>
    <contour>
      <point x="253" y="56" type="curve" smooth="yes"/>
      <point x="350" y="56"/>
      <point x="409" y="117"/>
      <point x="409" y="213" type="curve" smooth="yes"/>
      <point x="409" y="310"/>
      <point x="351" y="370"/>
      <point x="255" y="370" type="curve" smooth="yes"/>
      <point x="157" y="370"/>
      <point x="101" y="308"/>
      <point x="101" y="208" type="curve" smooth="yes"/>
      <point x="101" y="115"/>
      <point x="156" y="56"/>
    </contour>
    <contour>
      <point x="255" y="184" type="curve" smooth="yes"/>
      <point x="239" y="184"/>
      <point x="231" y="197"/>
      <point x="231" y="213" type="curve" smooth="yes"/>
      <point x="231" y="229"/>
      <point x="239" y="242"/>
      <point x="255" y="242" type="curve" smooth="yes"/>
      <point x="271" y="242"/>
      <point x="279" y="229"/>
      <point x="279" y="213" type="curve" smooth="yes"/>
      <point x="279" y="197"/>
      <point x="271" y="184"/>
    </contour>
    <contour>
      <point x="259" y="0" type="line"/>
      <point x="429" y="0" type="line"/>
      <point x="429" y="212" type="line" smooth="yes"/>
      <point x="429" y="230"/>
      <point x="434" y="242"/>
      <point x="444" y="242" type="curve" smooth="yes"/>
      <point x="455" y="242"/>
      <point x="459" y="230"/>
      <point x="459" y="212" type="curve" smooth="yes"/>
      <point x="459" y="0" type="line"/>
      <point x="629" y="0" type="line"/>
      <point x="629" y="226" type="line" smooth="yes"/>
      <point x="629" y="313"/>
      <point x="589" y="370"/>
      <point x="478" y="370" type="curve" smooth="yes"/>
      <point x="388" y="370"/>
      <point x="338" y="313"/>
      <point x="338" y="226" type="curve"/>
      <point x="279" y="125" type="line"/>
    </contour>
  </outline>
</glyph>
<glyph name="ka_ra-oriya" format="2">
  <advance width="815"/>
  <guideline x="101" y="168" angle="90"/>
  <anchor x="398" y="658" name="top"/>
  <anchor x="643" y="658" name="topright"/>
  <outline>
    <contour>
      <point x="173" y="170" type="curve"/>
      <point x="233" y="282" type="line"/>
      <point x="204" y="302"/>
      <point x="187" y="344"/>
      <point x="187" y="379" type="curve" smooth="yes"/>
      <point x="187" y="464"/>
      <point x="287" y="506"/>
      <point x="399" y="506" type="curve" smooth="yes"/>
      <point x="506" y="506"/>
      <point x="618" y="465"/>
      <point x="618" y="382" type="curve" smooth="yes"/>
      <point x="618" y="348"/>
      <point x="602" y="314"/>
      <point x="578" y="288" type="curve"/>
      <point x="539" y="360" type="line"/>
      <point x="843" y="253" type="line"/>
      <point x="741" y="232" type="line"/>
      <point x="776" y="275"/>
      <point x="793" y="324"/>
      <point x="793" y="380" type="curve" smooth="yes"/>
      <point x="793" y="570"/>
      <point x="594" y="666"/>
      <point x="398" y="666" type="curve" smooth="yes"/>
      <point x="205" y="666"/>
      <point x="22" y="573"/>
      <point x="22" y="399" type="curve" smooth="yes"/>
      <point x="22" y="313"/>
      <point x="67" y="233"/>
    </contour>
    <contour>
      <point x="253" y="56" type="curve" smooth="yes"/>
      <point x="350" y="56"/>
      <point x="409" y="117"/>
      <point x="409" y="213" type="curve" smooth="yes"/>
      <point x="409" y="310"/>
      <point x="351" y="370"/>
      <point x="255" y="370" type="curve" smooth="yes"/>
      <point x="157" y="370"/>
      <point x="101" y="307"/>
      <point x="101" y="211" type="curve" smooth="yes"/>
      <point x="101" y="115"/>
      <point x="156" y="56"/>
    </contour>
    <contour>
      <point x="485" y="370" type="curve" smooth="yes"/>
      <point x="384" y="370"/>
      <point x="338" y="313"/>
      <point x="339" y="226" type="curve"/>
      <point x="299" y="125" type="line"/>
      <point x="279" y="0" type="line"/>
      <point x="429" y="0" type="line"/>
      <point x="429" y="214" type="line" smooth="yes"/>
      <point x="429" y="236"/>
      <point x="435" y="242"/>
      <point x="444" y="242" type="curve" smooth="yes"/>
      <point x="454" y="242"/>
      <point x="459" y="236"/>
      <point x="459" y="214" type="curve" smooth="yes"/>
      <point x="459" y="-60" type="line"/>
      <point x="92" y="-60" type="line"/>
      <point x="92" y="-200" type="line"/>
      <point x="629" y="-200" type="line"/>
      <point x="629" y="226" type="line" smooth="yes"/>
      <point x="629" y="253"/>
      <point x="629" y="370"/>
    </contour>
    <contour>
      <point x="256" y="174" type="curve" smooth="yes"/>
      <point x="235" y="174"/>
      <point x="223" y="192"/>
      <point x="223" y="213" type="curve" smooth="yes"/>
      <point x="223" y="234"/>
      <point x="235" y="252"/>
      <point x="256" y="252" type="curve" smooth="yes"/>
      <point x="278" y="252"/>
      <point x="289" y="234"/>
      <point x="289" y="213" type="curve" smooth="yes"/>
      <point x="289" y="192"/>
      <point x="278" y="174"/>
    </contour>
  </outline>
</glyph>
<glyph name="kara-oriya.REV_BRACKET.141" format="2">
  <advance width="815"/>
  <guideline x="101" y="168" angle="90"/>
  <anchor x="398" y="658" name="top"/>
  <anchor x="643" y="658" name="topright"/>
  <outline>
    <contour>
      <point x="173" y="170" type="curve"/>
      <point x="173" y="170" type="line"/>
      <point x="233" y="282" type="line"/>
      <point x="204" y="302"/>
      <point x="187" y="344"/>
      <point x="187" y="379" type="curve"/>
      <point x="187" y="464"/>
      <point x="287" y="506"/>
      <point x="399" y="506" type="curve"/>
      <point x="506" y="506"/>
      <point x="618" y="465"/>
      <point x="618" y="382" type="curve"/>
      <point x="618" y="366.248"/>
      <point x="614.566" y="350.497"/>
      <point x="608.493" y="335.54" type="curve"/>
      <point x="770.72" y="278.441" type="line"/>
      <point x="785.668" y="309.464"/>
      <point x="793" y="343.222"/>
      <point x="793" y="380" type="curve"/>
      <point x="793" y="570"/>
      <point x="594" y="666"/>
      <point x="398" y="666" type="curve"/>
      <point x="205" y="666"/>
      <point x="22" y="573"/>
      <point x="22" y="399" type="curve"/>
      <point x="22" y="313"/>
      <point x="67" y="233"/>
    </contour>
    <contour>
      <point x="253" y="56" type="curve"/>
      <point x="253" y="56" type="line"/>
      <point x="350" y="56"/>
      <point x="409" y="117"/>
      <point x="409" y="213" type="curve"/>
      <point x="409" y="310"/>
      <point x="351" y="370"/>
      <point x="255" y="370" type="curve"/>
      <point x="157" y="370"/>
      <point x="101" y="307"/>
      <point x="101" y="211" type="curve"/>
      <point x="101" y="115"/>
      <point x="156" y="56"/>
    </contour>
    <contour>
      <point x="485" y="370" type="curve"/>
      <point x="485" y="370" type="line"/>
      <point x="384" y="370"/>
      <point x="338" y="313"/>
      <point x="339" y="226" type="curve"/>
      <point x="279" y="125" type="line"/>
      <point x="259" y="0" type="line"/>
      <point x="429" y="0" type="line"/>
      <point x="429" y="214" type="line" smooth="yes"/>
      <point x="429" y="236"/>
      <point x="435" y="242"/>
      <point x="444" y="242" type="curve"/>
      <point x="454" y="242"/>
      <point x="459" y="236"/>
      <point x="459" y="214" type="curve"/>
      <point x="459" y="-60" type="line"/>
      <point x="92" y="-60" type="line"/>
      <point x="92" y="-200" type="line"/>
      <point x="629" y="-200" type="line"/>
      <point x="629" y="226" type="line" smooth="yes"/>
      <point x="629" y="253"/>
      <point x="629" y="370"/>
    </contour>
    <contour>
      <point x="255" y="184" type="curve"/>
      <point x="255" y="184" type="line"/>
      <point x="239" y="184"/>
      <point x="231" y="197"/>
      <point x="231" y="213" type="curve"/>
      <point x="231" y="229"/>
      <point x="239" y="242"/>
      <point x="255" y="242" type="curve"/>
      <point x="271" y="242"/>
      <point x="279" y="229"/>
      <point x="279" y="213" type="curve"/>
      <point x="279" y="197"/>
      <point x="271" y="184"/>
    </contour>
  </outline>
</glyph>
<glyph name="lVocalicMatra-oriya.REV_BRACKET.141" format="2">
  <note>
lvocalicvowelsignorya
</note>
  <guideline x="392" y="-40" angle="0"/>
  <guideline x="392" y="-292" angle="0"/>
  <anchor x="306" y="0" name="_bottom"/>
  <outline>
    <contour>
      <point x="328" y="-221" type="curve"/>
      <point x="394" y="-210" type="line"/>
      <point x="389" y="-201"/>
      <point x="386" y="-192"/>
      <point x="386" y="-185" type="curve" smooth="yes"/>
      <point x="386" y="-176"/>
      <point x="391" y="-172"/>
      <point x="397" y="-172" type="curve" smooth="yes"/>
      <point x="401" y="-172"/>
      <point x="405" y="-174"/>
      <point x="405" y="-177" type="curve" smooth="yes"/>
      <point x="405" y="-183"/>
      <point x="376" y="-186"/>
      <point x="341" y="-186" type="curve" smooth="yes"/>
      <point x="289" y="-186"/>
      <point x="234" y="-179"/>
      <point x="234" y="-161" type="curve" smooth="yes"/>
      <point x="234" y="-148"/>
      <point x="262" y="-142"/>
      <point x="285" y="-139" type="curve" smooth="yes"/>
      <point x="306" y="-136" type="line" smooth="yes"/>
      <point x="350" y="-130"/>
      <point x="428" y="-117"/>
      <point x="428" y="-62" type="curve" smooth="yes"/>
      <point x="428" y="-17"/>
      <point x="376" y="0"/>
      <point x="314" y="0" type="curve" smooth="yes"/>
      <point x="271" y="0"/>
      <point x="225" y="-8"/>
      <point x="184" y="-20" type="curve"/>
      <point x="201" y="-81" type="line"/>
      <point x="216" y="-75"/>
      <point x="270" y="-62"/>
      <point x="294" y="-62" type="curve" smooth="yes"/>
      <point x="302" y="-62"/>
      <point x="306" y="-63"/>
      <point x="306" y="-66" type="curve" smooth="yes"/>
      <point x="306" y="-72"/>
      <point x="295" y="-73"/>
      <point x="290" y="-74" type="curve" smooth="yes"/>
      <point x="243" y="-82" type="line" smooth="yes"/>
      <point x="174" y="-94"/>
      <point x="112" y="-111"/>
      <point x="112" y="-161" type="curve" smooth="yes"/>
      <point x="112" y="-222"/>
      <point x="203" y="-248"/>
      <point x="322" y="-248" type="curve" smooth="yes"/>
      <point x="428" y="-248"/>
      <point x="487" y="-227"/>
      <point x="487" y="-179" type="curve" smooth="yes"/>
      <point x="487" y="-138"/>
      <point x="442" y="-123"/>
      <point x="400" y="-123" type="curve" smooth="yes"/>
      <point x="356" y="-123"/>
      <point x="316" y="-139"/>
      <point x="316" y="-180" type="curve" smooth="yes"/>
      <point x="316" y="-192"/>
      <point x="320" y="-206"/>
    </contour>
  </outline>
</glyph>
<glyph name="llVocalicMatra-oriya.REV_BRACKET.141" format="2">
  <note>
llvocalicvowelsignorya
</note>
  <anchor x="400" y="0" name="_bottom"/>
  <outline>
    <contour>
      <point x="206" y="-161" type="curve" smooth="yes"/>
      <point x="206" y="-222"/>
      <point x="298" y="-248"/>
      <point x="416" y="-248" type="curve" smooth="yes"/>
      <point x="522" y="-248"/>
      <point x="581" y="-227"/>
      <point x="581" y="-179" type="curve" smooth="yes"/>
      <point x="581" y="-138"/>
      <point x="536" y="-123"/>
      <point x="494" y="-123" type="curve" smooth="yes"/>
      <point x="444" y="-123"/>
      <point x="410" y="-144"/>
      <point x="410" y="-177" type="curve" smooth="yes"/>
      <point x="410" y="-193"/>
      <point x="421" y="-240"/>
      <point x="484" y="-292" type="curve"/>
      <point x="531" y="-252" type="line"/>
      <point x="485" y="-215"/>
      <point x="480" y="-191"/>
      <point x="480" y="-185" type="curve" smooth="yes"/>
      <point x="480" y="-176"/>
      <point x="485" y="-172"/>
      <point x="491" y="-172" type="curve" smooth="yes"/>
      <point x="495" y="-172"/>
      <point x="499" y="-174"/>
      <point x="499" y="-177" type="curve" smooth="yes"/>
      <point x="499" y="-183"/>
      <point x="471" y="-186"/>
      <point x="436" y="-186" type="curve" smooth="yes"/>
      <point x="383" y="-186"/>
      <point x="328" y="-179"/>
      <point x="328" y="-161" type="curve" smooth="yes"/>
      <point x="328" y="-148"/>
      <point x="356" y="-142"/>
      <point x="379" y="-139" type="curve" smooth="yes"/>
      <point x="400" y="-136" type="line" smooth="yes"/>
      <point x="444" y="-130"/>
      <point x="522" y="-117"/>
      <point x="522" y="-62" type="curve" smooth="yes"/>
      <point x="522" y="-17"/>
      <point x="470" y="0"/>
      <point x="408" y="0" type="curve" smooth="yes"/>
      <point x="365" y="0"/>
      <point x="319" y="-8"/>
      <point x="278" y="-20" type="curve"/>
      <point x="295" y="-81" type="line"/>
      <point x="310" y="-75"/>
      <point x="364" y="-62"/>
      <point x="390" y="-62" type="curve" smooth="yes"/>
      <point x="397" y="-62"/>
      <point x="400" y="-63"/>
      <point x="400" y="-66" type="curve" smooth="yes"/>
      <point x="400" y="-72"/>
      <point x="389" y="-73"/>
      <point x="384" y="-74" type="curve" smooth="yes"/>
      <point x="337" y="-82" type="line" smooth="yes"/>
      <point x="268" y="-94"/>
      <point x="206" y="-111"/>
    </contour>
  </outline>
</glyph>
<glyph name="ma-oriya.base" format="2">
  <advance width="770"/>
  <anchor x="640" y="110" name="bottom"/>
  <anchor x="724" y="86" name="bottom_ta"/>
  <anchor x="373" y="658" name="top"/>
  <anchor x="639" y="658" name="topright"/>
  <outline>
    <contour>
      <point x="169" y="219" type="curve"/>
      <point x="231" y="333" type="line"/>
      <point x="196" y="364"/>
      <point x="186" y="384"/>
      <point x="186" y="411" type="curve" smooth="yes"/>
      <point x="186" y="478"/>
      <point x="252" y="516"/>
      <point x="339" y="516" type="curve" smooth="yes"/>
      <point x="437" y="516"/>
      <point x="568" y="467"/>
      <point x="568" y="332" type="curve"/>
      <point x="710" y="290" type="line"/>
      <point x="710" y="532"/>
      <point x="559" y="666"/>
      <point x="335" y="666" type="curve" smooth="yes"/>
      <point x="134" y="666"/>
      <point x="22" y="558"/>
      <point x="22" y="426" type="curve" smooth="yes"/>
      <point x="22" y="348"/>
      <point x="61" y="273"/>
    </contour>
    <contour>
      <point x="206" y="72" type="curve" smooth="yes"/>
      <point x="260" y="72"/>
      <point x="309" y="102"/>
      <point x="309" y="158" type="curve" smooth="yes"/>
      <point x="309" y="213"/>
      <point x="264" y="250"/>
      <point x="202" y="250" type="curve" smooth="yes"/>
      <point x="147" y="250"/>
      <point x="111" y="221"/>
      <point x="111" y="168" type="curve"/>
      <point x="245" y="126" type="line"/>
      <point x="245" y="142"/>
      <point x="245" y="178"/>
      <point x="245" y="180" type="curve" smooth="yes"/>
      <point x="245" y="236"/>
      <point x="293" y="291"/>
      <point x="522" y="290" type="curve"/>
      <point x="456" y="270" type="line"/>
      <point x="429" y="443" type="line"/>
      <point x="472" y="413" type="line"/>
      <point x="272" y="415"/>
      <point x="95" y="323"/>
      <point x="95" y="182" type="curve" smooth="yes"/>
      <point x="95" y="103"/>
      <point x="151" y="72"/>
    </contour>
    <contour>
      <point x="554" y="76" type="line"/>
      <point x="724" y="76" type="line"/>
      <point x="724" y="658" type="line"/>
      <point x="554" y="658" type="line"/>
      <point x="564" y="558" type="line"/>
      <point x="554" y="486" type="line"/>
    </contour>
  </outline>
</glyph>
<glyph name="ma_ba-oriya" format="2">
  <advance width="770"/>
  <guideline x="453" y="31" angle="0"/>
  <anchor x="373" y="658" name="top"/>
  <anchor x="639" y="658" name="topright"/>
  <outline>
    <contour>
      <point x="169" y="219" type="curve"/>
      <point x="231" y="333" type="line"/>
      <point x="196" y="364"/>
      <point x="186" y="384"/>
      <point x="186" y="411" type="curve" smooth="yes"/>
      <point x="186" y="478"/>
      <point x="252" y="516"/>
      <point x="339" y="516" type="curve" smooth="yes"/>
      <point x="437" y="516"/>
      <point x="568" y="467"/>
      <point x="568" y="332" type="curve"/>
      <point x="710" y="290" type="line"/>
      <point x="710" y="532"/>
      <point x="559" y="666"/>
      <point x="335" y="666" type="curve" smooth="yes"/>
      <point x="134" y="666"/>
      <point x="22" y="558"/>
      <point x="22" y="426" type="curve" smooth="yes"/>
      <point x="22" y="348"/>
      <point x="61" y="273"/>
    </contour>
    <contour>
      <point x="206" y="72" type="curve" smooth="yes"/>
      <point x="260" y="72"/>
      <point x="309" y="102"/>
      <point x="309" y="158" type="curve" smooth="yes"/>
      <point x="309" y="213"/>
      <point x="264" y="250"/>
      <point x="202" y="250" type="curve" smooth="yes"/>
      <point x="147" y="250"/>
      <point x="111" y="221"/>
      <point x="111" y="168" type="curve"/>
      <point x="245" y="126" type="line"/>
      <point x="245" y="142"/>
      <point x="245" y="178"/>
      <point x="245" y="180" type="curve" smooth="yes"/>
      <point x="245" y="236"/>
      <point x="293" y="291"/>
      <point x="522" y="290" type="curve"/>
      <point x="456" y="270" type="line"/>
      <point x="429" y="443" type="line"/>
      <point x="472" y="413" type="line"/>
      <point x="272" y="415"/>
      <point x="95" y="323"/>
      <point x="95" y="182" type="curve" smooth="yes"/>
      <point x="95" y="103"/>
      <point x="151" y="72"/>
    </contour>
    <contour>
      <point x="484" y="-127" type="curve" smooth="yes"/>
      <point x="569" y="-127"/>
      <point x="654" y="-76"/>
      <point x="654" y="30" type="curve"/>
      <point x="571" y="44" type="line"/>
      <point x="571" y="6"/>
      <point x="545" y="-20"/>
      <point x="512" y="-20" type="curve" smooth="yes"/>
      <point x="482" y="-20"/>
      <point x="471" y="0"/>
      <point x="471" y="28" type="curve" smooth="yes"/>
      <point x="471" y="52"/>
      <point x="479" y="83"/>
      <point x="494" y="118" type="curve"/>
      <point x="516" y="84" type="line"/>
      <point x="347" y="114" type="line"/>
      <point x="371" y="129" type="line"/>
      <point x="351" y="93"/>
      <point x="341" y="54"/>
      <point x="341" y="17" type="curve" smooth="yes"/>
      <point x="341" y="-61"/>
      <point x="388" y="-127"/>
    </contour>
    <contour>
      <point x="724" y="-164" type="line"/>
      <point x="724" y="658" type="line"/>
      <point x="554" y="658" type="line"/>
      <point x="564" y="558" type="line"/>
      <point x="554" y="486" type="line"/>
      <point x="554" y="-61" type="line"/>
      <point x="564" y="-70" type="line"/>
      <point x="554" y="-164" type="line"/>
    </contour>
  </outline>
</glyph>
<glyph name="ma_ma-oriya" format="2">
  <advance width="810"/>
  <note>
mamaorya
</note>
  <guideline x="764" y="284" angle="90"/>
  <guideline x="834" y="284" angle="90"/>
  <guideline x="583" y="196" angle="0"/>
  <anchor x="350" y="658" name="top"/>
  <anchor x="679" y="658" name="topright"/>
  <outline>
    <contour>
      <point x="356" y="-72" type="curve"/>
      <point x="406" y="-10" type="line"/>
      <point x="391" y="4"/>
      <point x="379" y="21"/>
      <point x="379" y="41" type="curve" smooth="yes"/>
      <point x="379" y="77"/>
      <point x="422" y="96"/>
      <point x="469" y="96" type="curve" smooth="yes"/>
      <point x="537" y="96"/>
      <point x="608" y="60"/>
      <point x="608" y="-10" type="curve"/>
      <point x="685" y="-10" type="line"/>
      <point x="685" y="130"/>
      <point x="569" y="196"/>
      <point x="458" y="196" type="curve" smooth="yes"/>
      <point x="362" y="196"/>
      <point x="269" y="146"/>
      <point x="269" y="54" type="curve" smooth="yes"/>
      <point x="269" y="2"/>
      <point x="297" y="-42"/>
    </contour>
    <contour>
      <point x="380" y="-168" type="curve" smooth="yes"/>
      <point x="412" y="-168"/>
      <point x="441" y="-149"/>
      <point x="441" y="-114" type="curve" smooth="yes"/>
      <point x="441" y="-81"/>
      <point x="414" y="-58"/>
      <point x="378" y="-58" type="curve" smooth="yes"/>
      <point x="345" y="-58"/>
      <point x="323" y="-77"/>
      <point x="323" y="-109" type="curve"/>
      <point x="404" y="-135" type="line"/>
      <point x="404" y="-124"/>
      <point x="404" y="-114"/>
      <point x="404" y="-103" type="curve" smooth="yes"/>
      <point x="404" y="-58"/>
      <point x="482" y="-41"/>
      <point x="558" y="-41" type="curve"/>
      <point x="528" y="-58" type="line"/>
      <point x="511" y="51" type="line"/>
      <point x="527" y="41" type="line"/>
      <point x="423" y="41"/>
      <point x="313" y="-17"/>
      <point x="313" y="-101" type="curve" smooth="yes"/>
      <point x="313" y="-148"/>
      <point x="348" y="-168"/>
    </contour>
    <contour>
      <point x="169" y="219" type="curve"/>
      <point x="231" y="333" type="line"/>
      <point x="196" y="364"/>
      <point x="186" y="384"/>
      <point x="186" y="411" type="curve" smooth="yes"/>
      <point x="186" y="478"/>
      <point x="252" y="516"/>
      <point x="354" y="516" type="curve" smooth="yes"/>
      <point x="467" y="516"/>
      <point x="583" y="467"/>
      <point x="605" y="332" type="curve"/>
      <point x="747" y="290" type="line"/>
      <point x="725" y="532"/>
      <point x="589" y="666"/>
      <point x="350" y="666" type="curve" smooth="yes"/>
      <point x="134" y="666"/>
      <point x="22" y="558"/>
      <point x="22" y="426" type="curve" smooth="yes"/>
      <point x="22" y="348"/>
      <point x="61" y="273"/>
    </contour>
    <contour>
      <point x="191" y="102" type="curve" smooth="yes"/>
      <point x="245" y="102"/>
      <point x="294" y="132"/>
      <point x="294" y="188" type="curve" smooth="yes"/>
      <point x="294" y="243"/>
      <point x="249" y="280"/>
      <point x="187" y="280" type="curve" smooth="yes"/>
      <point x="132" y="280"/>
      <point x="96" y="251"/>
      <point x="96" y="198" type="curve"/>
      <point x="230" y="156" type="line"/>
      <point x="230" y="172"/>
      <point x="230" y="208"/>
      <point x="230" y="210" type="curve" smooth="yes"/>
      <point x="230" y="266"/>
      <point x="278" y="311"/>
      <point x="507" y="310" type="curve"/>
      <point x="431" y="290" type="line"/>
      <point x="407" y="473" type="line"/>
      <point x="457" y="433" type="line"/>
      <point x="257" y="435"/>
      <point x="80" y="353"/>
      <point x="80" y="212" type="curve" smooth="yes"/>
      <point x="80" y="133"/>
      <point x="136" y="102"/>
    </contour>
    <contour>
      <point x="594" y="658" type="line"/>
      <point x="604" y="558" type="line"/>
      <point x="594" y="486" type="line"/>
      <point x="594" y="-164" type="line"/>
      <point x="764" y="-164" type="line"/>
      <point x="764" y="658" type="line"/>
    </contour>
  </outline>
</glyph>
<glyph name="na_ta-oriya" format="2">
  <advance width="760"/>
  <note>
nataorya
</note>
  <guideline x="701" y="382" angle="0"/>
  <anchor x="380" y="658" name="top"/>
  <anchor x="588" y="658" name="topright"/>
  <outline>
    <contour>
      <point x="160" y="219" type="curve"/>
      <point x="233" y="332" type="line"/>
      <point x="208" y="352"/>
      <point x="190" y="376"/>
      <point x="190" y="408" type="curve" smooth="yes"/>
      <point x="190" y="484"/>
      <point x="288" y="516"/>
      <point x="374" y="516" type="curve" smooth="yes"/>
      <point x="479" y="516"/>
      <point x="570" y="484"/>
      <point x="570" y="412" type="curve" smooth="yes"/>
      <point x="570" y="375"/>
      <point x="544" y="331"/>
      <point x="512" y="302" type="curve"/>
      <point x="499" y="378" type="line"/>
      <point x="760" y="265" type="line"/>
      <point x="657" y="224" type="line"/>
      <point x="705" y="295"/>
      <point x="738" y="343"/>
      <point x="738" y="412" type="curve" smooth="yes"/>
      <point x="738" y="581"/>
      <point x="561" y="666"/>
      <point x="380" y="666" type="curve" smooth="yes"/>
      <point x="201" y="666"/>
      <point x="22" y="591"/>
      <point x="22" y="417" type="curve" smooth="yes"/>
      <point x="22" y="337"/>
      <point x="68" y="267"/>
    </contour>
    <contour>
      <point x="345" y="-114" type="curve" smooth="yes"/>
      <point x="509" y="-114"/>
      <point x="639" y="-31"/>
      <point x="639" y="118" type="curve" smooth="yes"/>
      <point x="639" y="220"/>
      <point x="578" y="265"/>
      <point x="504" y="265" type="curve" smooth="yes"/>
      <point x="441" y="265"/>
      <point x="368" y="233"/>
      <point x="368" y="148" type="curve" smooth="yes"/>
      <point x="368" y="56"/>
      <point x="452" y="31"/>
      <point x="493" y="31" type="curve" smooth="yes"/>
      <point x="553" y="31"/>
      <point x="610" y="88"/>
      <point x="610" y="147" type="curve"/>
      <point x="515" y="97" type="line"/>
      <point x="515" y="33"/>
      <point x="443" y="6"/>
      <point x="352" y="6" type="curve" smooth="yes"/>
      <point x="224" y="6"/>
      <point x="59" y="60"/>
      <point x="11" y="156" type="curve"/>
      <point x="172" y="101" type="line"/>
      <point x="88" y="-100" type="line"/>
      <point x="76" y="-51" type="line"/>
      <point x="127" y="-85"/>
      <point x="249" y="-114"/>
    </contour>
    <contour>
      <point x="209" y="83" type="curve" smooth="yes"/>
      <point x="276" y="83"/>
      <point x="308" y="127"/>
      <point x="308" y="171" type="curve" smooth="yes"/>
      <point x="308" y="215"/>
      <point x="275" y="260"/>
      <point x="206" y="260" type="curve" smooth="yes"/>
      <point x="193" y="260"/>
      <point x="180" y="261"/>
      <point x="172" y="261" type="curve"/>
      <point x="249" y="144" type="line"/>
      <point x="246" y="157"/>
      <point x="245" y="170"/>
      <point x="245" y="179" type="curve" smooth="yes"/>
      <point x="245" y="251"/>
      <point x="311" y="275"/>
      <point x="397" y="275" type="curve" smooth="yes"/>
      <point x="416" y="275"/>
      <point x="435" y="274"/>
      <point x="454" y="272" type="curve"/>
      <point x="368" y="333" type="line"/>
      <point x="368" y="148" type="line"/>
      <point x="532" y="248" type="line"/>
      <point x="532" y="402" type="line"/>
      <point x="499" y="409"/>
      <point x="451" y="413"/>
      <point x="418" y="413" type="curve" smooth="yes"/>
      <point x="255" y="413"/>
      <point x="96" y="331"/>
      <point x="96" y="192" type="curve" smooth="yes"/>
      <point x="96" y="119"/>
      <point x="154" y="83"/>
    </contour>
    <contour>
      <point x="504" y="115" type="curve" smooth="yes"/>
      <point x="483" y="115"/>
      <point x="476" y="131"/>
      <point x="476" y="145" type="curve" smooth="yes"/>
      <point x="476" y="159"/>
      <point x="483" y="175"/>
      <point x="504" y="175" type="curve" smooth="yes"/>
      <point x="525" y="175"/>
      <point x="532" y="159"/>
      <point x="532" y="145" type="curve" smooth="yes"/>
      <point x="532" y="131"/>
      <point x="525" y="115"/>
    </contour>
  </outline>
</glyph>
<glyph name="na_ta_uMatra-oriya" format="2">
  <advance width="760"/>
  <anchor x="380" y="658" name="top"/>
  <anchor x="588" y="658" name="topright"/>
  <outline>
    <contour>
      <point x="160" y="219" type="curve"/>
      <point x="233" y="332" type="line"/>
      <point x="208" y="352"/>
      <point x="190" y="376"/>
      <point x="190" y="408" type="curve" smooth="yes"/>
      <point x="190" y="484"/>
      <point x="288" y="516"/>
      <point x="374" y="516" type="curve" smooth="yes"/>
      <point x="479" y="516"/>
      <point x="570" y="484"/>
      <point x="570" y="412" type="curve" smooth="yes"/>
      <point x="570" y="375"/>
      <point x="544" y="331"/>
      <point x="512" y="302" type="curve"/>
      <point x="499" y="378" type="line"/>
      <point x="760" y="265" type="line"/>
      <point x="657" y="224" type="line"/>
      <point x="705" y="295"/>
      <point x="738" y="343"/>
      <point x="738" y="412" type="curve" smooth="yes"/>
      <point x="738" y="581"/>
      <point x="561" y="666"/>
      <point x="380" y="666" type="curve" smooth="yes"/>
      <point x="201" y="666"/>
      <point x="22" y="591"/>
      <point x="22" y="417" type="curve" smooth="yes"/>
      <point x="22" y="337"/>
      <point x="68" y="267"/>
    </contour>
    <contour>
      <point x="353" y="-77" type="curve" smooth="yes"/>
      <point x="517" y="-77"/>
      <point x="639" y="0"/>
      <point x="639" y="138" type="curve" smooth="yes"/>
      <point x="639" y="240"/>
      <point x="578" y="285"/>
      <point x="504" y="285" type="curve" smooth="yes"/>
      <point x="441" y="285"/>
      <point x="368" y="253"/>
      <point x="368" y="168" type="curve" smooth="yes"/>
      <point x="368" y="76"/>
      <point x="452" y="51"/>
      <point x="493" y="51" type="curve" smooth="yes"/>
      <point x="553" y="51"/>
      <point x="610" y="108"/>
      <point x="610" y="167" type="curve"/>
      <point x="515" y="117" type="line"/>
      <point x="515" y="65"/>
      <point x="451" y="43"/>
      <point x="360" y="43" type="curve" smooth="yes"/>
      <point x="232" y="43"/>
      <point x="67" y="97"/>
      <point x="19" y="193" type="curve"/>
      <point x="180" y="138" type="line"/>
      <point x="96" y="-63" type="line"/>
      <point x="84" y="-14" type="line"/>
      <point x="135" y="-48"/>
      <point x="257" y="-77"/>
    </contour>
    <contour>
      <point x="209" y="103" type="curve" smooth="yes"/>
      <point x="276" y="103"/>
      <point x="308" y="147"/>
      <point x="308" y="191" type="curve" smooth="yes"/>
      <point x="308" y="235"/>
      <point x="275" y="280"/>
      <point x="206" y="280" type="curve" smooth="yes"/>
      <point x="193" y="280"/>
      <point x="180" y="281"/>
      <point x="172" y="281" type="curve"/>
      <point x="249" y="164" type="line"/>
      <point x="246" y="177"/>
      <point x="245" y="190"/>
      <point x="245" y="199" type="curve" smooth="yes"/>
      <point x="245" y="271"/>
      <point x="311" y="295"/>
      <point x="397" y="295" type="curve" smooth="yes"/>
      <point x="416" y="295"/>
      <point x="435" y="294"/>
      <point x="454" y="292" type="curve"/>
      <point x="368" y="353" type="line"/>
      <point x="368" y="168" type="line"/>
      <point x="532" y="268" type="line"/>
      <point x="532" y="422" type="line"/>
      <point x="499" y="429"/>
      <point x="451" y="433"/>
      <point x="418" y="433" type="curve" smooth="yes"/>
      <point x="255" y="433"/>
      <point x="96" y="351"/>
      <point x="96" y="212" type="curve" smooth="yes"/>
      <point x="96" y="139"/>
      <point x="154" y="103"/>
    </contour>
    <contour>
      <point x="504" y="135" type="curve" smooth="yes"/>
      <point x="483" y="135"/>
      <point x="476" y="151"/>
      <point x="476" y="165" type="curve" smooth="yes"/>
      <point x="476" y="179"/>
      <point x="483" y="195"/>
      <point x="504" y="195" type="curve" smooth="yes"/>
      <point x="525" y="195"/>
      <point x="532" y="179"/>
      <point x="532" y="165" type="curve" smooth="yes"/>
      <point x="532" y="151"/>
      <point x="525" y="135"/>
    </contour>
    <contour>
      <point x="290" y="-292" type="curve" smooth="yes"/>
      <point x="407" y="-292"/>
      <point x="490" y="-207"/>
      <point x="490" y="-80" type="curve" smooth="yes"/>
      <point x="490" y="-27" type="line"/>
      <point x="382" y="-64" type="line"/>
      <point x="382" y="-80" type="line" smooth="yes"/>
      <point x="382" y="-175"/>
      <point x="320" y="-204"/>
      <point x="282" y="-204" type="curve" smooth="yes"/>
      <point x="266" y="-204"/>
      <point x="256" y="-199"/>
      <point x="256" y="-191" type="curve" smooth="yes"/>
      <point x="256" y="-183"/>
      <point x="265" y="-178"/>
      <point x="285" y="-178" type="curve" smooth="yes"/>
      <point x="381" y="-178"/>
      <point x="449" y="-292"/>
      <point x="571" y="-292" type="curve" smooth="yes"/>
      <point x="624" y="-292"/>
      <point x="675" y="-271"/>
      <point x="724" y="-223" type="curve"/>
      <point x="645" y="-311" type="line"/>
      <point x="602" y="-169" type="line"/>
      <point x="678" y="-173" type="line"/>
      <point x="642" y="-193"/>
      <point x="601" y="-204"/>
      <point x="566" y="-204" type="curve" smooth="yes"/>
      <point x="464" y="-204"/>
      <point x="401" y="-108"/>
      <point x="283" y="-108" type="curve" smooth="yes"/>
      <point x="211" y="-108"/>
      <point x="166" y="-144"/>
      <point x="166" y="-199" type="curve" smooth="yes"/>
      <point x="166" y="-255"/>
      <point x="213" y="-292"/>
    </contour>
  </outline>
</glyph>
<glyph name="na_ta_va-oriya" format="2">
  <advance width="760"/>
  <anchor x="380" y="658" name="top"/>
  <anchor x="588" y="658" name="topright"/>
  <outline>
    <contour>
      <point x="160" y="219" type="curve"/>
      <point x="233" y="332" type="line"/>
      <point x="208" y="352"/>
      <point x="190" y="376"/>
      <point x="190" y="408" type="curve" smooth="yes"/>
      <point x="190" y="484"/>
      <point x="288" y="516"/>
      <point x="374" y="516" type="curve" smooth="yes"/>
      <point x="479" y="516"/>
      <point x="570" y="484"/>
      <point x="570" y="412" type="curve" smooth="yes"/>
      <point x="570" y="375"/>
      <point x="544" y="331"/>
      <point x="512" y="302" type="curve"/>
      <point x="499" y="378" type="line"/>
      <point x="760" y="265" type="line"/>
      <point x="657" y="224" type="line"/>
      <point x="705" y="295"/>
      <point x="738" y="343"/>
      <point x="738" y="412" type="curve" smooth="yes"/>
      <point x="738" y="581"/>
      <point x="561" y="666"/>
      <point x="380" y="666" type="curve" smooth="yes"/>
      <point x="201" y="666"/>
      <point x="22" y="591"/>
      <point x="22" y="417" type="curve" smooth="yes"/>
      <point x="22" y="337"/>
      <point x="68" y="267"/>
    </contour>
    <contour>
      <point x="477" y="-255" type="curve" smooth="yes"/>
      <point x="562" y="-255"/>
      <point x="647" y="-204"/>
      <point x="647" y="-98" type="curve"/>
      <point x="564" y="-84" type="line"/>
      <point x="564" y="-122"/>
      <point x="538" y="-148"/>
      <point x="505" y="-148" type="curve" smooth="yes"/>
      <point x="475" y="-148"/>
      <point x="464" y="-128"/>
      <point x="464" y="-102" type="curve" smooth="yes"/>
      <point x="464" y="-62"/>
      <point x="482" y="-11"/>
      <point x="502" y="7" type="curve"/>
      <point x="536" y="-49" type="line"/>
      <point x="312" y="-19" type="line"/>
      <point x="398" y="51" type="line"/>
      <point x="356" y="2"/>
      <point x="334" y="-57"/>
      <point x="334" y="-111" type="curve" smooth="yes"/>
      <point x="334" y="-189"/>
      <point x="381" y="-255"/>
    </contour>
    <contour>
      <point x="547" y="-292" type="line"/>
      <point x="697" y="-292" type="line"/>
      <point x="697" y="-48" type="line"/>
      <point x="547" y="-48" type="line"/>
      <point x="547" y="-189" type="line"/>
      <point x="556" y="-198" type="line"/>
    </contour>
    <contour>
      <point x="345" y="-89" type="curve" smooth="yes"/>
      <point x="509" y="-89"/>
      <point x="639" y="-6"/>
      <point x="639" y="143" type="curve" smooth="yes"/>
      <point x="639" y="245"/>
      <point x="578" y="290"/>
      <point x="504" y="290" type="curve" smooth="yes"/>
      <point x="441" y="290"/>
      <point x="368" y="258"/>
      <point x="368" y="173" type="curve" smooth="yes"/>
      <point x="368" y="81"/>
      <point x="452" y="56"/>
      <point x="493" y="56" type="curve" smooth="yes"/>
      <point x="553" y="56"/>
      <point x="610" y="113"/>
      <point x="610" y="172" type="curve"/>
      <point x="515" y="122" type="line"/>
      <point x="515" y="58"/>
      <point x="443" y="31"/>
      <point x="352" y="31" type="curve" smooth="yes"/>
      <point x="224" y="31"/>
      <point x="59" y="85"/>
      <point x="11" y="181" type="curve"/>
      <point x="172" y="126" type="line"/>
      <point x="88" y="-75" type="line"/>
      <point x="76" y="-26" type="line"/>
      <point x="127" y="-60"/>
      <point x="249" y="-89"/>
    </contour>
    <contour>
      <point x="209" y="83" type="curve" smooth="yes"/>
      <point x="276" y="83"/>
      <point x="308" y="127"/>
      <point x="308" y="171" type="curve" smooth="yes"/>
      <point x="308" y="215"/>
      <point x="275" y="260"/>
      <point x="206" y="260" type="curve" smooth="yes"/>
      <point x="193" y="260"/>
      <point x="180" y="261"/>
      <point x="172" y="261" type="curve"/>
      <point x="249" y="144" type="line"/>
      <point x="246" y="157"/>
      <point x="245" y="170"/>
      <point x="245" y="179" type="curve" smooth="yes"/>
      <point x="245" y="251"/>
      <point x="311" y="275"/>
      <point x="397" y="275" type="curve" smooth="yes"/>
      <point x="416" y="275"/>
      <point x="435" y="274"/>
      <point x="454" y="272" type="curve"/>
      <point x="368" y="333" type="line"/>
      <point x="368" y="173" type="line"/>
      <point x="532" y="249" type="line"/>
      <point x="532" y="402" type="line"/>
      <point x="499" y="409"/>
      <point x="451" y="413"/>
      <point x="418" y="413" type="curve" smooth="yes"/>
      <point x="255" y="413"/>
      <point x="96" y="331"/>
      <point x="96" y="192" type="curve" smooth="yes"/>
      <point x="96" y="119"/>
      <point x="154" y="83"/>
    </contour>
    <contour>
      <point x="504" y="140" type="curve" smooth="yes"/>
      <point x="483" y="140"/>
      <point x="476" y="156"/>
      <point x="476" y="170" type="curve" smooth="yes"/>
      <point x="476" y="184"/>
      <point x="483" y="200"/>
      <point x="504" y="200" type="curve" smooth="yes"/>
      <point x="525" y="200"/>
      <point x="532" y="184"/>
      <point x="532" y="170" type="curve" smooth="yes"/>
      <point x="532" y="156"/>
      <point x="525" y="140"/>
    </contour>
  </outline>
</glyph>
<glyph name="nga_ka-oriya" format="2">
  <advance width="854"/>
  <note>
ngakaorya
</note>
  <guideline x="848" y="526" angle="90"/>
  <anchor x="585" y="0" name="bottom"/>
  <anchor x="755" y="0" name="bottom_ra"/>
  <anchor x="410" y="658" name="top"/>
  <anchor x="698" y="658" name="topright"/>
  <outline>
    <contour>
      <point x="173" y="170" type="curve"/>
      <point x="223" y="282" type="line"/>
      <point x="195" y="302"/>
      <point x="176" y="339"/>
      <point x="176" y="383" type="curve" smooth="yes"/>
      <point x="176" y="466"/>
      <point x="243" y="526"/>
      <point x="413" y="526" type="curve" smooth="yes"/>
      <point x="520" y="526"/>
      <point x="574" y="501"/>
      <point x="619" y="464" type="curve"/>
      <point x="666" y="598" type="line"/>
      <point x="610" y="638"/>
      <point x="531" y="666"/>
      <point x="410" y="666" type="curve" smooth="yes"/>
      <point x="168" y="666"/>
      <point x="22" y="554"/>
      <point x="22" y="398" type="curve" smooth="yes"/>
      <point x="22" y="305"/>
      <point x="74" y="229"/>
    </contour>
    <contour>
      <point x="246" y="60" type="curve" smooth="yes"/>
      <point x="325" y="60"/>
      <point x="375" y="109"/>
      <point x="375" y="204" type="curve" smooth="yes"/>
      <point x="375" y="298"/>
      <point x="326" y="350"/>
      <point x="248" y="350" type="curve" smooth="yes"/>
      <point x="167" y="350"/>
      <point x="117" y="296"/>
      <point x="117" y="202" type="curve" smooth="yes"/>
      <point x="117" y="107"/>
      <point x="168" y="60"/>
    </contour>
    <contour>
      <point x="254" y="166" type="curve" smooth="yes"/>
      <point x="236" y="166"/>
      <point x="227" y="179"/>
      <point x="227" y="203" type="curve" smooth="yes"/>
      <point x="227" y="229"/>
      <point x="236" y="242"/>
      <point x="254" y="242" type="curve" smooth="yes"/>
      <point x="272" y="242"/>
      <point x="281" y="229"/>
      <point x="281" y="203" type="curve" smooth="yes"/>
      <point x="281" y="179"/>
      <point x="272" y="166"/>
    </contour>
    <contour>
      <point x="422" y="60" type="curve" smooth="yes"/>
      <point x="505" y="60"/>
      <point x="555" y="109"/>
      <point x="555" y="204" type="curve" smooth="yes"/>
      <point x="555" y="298"/>
      <point x="505" y="350"/>
      <point x="425" y="350" type="curve" smooth="yes"/>
      <point x="345" y="350"/>
      <point x="297" y="296"/>
      <point x="297" y="202" type="curve" smooth="yes"/>
      <point x="297" y="108"/>
      <point x="344" y="60"/>
    </contour>
    <contour>
      <point x="418" y="166" type="curve" smooth="yes"/>
      <point x="400" y="166"/>
      <point x="391" y="179"/>
      <point x="391" y="203" type="curve" smooth="yes"/>
      <point x="391" y="229"/>
      <point x="400" y="242"/>
      <point x="418" y="242" type="curve" smooth="yes"/>
      <point x="436" y="242"/>
      <point x="445" y="229"/>
      <point x="445" y="203" type="curve" smooth="yes"/>
      <point x="445" y="179"/>
      <point x="436" y="166"/>
    </contour>
    <contour>
      <point x="390" y="0" type="line"/>
      <point x="555" y="0" type="line"/>
      <point x="555" y="221" type="line" smooth="yes"/>
      <point x="555" y="235"/>
      <point x="560" y="242"/>
      <point x="570" y="242" type="curve" smooth="yes"/>
      <point x="580" y="242"/>
      <point x="585" y="235"/>
      <point x="585" y="221" type="curve" smooth="yes"/>
      <point x="585" y="0" type="line"/>
      <point x="755" y="0" type="line"/>
      <point x="755" y="206" type="line" smooth="yes"/>
      <point x="755" y="245"/>
      <point x="755" y="350"/>
      <point x="619" y="350" type="curve" smooth="yes"/>
      <point x="518" y="350"/>
      <point x="478" y="293"/>
      <point x="478" y="206" type="curve"/>
      <point x="407" y="128" type="line"/>
    </contour>
    <contour>
      <point x="709" y="391" type="curve" smooth="yes"/>
      <point x="790" y="391"/>
      <point x="848" y="443"/>
      <point x="848" y="525" type="curve" smooth="yes"/>
      <point x="848" y="606"/>
      <point x="791" y="658"/>
      <point x="711" y="658" type="curve" smooth="yes"/>
      <point x="628" y="658"/>
      <point x="572" y="603"/>
      <point x="572" y="523" type="curve" smooth="yes"/>
      <point x="572" y="442"/>
      <point x="629" y="391"/>
    </contour>
    <contour>
      <point x="711" y="493" type="curve" smooth="yes"/>
      <point x="694" y="493"/>
      <point x="684" y="504"/>
      <point x="684" y="524" type="curve" smooth="yes"/>
      <point x="684" y="545"/>
      <point x="694" y="556"/>
      <point x="711" y="556" type="curve" smooth="yes"/>
      <point x="728" y="556"/>
      <point x="737" y="545"/>
      <point x="737" y="524" type="curve" smooth="yes"/>
      <point x="737" y="504"/>
      <point x="728" y="493"/>
    </contour>
  </outline>
</glyph>
<glyph name="nga_ka_ta-oriya" format="2">
  <advance width="854"/>
  <guideline x="755" y="177" angle="90"/>
  <guideline x="825" y="177" angle="90"/>
  <anchor x="410" y="658" name="top"/>
  <anchor x="698" y="658" name="topright"/>
  <outline>
    <contour>
      <point x="173" y="170" type="curve"/>
      <point x="223" y="282" type="line"/>
      <point x="195" y="302"/>
      <point x="176" y="339"/>
      <point x="176" y="383" type="curve" smooth="yes"/>
      <point x="176" y="466"/>
      <point x="243" y="526"/>
      <point x="413" y="526" type="curve" smooth="yes"/>
      <point x="520" y="526"/>
      <point x="574" y="501"/>
      <point x="619" y="464" type="curve"/>
      <point x="666" y="598" type="line"/>
      <point x="610" y="638"/>
      <point x="531" y="666"/>
      <point x="410" y="666" type="curve" smooth="yes"/>
      <point x="168" y="666"/>
      <point x="22" y="554"/>
      <point x="22" y="398" type="curve" smooth="yes"/>
      <point x="22" y="305"/>
      <point x="74" y="229"/>
    </contour>
    <contour>
      <point x="543" y="-205" type="curve" smooth="yes"/>
      <point x="707" y="-205"/>
      <point x="837" y="-122"/>
      <point x="837" y="27" type="curve" smooth="yes"/>
      <point x="837" y="129"/>
      <point x="776" y="174"/>
      <point x="702" y="174" type="curve" smooth="yes"/>
      <point x="639" y="174"/>
      <point x="566" y="142"/>
      <point x="566" y="57" type="curve" smooth="yes"/>
      <point x="566" y="-35"/>
      <point x="650" y="-60"/>
      <point x="691" y="-60" type="curve" smooth="yes"/>
      <point x="751" y="-60"/>
      <point x="808" y="-3"/>
      <point x="808" y="56" type="curve"/>
      <point x="713" y="6" type="line"/>
      <point x="713" y="-58"/>
      <point x="641" y="-85"/>
      <point x="550" y="-85" type="curve" smooth="yes"/>
      <point x="422" y="-85"/>
      <point x="257" y="-31"/>
      <point x="209" y="65" type="curve"/>
      <point x="370" y="10" type="line"/>
      <point x="286" y="-191" type="line"/>
      <point x="274" y="-142" type="line"/>
      <point x="325" y="-176"/>
      <point x="447" y="-205"/>
    </contour>
    <contour>
      <point x="246" y="60" type="curve" smooth="yes"/>
      <point x="325" y="60"/>
      <point x="375" y="109"/>
      <point x="375" y="204" type="curve" smooth="yes"/>
      <point x="375" y="298"/>
      <point x="326" y="350"/>
      <point x="248" y="350" type="curve" smooth="yes"/>
      <point x="167" y="350"/>
      <point x="117" y="296"/>
      <point x="117" y="202" type="curve" smooth="yes"/>
      <point x="117" y="107"/>
      <point x="168" y="60"/>
    </contour>
    <contour>
      <point x="254" y="166" type="curve" smooth="yes"/>
      <point x="236" y="166"/>
      <point x="227" y="179"/>
      <point x="227" y="203" type="curve" smooth="yes"/>
      <point x="227" y="229"/>
      <point x="236" y="242"/>
      <point x="254" y="242" type="curve" smooth="yes"/>
      <point x="272" y="242"/>
      <point x="281" y="229"/>
      <point x="281" y="203" type="curve" smooth="yes"/>
      <point x="281" y="179"/>
      <point x="272" y="166"/>
    </contour>
    <contour>
      <point x="422" y="60" type="curve" smooth="yes"/>
      <point x="505" y="60"/>
      <point x="555" y="109"/>
      <point x="555" y="204" type="curve" smooth="yes"/>
      <point x="555" y="298"/>
      <point x="505" y="350"/>
      <point x="425" y="350" type="curve" smooth="yes"/>
      <point x="345" y="350"/>
      <point x="297" y="296"/>
      <point x="297" y="202" type="curve" smooth="yes"/>
      <point x="297" y="108"/>
      <point x="344" y="60"/>
    </contour>
    <contour>
      <point x="418" y="166" type="curve" smooth="yes"/>
      <point x="400" y="166"/>
      <point x="391" y="179"/>
      <point x="391" y="203" type="curve" smooth="yes"/>
      <point x="391" y="229"/>
      <point x="400" y="242"/>
      <point x="418" y="242" type="curve" smooth="yes"/>
      <point x="436" y="242"/>
      <point x="445" y="229"/>
      <point x="445" y="203" type="curve" smooth="yes"/>
      <point x="445" y="179"/>
      <point x="436" y="166"/>
    </contour>
    <contour>
      <point x="702" y="24" type="curve" smooth="yes"/>
      <point x="681" y="24"/>
      <point x="674" y="40"/>
      <point x="674" y="54" type="curve" smooth="yes"/>
      <point x="674" y="68"/>
      <point x="681" y="84"/>
      <point x="702" y="84" type="curve" smooth="yes"/>
      <point x="723" y="84"/>
      <point x="730" y="68"/>
      <point x="730" y="54" type="curve" smooth="yes"/>
      <point x="730" y="40"/>
      <point x="723" y="24"/>
    </contour>
    <contour>
      <point x="390" y="0" type="line"/>
      <point x="555" y="0" type="line"/>
      <point x="555" y="221" type="line" smooth="yes"/>
      <point x="555" y="235"/>
      <point x="560" y="242"/>
      <point x="570" y="242" type="curve" smooth="yes"/>
      <point x="580" y="242"/>
      <point x="585" y="235"/>
      <point x="585" y="221" type="curve" smooth="yes"/>
      <point x="585" y="100" type="line"/>
      <point x="755" y="100" type="line"/>
      <point x="755" y="206" type="line" smooth="yes"/>
      <point x="755" y="245"/>
      <point x="755" y="350"/>
      <point x="619" y="350" type="curve" smooth="yes"/>
      <point x="518" y="350"/>
      <point x="478" y="293"/>
      <point x="478" y="206" type="curve"/>
      <point x="407" y="128" type="line"/>
    </contour>
    <contour>
      <point x="709" y="391" type="curve" smooth="yes"/>
      <point x="790" y="391"/>
      <point x="848" y="443"/>
      <point x="848" y="525" type="curve" smooth="yes"/>
      <point x="848" y="606"/>
      <point x="791" y="658"/>
      <point x="711" y="658" type="curve" smooth="yes"/>
      <point x="628" y="658"/>
      <point x="572" y="603"/>
      <point x="572" y="523" type="curve" smooth="yes"/>
      <point x="572" y="442"/>
      <point x="629" y="391"/>
    </contour>
    <contour>
      <point x="711" y="493" type="curve" smooth="yes"/>
      <point x="694" y="493"/>
      <point x="684" y="504"/>
      <point x="684" y="524" type="curve" smooth="yes"/>
      <point x="684" y="545"/>
      <point x="694" y="556"/>
      <point x="711" y="556" type="curve" smooth="yes"/>
      <point x="728" y="556"/>
      <point x="737" y="545"/>
      <point x="737" y="524" type="curve" smooth="yes"/>
      <point x="737" y="504"/>
      <point x="728" y="493"/>
    </contour>
  </outline>
</glyph>
<glyph name="ngara-oriya.REV_BRACKET.141" format="2">
  <advance width="807"/>
  <anchor x="371" y="658" name="top"/>
  <anchor x="647" y="658" name="topright"/>
  <outline>
    <contour>
      <point x="173" y="170" type="curve"/>
      <point x="173" y="170" type="line"/>
      <point x="233" y="282" type="line"/>
      <point x="205" y="302"/>
      <point x="186" y="340"/>
      <point x="186" y="382" type="curve"/>
      <point x="186" y="466"/>
      <point x="263" y="528"/>
      <point x="383" y="528" type="curve"/>
      <point x="460" y="528"/>
      <point x="511" y="503"/>
      <point x="556" y="466" type="curve"/>
      <point x="616" y="598" type="line"/>
      <point x="553" y="642"/>
      <point x="477" y="666"/>
      <point x="370" y="666" type="curve"/>
      <point x="161" y="666"/>
      <point x="22" y="554"/>
      <point x="22" y="399" type="curve"/>
      <point x="22" y="305"/>
      <point x="74" y="229"/>
    </contour>
    <contour>
      <point x="121" y="-60" type="line"/>
      <point x="121" y="-200" type="line"/>
      <point x="726" y="-200" type="line"/>
      <point x="726" y="20" type="line"/>
      <point x="556" y="20" type="line"/>
      <point x="556" y="-60" type="line"/>
    </contour>
    <contour>
      <point x="372" y="-8" type="curve"/>
      <point x="372" y="-8" type="line"/>
      <point x="487" y="-8"/>
      <point x="603" y="56"/>
      <point x="603" y="186" type="curve"/>
      <point x="603" y="247"/>
      <point x="577" y="299"/>
      <point x="490" y="344" type="curve"/>
      <point x="382" y="244" type="line"/>
      <point x="434" y="218"/>
      <point x="449" y="200"/>
      <point x="449" y="180" type="curve"/>
      <point x="449" y="152"/>
      <point x="418" y="140"/>
      <point x="382" y="140" type="curve"/>
      <point x="350" y="140"/>
      <point x="304" y="157"/>
      <point x="304" y="213" type="curve"/>
      <point x="304" y="255"/>
      <point x="330" y="303"/>
      <point x="387" y="344" type="curve"/>
      <point x="318" y="442" type="line"/>
      <point x="182" y="376"/>
      <point x="139" y="272"/>
      <point x="139" y="193" type="curve"/>
      <point x="139" y="67"/>
      <point x="247" y="-8"/>
    </contour>
    <contour>
      <point x="314" y="261" type="line"/>
      <point x="397" y="174" type="line"/>
      <point x="575" y="344" type="line"/>
      <point x="492" y="431" type="line"/>
    </contour>
    <contour>
      <point x="646" y="364" type="curve"/>
      <point x="646" y="364" type="line"/>
      <point x="743" y="364"/>
      <point x="801" y="425"/>
      <point x="801" y="511" type="curve"/>
      <point x="801" y="598"/>
      <point x="744" y="658"/>
      <point x="648" y="658" type="curve"/>
      <point x="550" y="658"/>
      <point x="494" y="595"/>
      <point x="494" y="509" type="curve"/>
      <point x="494" y="423"/>
      <point x="549" y="364"/>
    </contour>
    <contour>
      <point x="648" y="476" type="curve"/>
      <point x="648" y="476" type="line"/>
      <point x="629" y="476"/>
      <point x="620" y="492"/>
      <point x="620" y="511" type="curve"/>
      <point x="620" y="530"/>
      <point x="629" y="546"/>
      <point x="648" y="546" type="curve"/>
      <point x="667" y="546"/>
      <point x="675" y="530"/>
      <point x="675" y="511" type="curve"/>
      <point x="675" y="492"/>
      <point x="667" y="476"/>
    </contour>
  </outline>
</glyph>
<glyph name="nine-oriya.REV_BRACKET.141" format="2">
  <advance width="585"/>
  <note>
nineorya
</note>
  <outline>
    <contour>
      <point x="397" y="286" type="line"/>
      <point x="563" y="314" type="line"/>
      <point x="563" y="658" type="line"/>
      <point x="403" y="658" type="line"/>
      <point x="403" y="603" type="line" smooth="yes"/>
      <point x="403" y="581"/>
      <point x="404" y="528"/>
      <point x="407" y="504" type="curve"/>
      <point x="273" y="666" type="line"/>
      <point x="106" y="585"/>
      <point x="18" y="470"/>
      <point x="18" y="325" type="curve"/>
      <point x="18" y="118"/>
      <point x="197" y="-3"/>
      <point x="424" y="-8" type="curve"/>
      <point x="436" y="142" type="line"/>
      <point x="273" y="152"/>
      <point x="192" y="220"/>
      <point x="192" y="323" type="curve"/>
      <point x="192" y="412"/>
      <point x="244" y="473"/>
      <point x="347" y="521" type="curve"/>
      <point x="160" y="545" type="line"/>
    </contour>
  </outline>
</glyph>
<glyph name="nna_dda-oriya" format="2">
  <advance width="834"/>
  <note>
nnaddaorya
</note>
  <guideline x="752" y="215" angle="90"/>
  <guideline x="822" y="215" angle="90"/>
  <anchor x="349" y="658" name="top"/>
  <anchor x="667" y="658" name="topright"/>
  <outline>
    <contour>
      <point x="321" y="-8" type="curve" smooth="yes"/>
      <point x="452" y="-8"/>
      <point x="538" y="48"/>
      <point x="538" y="143" type="curve" smooth="yes"/>
      <point x="538" y="239"/>
      <point x="452" y="295"/>
      <point x="313" y="295" type="curve" smooth="yes"/>
      <point x="257" y="295"/>
      <point x="207" y="286"/>
      <point x="162" y="270" type="curve"/>
      <point x="172" y="155" type="line"/>
      <point x="203" y="168"/>
      <point x="254" y="177"/>
      <point x="296" y="177" type="curve" smooth="yes"/>
      <point x="339" y="177"/>
      <point x="364" y="166"/>
      <point x="364" y="147" type="curve" smooth="yes"/>
      <point x="364" y="130"/>
      <point x="344" y="120"/>
      <point x="313" y="120" type="curve" smooth="yes"/>
      <point x="262" y="120"/>
      <point x="196" y="147"/>
      <point x="196" y="239" type="curve" smooth="yes"/>
      <point x="196" y="311"/>
      <point x="236" y="346"/>
      <point x="305" y="346" type="curve" smooth="yes"/>
      <point x="374" y="346"/>
      <point x="460" y="311"/>
      <point x="538" y="252" type="curve"/>
      <point x="376" y="288" type="line"/>
      <point x="442" y="488" type="line"/>
      <point x="538" y="389" type="line"/>
      <point x="461" y="446"/>
      <point x="367" y="474"/>
      <point x="280" y="474" type="curve" smooth="yes"/>
      <point x="128" y="474"/>
      <point x="22" y="388"/>
      <point x="22" y="240" type="curve" smooth="yes"/>
      <point x="22" y="63"/>
      <point x="174" y="-8"/>
    </contour>
    <contour>
      <point x="528" y="-204" type="curve" smooth="yes"/>
      <point x="692" y="-204"/>
      <point x="822" y="-121"/>
      <point x="822" y="28" type="curve" smooth="yes"/>
      <point x="822" y="130"/>
      <point x="761" y="175"/>
      <point x="687" y="175" type="curve" smooth="yes"/>
      <point x="624" y="175"/>
      <point x="551" y="143"/>
      <point x="551" y="58" type="curve" smooth="yes"/>
      <point x="551" y="-34"/>
      <point x="635" y="-59"/>
      <point x="676" y="-59" type="curve" smooth="yes"/>
      <point x="736" y="-59"/>
      <point x="793" y="-2"/>
      <point x="793" y="57" type="curve"/>
      <point x="698" y="7" type="line"/>
      <point x="698" y="-57"/>
      <point x="626" y="-84"/>
      <point x="535" y="-84" type="curve" smooth="yes"/>
      <point x="407" y="-84"/>
      <point x="242" y="-30"/>
      <point x="194" y="66" type="curve"/>
      <point x="355" y="11" type="line"/>
      <point x="271" y="-190" type="line"/>
      <point x="259" y="-141" type="line"/>
      <point x="310" y="-175"/>
      <point x="432" y="-204"/>
    </contour>
    <contour>
      <point x="687" y="25" type="curve" smooth="yes"/>
      <point x="666" y="25"/>
      <point x="659" y="41"/>
      <point x="659" y="55" type="curve" smooth="yes"/>
      <point x="659" y="69"/>
      <point x="666" y="85"/>
      <point x="687" y="85" type="curve" smooth="yes"/>
      <point x="708" y="85"/>
      <point x="715" y="69"/>
      <point x="715" y="55" type="curve" smooth="yes"/>
      <point x="715" y="41"/>
      <point x="708" y="25"/>
    </contour>
    <contour>
      <point x="606" y="285" type="curve"/>
      <point x="734" y="293" type="line"/>
      <point x="734" y="541"/>
      <point x="528" y="666"/>
      <point x="366" y="666" type="curve" smooth="yes"/>
      <point x="260" y="666"/>
      <point x="173" y="613"/>
      <point x="173" y="508" type="curve" smooth="yes"/>
      <point x="173" y="469"/>
      <point x="183" y="433"/>
      <point x="204" y="393" type="curve"/>
      <point x="338" y="437" type="line"/>
      <point x="331" y="453"/>
      <point x="327" y="468"/>
      <point x="327" y="481" type="curve" smooth="yes"/>
      <point x="327" y="520"/>
      <point x="361" y="528"/>
      <point x="389" y="528" type="curve" smooth="yes"/>
      <point x="481" y="528"/>
      <point x="606" y="439"/>
    </contour>
    <contour>
      <point x="582" y="101" type="line"/>
      <point x="752" y="101" type="line"/>
      <point x="752" y="658" type="line"/>
      <point x="582" y="658" type="line"/>
      <point x="592" y="547" type="line"/>
      <point x="582" y="465" type="line"/>
    </contour>
  </outline>
</glyph>
